<svg width="379" height="162" viewBox="0 0 379 162" fill="none" xmlns="http://www.w3.org/2000/svg">
<path d="M282.737 66.1399C282.123 64.7623 282.182 63.6202 282.899 63.0762C284.1 62.162 293.055 64.1572 294.589 65.6796C295.082 66.1688 296.071 66.3716 296.786 66.13C298.978 65.3904 306.655 67.0963 306.384 68.2633C306.208 69.0221 306.527 69.0878 307.483 68.4916C309.369 67.3165 311.362 68.932 310.834 71.2075C310.586 72.2771 310.901 72.9374 311.552 72.718C312.189 72.5025 312.641 71.4421 312.555 70.3607C312.423 68.7018 312.856 68.5344 315.325 69.2934C316.935 69.7881 318.131 70.7146 317.984 71.3529C317.837 71.9911 318.057 72.8512 318.474 73.2641C318.889 73.6777 319.204 73.0516 319.171 71.8737C319.117 69.9559 319.444 69.8613 322.301 70.9647C324.055 71.6429 325.605 72.2665 325.747 72.3507C325.888 72.4359 325.233 73.3658 324.29 74.4168C321.552 77.472 321.309 78.7266 323.575 78.116C325.721 77.5373 327.802 75.1972 327.938 73.2104C327.99 72.4496 329.106 72.2044 330.742 72.5935C333.917 73.3487 335.401 74.6449 335.407 76.6644C335.411 78.612 337.943 82.7803 338.798 82.2468C339.174 82.0126 339.756 80.4661 340.091 78.811C340.791 75.3498 343.199 74.5095 345.58 76.8954C346.539 77.8563 347.223 78.0766 347.364 77.4707C347.489 76.931 348.249 76.6414 349.053 76.8279C349.857 77.0145 350.406 77.6317 350.275 78.1987C350.143 78.7656 350.612 79.0356 351.318 78.7971C352.023 78.5594 353.058 79.3496 353.615 80.5528C354.485 82.4301 354.602 82.4798 354.438 80.9008C354.212 78.7358 356.215 78.8906 357.747 81.1555C358.312 81.993 358.626 82.1563 358.445 81.5187C358.243 80.815 359.435 80.6287 361.484 81.0426C363.68 81.4876 364.75 82.1764 364.555 83.019C364.39 83.7301 364.867 84.6038 365.617 84.9605C366.579 85.4178 366.613 85.9748 365.731 86.8533C364.661 87.921 364.336 87.7717 363.451 85.8107C362.428 83.5447 362.408 83.5421 361.293 85.5717C360.674 86.698 360.103 87.634 360.023 87.6504C358.615 87.9488 351.378 86.4938 351.857 86.0096C352.224 85.6371 351.274 84.9463 349.745 84.4724C348.216 83.9993 346.856 84.0811 346.723 84.6558C346.57 85.3143 345.313 85.1857 343.307 84.3054C341.215 83.3877 339.908 83.2774 339.477 83.9801C339.044 84.6885 338.362 84.6267 337.451 83.7953C336.698 83.1061 331.941 81.8131 326.881 80.9212C315.106 78.8451 312.055 77.7778 313.173 76.1237C313.644 75.428 313.59 74.7565 313.054 74.6322C312.518 74.5078 311.706 74.9589 311.25 75.6332C310.75 76.3742 308.996 76.5267 306.831 76.019C304.855 75.5554 301.985 75.1418 300.451 75.0999C298.918 75.0581 297.479 74.4799 297.255 73.815C296.994 73.0429 297.241 72.9977 297.939 73.6903C298.677 74.4233 298.884 74.34 298.578 73.4343C298.295 72.5925 297.629 72.327 296.789 72.7204C296.053 73.0649 294.791 73.2092 293.983 73.0422C293.175 72.8742 289.608 72.3213 286.055 71.814C282.503 71.3058 278.045 70.0667 276.149 69.0589C274.252 68.0521 272.11 67.4266 271.389 67.6699C270.018 68.1329 268.9 68.0951 261.318 67.3331C257.195 66.9182 256.687 66.6299 256.633 64.6791C256.599 63.4753 255.958 62.4766 255.208 62.4595C254.346 62.4401 254.133 61.74 254.631 60.559C255.714 57.9922 255.684 57.9988 261.399 58.9699C264.192 59.4437 266.756 59.6579 267.098 59.4457C267.439 59.2323 268.827 60.002 270.181 61.156C271.535 62.3091 272.736 62.8538 272.849 62.3667C272.962 61.8797 273.976 61.456 275.104 61.425C276.869 61.376 276.948 61.6004 275.674 63.0551C274.35 64.5649 274.424 64.6806 276.373 64.1547C277.571 63.8322 278.904 63.0667 279.334 62.4542C280.468 60.8427 281.788 64.2986 280.798 66.2873C280.338 67.2112 280.718 68.1772 281.759 68.7236C283.807 69.7995 284.066 69.1163 282.737 66.1399Z" fill="black"/>
<path d="M337.396 77.9547C337.15 77.5586 337.419 76.7589 337.997 76.1774C338.841 75.3263 339.071 75.3796 339.17 76.4457C339.314 77.9676 338.066 79.0288 337.396 77.9547Z" fill="black"/>
<path d="M368.04 85.6933C368.186 85.0631 367.802 84.2356 367.184 83.855C366.567 83.4747 367.496 83.4512 369.249 83.8046C371.001 84.157 372.346 84.8335 372.236 85.3079C372.126 85.7823 373.396 86.3102 375.059 86.4805C376.757 86.6551 377.746 87.1308 377.313 87.5662C376.89 87.9926 375.269 88.0455 373.709 87.6835C371.512 87.1736 370.929 87.4067 371.111 88.722C371.319 90.2074 371.125 90.1953 369.561 88.6281C368.578 87.6444 367.894 86.3236 368.04 85.6933Z" fill="black"/>
<path d="M249.243 60.2744C248.697 59.0523 248.308 57.7454 248.377 57.3724C248.614 56.0806 253.614 58.3057 253.751 59.7644C253.845 60.7615 253.43 60.9167 252.447 60.2522C251.655 59.7162 250.98 59.6017 250.948 59.9977C250.776 62.1403 250.122 62.2462 249.243 60.2744Z" fill="black"/>
<path d="M324.188 76.8159C323.992 76.5014 324.229 75.843 324.715 75.3542C326.036 74.0225 326.527 74.4547 325.47 76.0182C324.961 76.7715 324.384 77.1303 324.188 76.8159Z" fill="black"/>
<path d="M215.862 53.5737C223.276 54.8234 229.449 55.4144 230.199 54.9469C231.377 54.2131 232.5 54.868 232.223 56.1279C232.049 56.9222 232.289 57.0518 232.906 56.5001C234.108 55.428 239.091 56.174 240.737 57.6709C241.82 58.6574 241.747 58.9215 240.166 59.7146C238.943 60.3271 238.433 60.2671 238.604 59.5307C239.141 57.2143 237.357 58.2341 236.646 60.6491C236.232 62.0559 236.333 62.758 236.872 62.2167C238.624 60.4512 242.074 61.2158 242.134 63.3827C242.164 64.4757 241.792 65.2783 241.306 65.1655C240.821 65.0529 240.537 64.4687 240.677 63.8677C240.853 63.1079 240.403 63.0384 239.203 63.6396C238.253 64.1161 236.821 64.0639 236.02 63.5229C235.22 62.982 233.983 62.813 233.271 63.1486C231.42 64.0197 222.754 62.8133 221.984 61.5771C221.619 60.9926 218.8 60.8186 215.533 61.1792C209.629 61.8315 207.822 61.5525 205.98 59.7074C205.289 59.0142 205.02 59.1818 205.164 60.2171C205.328 61.4009 204.573 61.549 201.924 60.8552C200.024 60.3566 198.551 59.5981 198.651 59.1685C198.751 58.7389 198.058 58.2444 197.11 58.0685C196.081 57.878 195.831 58.0613 196.491 58.5234C198.527 59.9516 197.278 60.7931 194.082 60.1457C192.34 59.7939 190.652 59.9338 190.331 60.4588C189.341 62.0729 187.114 60.9122 187.881 59.1819C188.278 58.2864 188.694 57.343 188.806 57.0867C188.917 56.8301 189.239 57.2807 189.522 58.0875C189.921 59.224 190.865 59.1333 193.707 57.6842C195.725 56.656 197.49 55.3264 197.628 54.7312C197.801 53.986 197.431 53.928 196.439 54.5466C195.647 55.0403 194.21 55.2611 193.245 55.0373C192.281 54.8135 191.393 55.055 191.273 55.5742C191.152 56.0924 191.878 56.4487 192.886 56.3644C194.431 56.2354 194.451 56.3231 193.013 56.9207C191.742 57.4499 191.117 57.1929 190.551 55.9088C189.903 54.4372 189.616 54.4855 188.568 56.2378C187.893 57.3646 187.311 58.6122 187.274 59.0102C187.165 60.1858 183.608 60.7812 180.744 60.1041C179.261 59.7527 178.444 59.1145 178.896 58.6578C179.342 58.2091 178.468 58.2966 176.954 58.8528C173.886 59.9793 172.97 59.2462 173.668 56.2248C174.022 54.6933 173.526 54.9353 171.643 57.2095C169.441 59.8706 168.689 60.1283 165.23 59.4137C159.439 58.2174 158.658 58.2066 159.038 59.3337C159.706 61.3151 153.24 60.387 151.152 58.2014C150.058 57.0575 148.826 56.4605 148.415 56.8752C148.003 57.29 148.172 57.9532 148.789 58.35C149.407 58.7459 149.513 59.3384 149.028 59.666C148.542 59.9927 147.601 59.5454 146.936 58.6715C145.972 57.4036 146.035 56.8485 147.247 55.9266C148.082 55.292 149.014 54.1408 149.316 53.3691C150.221 51.063 151.152 51.0009 152.644 53.1479C154.525 55.8552 155.53 55.9716 155.332 53.4576C155.204 51.8604 155.76 51.3899 157.817 51.3539C159.375 51.3256 160.955 51.9499 161.653 52.8686C162.642 54.1688 162.8 54.1387 162.599 52.6886C162.367 51.0251 164.424 50.8395 168.113 52.1895C168.724 52.4135 169.625 52.1923 170.115 51.6994C170.74 51.0693 171.335 51.2362 172.114 52.262C172.978 53.3976 173.296 53.4253 173.549 52.3876C173.767 51.4969 174.029 51.4652 174.341 52.2922C175.717 55.9386 183.884 59.3967 184.531 56.6079C184.734 55.737 183.974 54.9387 182.654 54.6323C181.436 54.3495 180.242 53.5324 180 52.8151C179.704 51.9386 180.044 51.8387 181.036 52.5106C181.848 53.0594 182.604 53.1177 182.714 52.6403C182.825 52.163 184.585 51.6209 186.627 51.4348C189.587 51.1659 190.603 51.4376 191.646 52.7771C192.74 54.183 192.874 54.2121 192.466 52.9573C192.075 51.7516 192.323 51.76 193.738 52.9989C194.835 53.9598 195.793 54.2376 196.289 53.7378C196.725 53.2981 197.71 53.3613 198.476 53.8788C199.241 54.3974 200.318 54.366 200.869 53.8111C202.616 52.0515 208.255 53.0421 209.89 55.3958C210.702 56.5636 211.766 57.2694 212.257 56.9645C212.746 56.6593 212.441 55.5897 211.578 54.5886C209.745 52.461 209.542 52.5093 215.862 53.5737Z" fill="black"/>
<path d="M243.833 60.9581C242.508 60.0611 242.425 58.9916 243.622 58.2461C244.894 57.4532 246.743 59.3656 245.903 60.607C245.457 61.267 244.526 61.4257 243.833 60.9581Z" fill="black"/>
<path d="M249 65.1692C248.039 65.7693 245.742 64.1595 245.996 63.0646C246.107 62.5863 246.636 62.2964 247.172 62.4208C247.708 62.5451 248.026 63.1969 247.878 63.8679C247.701 64.6818 248.039 64.6751 248.894 63.8471C249.6 63.1639 250.074 63.0809 249.948 63.6636C249.821 64.2459 249.395 64.9241 249 65.1692Z" fill="black"/>
<path d="M133.305 54.8752C134.325 53.1553 136.832 52.1152 140.83 51.7538C143.378 51.5229 145.271 52.0804 146.596 53.4494C147.672 54.5613 147.622 54.6841 146.222 54.3736C145.055 54.1141 144.597 54.6555 144.576 56.3168C144.553 58.1779 144.41 58.2924 143.828 56.9133C143.239 55.5137 142.903 55.4051 141.967 56.3119C141.339 56.9207 140.46 57.2298 140.011 56.9995C139.564 56.7683 138.357 57.604 137.329 58.8551C135.346 61.2724 133.521 61.3261 130.918 59.0456C129.652 57.9366 128.87 58.0231 127.171 59.459C125.872 60.5568 125.39 60.679 125.951 59.7683C126.461 58.9401 126.361 57.5814 125.728 56.7487C124.783 55.506 124.621 55.5483 124.82 56.9877C124.993 58.2226 124.691 58.4882 123.799 57.885C123.103 57.4143 121.09 57.4011 119.328 57.8564C117.565 58.3107 116.672 58.8127 117.34 58.9719C118.01 59.1304 118.457 59.6879 118.336 60.2101C118.211 60.7468 116.897 60.608 115.312 59.8891C113.07 58.8739 112.553 58.9366 112.73 60.2076C112.87 61.2122 112.206 61.8167 110.926 61.8522C109.292 61.8971 108.949 61.296 109.156 58.7528C109.297 57.0177 109.711 55.1522 110.076 54.6075C110.98 53.26 115.977 52.3296 116.977 53.3225C117.422 53.7644 118.523 53.7553 119.426 53.3026C122.174 51.9254 123.23 54.0953 120.687 55.896C118.492 57.4509 118.496 57.4622 121.006 56.6382C122.525 56.1388 123.537 55.0987 123.513 54.0614C123.473 52.3017 125.027 51.7129 129.276 51.8797C130.975 51.9468 131.669 52.6036 131.892 54.3584C132.191 56.7119 132.21 56.7195 133.305 54.8752Z" fill="black"/>
<path d="M99.5707 55.9173C99.5561 55.3698 101.281 54.4109 103.402 53.7853C107.743 52.5068 108.834 52.4951 108.548 53.7293C108.439 54.1978 108.306 56.0147 108.252 57.767C108.175 60.2888 107.825 60.876 106.572 60.585C105.701 60.3829 105.087 59.7929 105.208 59.2737C105.328 58.7555 104.74 58.4261 103.902 58.5426C103.051 58.6613 102.44 59.5245 102.518 60.4993C102.622 61.7737 102.495 61.8501 102.049 60.7835C101.439 59.326 98.115 59.1591 96.6502 60.512C96.2504 60.8811 94.6147 60.9624 93.0152 60.6928C91.4157 60.4232 88.6525 61.0189 86.8756 62.018C82.6394 64.3999 76.1192 65.18 76.5666 63.2523C76.7385 62.512 76.3348 61.7654 75.6687 61.5923C74.9483 61.4056 75.2981 60.9026 76.5317 60.3513C77.6716 59.8408 78.2463 59.0676 77.8081 58.6333C77.3692 58.1978 76.5388 58.5379 75.9623 59.3896C74.9666 60.8575 74.8839 60.8383 74.3495 59.0009C73.7183 56.8372 75.0122 54.9426 76.2687 56.19C76.716 56.6336 78.3223 56.5414 79.8384 55.9848C81.3545 55.4281 82.5221 55.2854 82.4332 55.6683C82.3444 56.0511 83.0505 55.6935 84.0018 54.8723C84.9988 54.0135 86.1574 53.8029 86.7339 54.3751C87.5123 55.1481 87.4008 55.6242 86.2318 56.5119C85.0524 57.4095 84.9433 57.9724 85.7257 59.1262C86.5111 60.2847 86.6333 60.2936 86.3023 59.1717C85.7474 57.2946 88.4216 55.313 90.0367 56.4044C90.8253 56.9385 91.4468 56.6403 91.6849 55.6145C91.8952 54.7086 92.5681 54.2951 93.1811 54.6971C93.7943 55.0981 94.0717 55.8934 93.7973 56.4652C93.5229 57.0369 93.7378 57.6063 94.2735 57.7306C95.574 58.0324 95.9043 56.3526 94.7662 55.223C94.1479 54.6094 94.2494 54.0796 95.0871 53.5575C95.9236 53.0361 96.7036 53.4174 97.5376 54.7556C98.9252 56.9819 99.6076 57.3723 99.5707 55.9173Z" fill="black"/>
<path d="M70.6812 57.3878C70.1143 57.2562 70.0221 56.7728 70.4777 56.3139C70.9332 55.8551 71.4986 55.5243 71.7353 55.5793C71.972 55.6342 72.0632 56.1173 71.9388 56.6531C71.8145 57.1888 71.2481 57.5193 70.6812 57.3878Z" fill="black"/>
<path d="M67.1985 59.9333C66.0145 60.6645 65.9294 60.5267 66.7795 59.2611C67.3687 58.3857 68.0388 57.9715 68.2692 58.3411C68.4998 58.7098 68.0183 59.4265 67.1985 59.9333Z" fill="black"/>
<path d="M66.1731 63.0111L68.8551 60.8588C71.7224 58.5585 73.8143 59.1261 74.7095 62.4475C75.261 64.4901 73.4911 65.379 69.7815 64.9214C68.8304 64.8043 67.2827 65.0949 66.3405 65.5671C65.3983 66.0394 64.2618 66.062 63.8145 65.6184C63.3675 65.1738 62.639 65.1762 62.1956 65.6225C60.751 67.0786 58.9519 64.8737 59.8659 62.7668C60.4692 61.3752 60.2144 61.4998 59.0622 63.1603C58.0676 64.5925 56.6305 65.419 55.5648 65.1717C53.5056 64.6937 51.4296 66.2209 53.3554 66.7962C54.0468 67.0018 52.9165 67.5105 50.844 67.9257C48.7717 68.3399 46.1779 68.3692 45.0792 67.99C43.8305 67.5585 42.2471 68.0995 40.8489 69.4349C38.7714 71.4196 35.9098 71.0501 37.8918 69.0525C38.4287 68.5129 38.2727 68.3227 37.5053 68.5819C36.7981 68.8202 36.0304 69.8277 35.8 70.8203C35.3137 72.9156 32.7362 72.2907 31.7716 69.8432C31.2986 68.6432 31.1612 68.8156 31.2384 70.513C31.3244 72.4116 31.0158 72.6531 29.4078 71.9381C28.3431 71.4651 27.6153 71.5005 27.7902 72.0164C27.9639 72.533 27.3538 73.0608 26.4341 73.1881C23.6599 73.5749 22.9884 73.1018 23.9489 71.4359C24.4519 70.565 23.7998 70.9906 22.5014 72.3831C21.1486 73.8328 20.0852 74.3539 20.0142 73.6024C19.9455 72.8812 19.4407 72.186 18.8923 72.0587C18.3439 71.9315 17.9945 72.5433 18.1167 73.4186C18.3136 74.8307 16.5452 75.143 14.978 73.9733C14.7034 73.7679 13.8715 74.2688 13.129 75.0841C12.3865 75.8993 10.94 76.3725 9.91328 76.1342C8.88755 75.8961 7.36494 76.481 6.52965 77.4349C3.66824 80.7005 -0.539517 76.6523 1.33012 72.4318C2.33315 70.1669 5.75294 68.5472 6.61465 69.9298C6.87422 70.3463 7.2492 69.9867 7.44815 69.1295C7.8411 67.4365 11.457 66.7277 12.8163 68.0759C13.2794 68.5355 13.7769 68.4005 13.922 67.7751C14.0904 67.0494 15.1097 67.0632 16.7362 67.8133C18.1393 68.4603 18.7943 68.6237 18.1917 68.1769C16.8763 67.2012 17.1043 65.4843 18.5061 65.8096C19.0535 65.9367 19.746 67.2523 20.0459 68.7335C20.6201 71.5759 22.6146 72.9966 22.1821 70.2558C22.0432 69.3767 21.8165 67.9382 21.6777 67.059C21.5385 66.1767 21.9399 65.58 22.5731 65.727C23.2053 65.8737 24.5088 65.5028 25.4704 64.9027C26.4328 64.3037 27.8076 64.2102 28.5256 64.695C29.2433 65.1809 29.9541 65.0461 30.1051 64.3954C30.2562 63.7447 30.968 63.6102 31.6877 64.0965C32.4064 64.5826 33.5709 64.3467 34.276 63.5731C35.3386 62.4051 35.7652 62.4384 36.7781 63.7709C37.4507 64.6549 38.4804 65.2162 39.0675 65.0178C39.6545 64.8194 40.2085 65.2549 40.2997 65.9855C40.4275 67.0181 40.8321 67.0792 42.119 66.263C43.029 65.6858 43.1894 65.3842 42.4737 65.5928C41.7592 65.8006 41.0094 65.4839 40.8079 64.8879C40.6064 64.292 39.7359 63.9031 38.8734 64.0232C36.1003 64.4092 38.8546 61.667 41.8479 61.062C44.1046 60.6054 44.8645 60.8516 45.9279 62.3826C47.413 64.5207 49.4067 65.272 49.7436 63.8206C49.868 63.2848 49.093 62.643 48.0215 62.3943C45.932 61.9093 45.7393 60.3647 47.6862 59.7079C48.3399 59.488 50.4779 59.6793 52.4388 60.1345C54.8799 60.701 56.5669 60.4561 57.791 59.3574C58.773 58.4746 60.1095 58.1124 60.759 58.5516C61.4095 58.9911 62.2469 58.8692 62.6192 58.2822C63.0363 57.6265 63.8535 58.3336 64.736 60.1132L66.1731 63.0111Z" fill="black"/>
</svg>
