<svg width="420" height="179" viewBox="0 0 420 179" fill="none" xmlns="http://www.w3.org/2000/svg">
<path d="M384.754 75.4008C384.674 74.7968 385.162 74.3483 385.841 74.4043C386.52 74.4603 387.867 75.283 388.837 76.2339C389.807 77.1837 391.949 78.2841 393.599 78.6798C395.248 79.075 396.449 79.7284 396.269 80.1323C396.088 80.5354 396.512 82.6617 397.211 84.856C397.975 87.2523 398.706 88.3442 399.044 87.5898C399.353 86.899 399.353 85.6191 399.042 84.7462C398.583 83.4491 398.799 83.4347 400.222 84.6698C401.374 85.6687 402.386 85.9013 403.209 85.356C403.915 84.8874 404.277 84.9412 404.045 85.4793C403.805 86.0368 404.902 86.8766 406.712 87.52C408.807 88.2642 409.627 88.9719 409.283 89.7399C408.956 90.4714 409.642 91.1367 411.237 91.6337C414.479 92.6447 419.514 98.7412 418.669 100.632C418.31 101.433 418.562 102.634 419.228 103.302C419.918 103.995 419.97 104.612 419.349 104.739C417.952 105.023 416.458 107.718 417.451 108.162C417.866 108.348 418.404 108.054 418.648 107.509C418.891 106.965 419.226 106.875 419.392 107.309C419.558 107.743 418.869 108.513 417.863 109.022C416.273 109.823 416.234 109.958 417.571 110.043C418.765 110.117 418.84 110.794 417.905 113.056C416.944 115.377 416.37 115.825 415.085 115.251C413.275 114.441 413.498 112.948 415.42 113.02C416.109 113.046 416.301 112.871 415.848 112.633C415.394 112.394 414.352 112.297 413.534 112.415C412.332 112.59 412.24 113.145 413.054 115.277C413.61 116.733 413.611 118.233 413.055 118.61C412.398 119.057 412.54 119.23 413.462 119.107C414.422 118.978 414.527 119.157 413.789 119.657C413.189 120.065 411.739 122.281 410.566 124.582C409.392 126.884 407.932 128.842 407.322 128.935C406.712 129.027 405.53 129.875 404.696 130.819C403.658 131.995 403.03 132.138 402.699 131.271C402.055 129.585 398.395 130.07 398.299 131.855C398.185 133.954 399.659 134.02 400.65 131.961C401.534 130.126 401.556 130.141 401.456 132.558C401.387 134.255 401.028 135.008 400.321 134.938C399.753 134.882 399.34 135.23 399.405 135.711C399.608 137.223 394.29 141.591 392.967 141C391.228 140.222 391.72 139.55 394.584 138.788C396.788 138.2 396.934 137.979 396.159 136.404C395.433 134.932 395.209 134.877 394.687 136.044C393.967 137.656 393.55 137.557 391.863 135.379C390.856 134.078 390.489 134.046 389.969 135.21C389.613 136.005 389.7 136.51 390.162 136.334C390.623 136.158 390.97 137.428 390.93 139.158C390.868 141.965 390.553 142.483 388.01 143.979C386.442 144.9 384.59 145.4 383.895 145.089C383.199 144.778 382.694 145.006 382.773 145.598C382.852 146.189 382.226 147.169 381.382 147.776C379.997 148.77 379.925 148.695 380.651 147.008C381.094 145.979 381.163 144.704 380.803 144.175C380.028 143.034 383.596 141.22 386.064 141.5C387.88 141.706 390.301 137.114 388.587 136.718C387.348 136.432 388.149 135.079 390.7 133.15C391.868 132.267 392.977 132.141 393.652 132.818C394.505 133.673 394.818 133.409 395.144 131.556C395.41 130.052 396.228 128.958 397.43 128.498C398.46 128.105 399.183 127.472 399.039 127.091C398.893 126.711 400.273 124.639 402.105 122.486C403.937 120.334 406.126 117.622 406.97 116.458C407.813 115.295 409.069 114.597 409.759 114.906C410.451 115.215 411.197 115.063 411.418 114.569C411.639 114.075 411.378 113.729 410.838 113.801C410.298 113.875 410.406 113.247 411.079 112.408C411.752 111.571 412.033 109.978 411.704 108.868C411.056 106.689 411.015 103.169 411.626 102.31C411.834 102.018 411.357 101.2 410.564 100.494C409.08 99.1722 409.165 97.3293 410.678 98.0059C411.145 98.2146 411.38 98.7146 411.2 99.116C411.02 99.5182 411.909 100.092 413.176 100.391C414.443 100.689 415.614 100.631 415.779 100.263C415.943 99.8949 415.339 99.4545 414.434 99.2851C413.529 99.1149 412.39 98.3335 411.901 97.5478C411.112 96.2783 411.196 96.0899 412.66 95.8523C414.006 95.6348 413.973 95.4345 412.473 94.7506C411.465 94.2919 410.204 94.2939 409.671 94.7551C408.896 95.4269 408.697 95.3381 408.681 94.3127C408.67 93.6079 408.209 92.8438 407.658 92.6159C407.106 92.3884 407.194 93.3025 407.852 94.6485C408.51 95.9936 408.95 97.3174 408.828 97.5898C408.439 98.4596 405.632 96.2169 404.631 94.2358C403.91 92.8114 403.709 92.6932 403.84 93.7732C403.967 94.8071 403.621 94.9448 402.634 94.2518C401.872 93.7179 401.311 92.6715 401.384 91.9264C401.466 91.1044 401.792 90.9734 402.212 91.5932C402.595 92.155 403.088 92.2095 403.308 91.7156C403.829 90.5522 402.715 90.0714 401.01 90.7226C400.04 91.0932 399.304 90.7642 398.351 89.5333C396.714 87.4198 395.929 87.031 396.116 88.4282C396.198 89.0392 395.797 89.0348 395.181 88.4173C394.314 87.5472 394.451 87.0624 395.876 85.9389C397.599 84.5804 397.583 84.5629 395.267 85.2912C393.959 85.7039 391.964 85.8241 390.836 85.5599C389.111 85.155 389.04 84.9525 390.392 84.2871C392.666 83.1669 391.855 81.8766 389.454 82.7934C386.874 83.779 386.263 83.458 387.738 81.8926C388.702 80.8698 388.543 80.8413 386.876 81.7342C385.507 82.4674 383.701 82.3686 381.408 81.4336C378.533 80.2624 378.103 79.7683 378.731 78.3639C379.262 77.175 378.995 76.6186 377.807 76.4448C373.631 75.8353 373.326 75.6571 374.082 74.27C374.509 73.4864 374.426 72.9037 373.897 72.9748C373.369 73.045 373.118 72.6984 373.339 72.2046C374.064 70.582 371.064 70.0613 369.833 71.5953C369.172 72.4195 368.337 72.9627 367.978 72.8022C367.402 72.5446 366.248 67.5674 366.588 66.8062C366.661 66.6433 368.478 67.1902 370.627 68.0208C372.897 68.8973 374.368 69.9023 374.137 70.4183C373.919 70.9062 374.313 71.562 375.013 71.8751C375.713 72.1881 376.457 72.0624 376.666 71.5957C377.175 70.456 381.917 72.6468 383.574 74.7868C384.384 75.8321 384.844 76.0714 384.754 75.4008Z" fill="black"/>
<path d="M350.715 63.5125C350.152 61.4983 351.411 60.7303 354.264 61.3474C356.963 61.9311 357.39 62.8938 355.897 65.0326C354.966 66.3656 354.957 66.9473 355.866 66.9962C357.549 67.0879 358.49 70.151 356.901 70.364C356.276 70.4472 355.507 70.1371 355.193 69.6746C354.879 69.2114 354.208 69.1142 353.703 69.4573C353.198 69.8008 352.187 69.814 351.458 69.4881C350.411 69.0202 350.455 68.735 351.66 68.1416C352.831 67.5655 353.016 67.1339 352.45 66.3016C352.043 65.7033 351.767 65.6528 351.835 66.1896C351.902 66.7268 351.205 67.4198 350.285 67.7304C348.902 68.1974 348.712 68.025 349.192 66.7327C349.734 65.2746 349.703 65.2585 348.721 66.4822C348.142 67.2029 347.314 67.6352 346.882 67.442C346.449 67.2485 346.364 66.4079 346.693 65.5753C347.049 64.6707 346.926 64.4101 346.388 64.9297C345.891 65.4081 344.851 65.5083 344.077 65.1539C342.858 64.5949 342.89 64.4737 344.309 64.2547C345.313 64.0998 345.556 63.8197 344.937 63.5327C344.38 63.2755 343.385 63.4507 342.726 63.9228C342.067 64.3948 340.495 64.657 339.232 64.506C337.498 64.2987 337.219 64.0395 338.091 63.4467C338.919 62.8842 338.762 62.6359 337.538 62.5702C336.464 62.5117 335.435 61.5017 334.768 59.852L333.705 57.2252L335.132 59.0078C337.074 61.4318 337.821 61.6471 337.254 59.6177C336.995 58.686 337.139 57.6811 337.575 57.3843C338.011 57.0884 337.848 56.6136 337.213 56.3294C336.578 56.0455 336.026 56.4147 335.986 57.1505C335.937 58.0543 335.547 58.1189 334.781 57.3506C333.448 56.0146 333.298 56.2367 333.048 59.9167L332.859 62.6986L331.875 59.6918C331.335 58.0379 331.013 57.1842 331.16 57.7936C331.636 59.7608 330.648 60.7639 328.866 60.123C327.911 59.7794 327.064 59.0096 326.983 58.4126C326.895 57.7519 325.991 57.6045 324.667 58.0358C322.642 58.6962 322.487 58.6034 322.347 56.6471C322.216 54.7941 321.806 54.5017 318.809 54.1322C316.945 53.9023 315.277 54.0322 315.103 54.4209C314.613 55.5172 316.286 55.9539 319.187 55.4874C321.659 55.089 321.776 55.1613 320.996 56.6039C320.01 58.4266 315.476 57.1976 314.289 54.7847C313.686 53.562 313.521 53.5829 313.45 54.8942C313.39 56.0049 312.91 56.3239 311.948 55.8936C311.17 55.546 310.939 54.9856 311.435 54.6492C312.026 54.2483 311.42 53.9849 309.684 53.8855C307.509 53.761 307.216 53.5497 308.056 52.7125C308.75 52.02 308.531 51.4944 307.375 51.0783C305.757 50.4961 304.291 51.4516 305.78 52.1175C306.17 52.2917 306.232 53.0068 305.919 53.7069C305.236 55.2335 302.042 54.0565 302.687 52.5161C302.933 51.9267 302.43 51.9501 301.568 52.5699C299.963 53.7239 297.006 52.0816 296.665 49.8468C296.568 49.2131 295.598 48.9267 294.201 49.1198C292.188 49.3998 291.772 49.1119 290.905 46.8458C290.253 45.1355 290.321 44.1976 291.107 44.092C291.763 44.0046 292.12 44.3341 291.9 44.8254C291.68 45.3193 293.007 46.3214 294.875 47.0709C297.425 48.0934 298.267 48.0737 298.326 46.991C298.434 45.0056 300.904 44.8682 303.486 46.704C305.144 47.882 305.792 47.9181 306.264 46.8608C306.714 45.8552 307.671 45.8351 309.801 46.7875C311.407 47.5059 312.784 48.5624 312.861 49.1363C312.942 49.744 314.43 49.9989 316.425 49.7467C318.499 49.4845 320.531 49.8486 321.575 50.6698C322.699 51.553 323.471 51.6486 323.785 50.9451C324.052 50.3494 324.39 50.1813 324.539 50.5693C324.688 50.9578 326.098 51.4591 327.675 51.6835C330.491 52.0833 330.51 52.1307 328.801 54.4435C327.58 56.0949 327.423 56.7479 328.277 56.6337C328.946 56.544 329.446 56.1159 329.388 55.6815C329.143 53.8479 331.951 53.3463 335.411 54.6071C337.455 55.3511 341.674 56.7875 344.787 57.7978C350.58 59.6777 350.97 60.2234 348.847 63.4837C348.635 63.8095 349.081 64.3524 349.838 64.6908C350.983 65.2027 351.131 65.0041 350.715 63.5125Z" fill="black"/>
<path d="M359.253 65.2626C358.513 65.3611 358.473 65.0154 359.147 64.3425C359.955 63.5379 360.527 63.6501 361.409 64.7887C362.058 65.6266 363.31 66.3507 364.192 66.3987C366.317 66.5138 365.055 68.1819 361.779 69.5904C358.802 70.8699 357.079 68.8746 359.153 66.5485C359.998 65.5987 360.032 65.1578 359.253 65.2626Z" fill="black"/>
<path d="M375.567 78.6062C375.783 78.1233 376.328 77.588 376.779 77.4167C377.228 77.2441 377.706 77.3895 377.839 77.7383C377.973 78.0871 377.428 78.6224 376.628 78.9278C375.748 79.2642 375.33 79.1374 375.567 78.6062Z" fill="black"/>
<path d="M367.561 74.3082C366.873 74.2834 365.918 73.8565 365.44 73.3595C364.962 72.8638 365.525 72.8844 366.692 73.4062C367.858 73.9279 368.25 74.3342 367.561 74.3082Z" fill="black"/>
<path d="M217.51 11.015C219.138 12.9985 219.419 13.0734 220.442 11.7996C221.185 10.8733 222.334 10.7301 223.791 11.3816C225.672 12.2229 225.813 12.6587 224.72 14.2563C224.012 15.2918 223.562 16.4787 223.72 16.8934C224.325 18.4776 223.308 19.8955 221.972 19.3295C221.205 19.0039 219.635 18.6452 218.485 18.5318C217.105 18.3954 216.137 17.6553 215.64 16.3544C214.949 14.5446 214.826 14.5067 214.129 15.8987C213.712 16.7318 213.389 16.8756 213.411 16.2163C213.434 15.5584 212.773 14.9828 211.943 14.9375C210.805 14.8759 210.619 15.1306 211.188 15.9686C212.33 17.6503 202.394 14.8313 200.361 12.8981C199.26 11.8496 198.284 11.4935 197.664 11.9148C197.13 12.2769 195.091 12.1419 193.132 11.6124C191.174 11.084 189.162 10.9133 188.661 11.235C188.136 11.5706 187.397 11.2929 186.917 10.5805C185.547 8.54659 184.14 7.99482 183.571 9.26941C183.276 9.92876 182.474 10.2168 181.788 9.91019C180.974 9.54628 180.949 8.94738 181.715 8.18319C182.505 7.39678 182.474 7.06938 181.622 7.18317C180.924 7.27653 180.127 7.86187 179.848 8.48474C179.57 9.1076 178.694 9.58152 177.902 9.53876C176.899 9.48467 176.788 9.08046 177.534 8.21062C178.246 7.38222 177.84 7.38929 176.33 8.23304C175.077 8.93336 173.472 9.2465 172.764 8.92965C172.055 8.6128 170.726 8.78209 169.809 9.30601C168.875 9.83905 166.988 9.7408 165.515 9.08206C164.069 8.43546 162.94 8.31273 163.006 8.80962C163.073 9.30567 162.341 9.36015 161.38 8.9306C160.419 8.50105 159.462 8.53117 159.253 8.99789C159.045 9.46462 158.622 9.63932 158.316 9.38709C158.009 9.13486 156.162 9.03814 154.213 9.17142C150.972 9.39417 150.604 9.24701 149.921 7.46227C149.268 5.75159 149.336 5.58136 150.467 6.08719C151.375 6.49321 152.044 5.88593 152.719 4.04255C153.248 2.59996 153.931 1.78945 154.238 2.24017C154.545 2.69088 155.291 2.56543 155.897 1.96086C156.503 1.35715 157.579 1.12139 158.288 1.43824C159.255 1.87083 159.181 2.56973 157.994 4.24131C157.123 5.46604 156.526 6.77132 156.668 7.14219C157.09 8.24744 159.714 8.05546 159.564 6.93101C159.288 4.86989 160.885 0.560842 161.816 0.852244C163.155 1.27047 163.859 1.35412 166.71 1.43157C168.093 1.46878 170.384 2.23952 171.799 3.14419C173.392 4.16186 174.534 4.4292 174.796 3.84367C175.028 3.32433 174.749 2.66895 174.174 2.38752C173.149 1.8842 180.408 1.14258 182.365 1.55033C182.915 1.66512 184.144 1.80845 185.097 1.87007C189.69 2.1661 190.272 2.34193 188.685 2.95512C185.71 4.10429 186.444 5.18985 189.483 4.1369C191.857 3.31332 192.603 3.39344 192.749 4.48815C192.991 6.2919 193.935 6.71386 195.44 5.69142C196.13 5.22306 196.32 4.42842 195.896 3.78763C195.379 3.00439 195.536 2.85157 196.442 3.25683C197.142 3.56989 198.117 4.43031 198.607 5.16893C199.172 6.02042 200.045 6.36101 200.987 6.09773C201.805 5.86892 203.151 6.22521 203.977 6.88815C204.804 7.55194 205.655 7.70159 205.87 7.22128C206.101 6.70449 206.587 7.0114 207.061 7.97377C207.721 9.31589 207.98 9.33469 208.54 8.08132C208.914 7.24631 209.341 6.88125 209.489 7.26931C209.638 7.65775 211.098 8.16602 212.733 8.39832C214.823 8.69546 216.244 9.47429 217.51 11.015Z" fill="black"/>
<path d="M282.966 44.4777C284.882 45.8946 285.32 45.8786 285.995 44.3689C286.429 43.399 287.166 42.7755 287.632 42.9842C288.099 43.1929 288.225 43.9364 287.912 44.6365C287.599 45.3366 287.752 46.0923 288.252 46.3158C289.664 46.9472 290.667 50.3155 289.651 51.0065C288.221 51.9778 287.075 51.0544 288.253 49.8805C288.835 49.3007 288.92 48.6512 288.441 48.4372C287.963 48.2232 287.075 47.5504 286.469 46.9424C285.719 46.1917 284.797 46.4084 283.59 47.6193C281.7 49.5152 275.044 50.2037 273.965 48.6142C273.611 48.0923 273.139 48.0698 272.918 48.5637C272.297 49.952 269.907 48.4911 270 46.7789C270.052 45.8047 269.36 45.1314 268.071 44.9032C266.06 44.549 266.06 44.549 268.319 44.4194C269.562 44.3491 271.118 43.6195 271.776 42.7988C272.437 41.9759 273.395 41.7081 273.913 42.2026C274.43 42.6962 276.174 43.0371 277.789 42.9602C279.569 42.8763 281.608 43.4736 282.966 44.4777Z" fill="black"/>
<path d="M265.298 44.3892C264.724 44.9445 264.613 44.6535 265.015 43.6467C265.378 42.7359 265.802 42.3248 265.958 42.7325C266.114 43.1402 265.817 43.8862 265.298 44.3892Z" fill="black"/>
<path d="M263.962 48.4078C262.272 49.6663 261.952 49.2636 262.314 46.329C262.529 44.5933 262.934 44.4576 265.159 45.3781C266.919 46.1051 267.571 46.858 267.187 47.7168C266.876 48.4135 266.362 48.6013 266.044 48.1344C265.728 47.6679 264.791 47.7907 263.962 48.4078Z" fill="black"/>
<path d="M258.455 46.2293C257.957 46.0069 258.281 45.5049 259.218 45.0433C260.113 44.6032 260.976 44.302 261.138 44.3741C261.299 44.4462 260.955 44.98 260.374 45.5602C259.792 46.14 258.928 46.4411 258.455 46.2293Z" fill="black"/>
<path d="M415.069 117.789C414.474 117.869 414.167 117.529 414.388 117.036C414.609 116.542 415.172 116.308 415.639 116.516C416.105 116.725 416.412 117.064 416.32 117.27C416.228 117.476 415.665 117.709 415.069 117.789Z" fill="black"/>
<path d="M253.168 46.9199C252.701 46.7112 252.726 46.2641 253.223 45.9264C253.72 45.5887 254.509 45.483 254.975 45.6918C255.442 45.9005 255.417 46.3476 254.92 46.6853C254.423 47.023 253.634 47.1286 253.168 46.9199Z" fill="black"/>
<path d="M248.372 48.3657C247.993 48.5102 247.73 47.8272 247.785 46.8478C247.865 45.4329 248.006 45.3785 248.472 46.585C248.795 47.4208 248.749 48.2221 248.372 48.3657Z" fill="black"/>
<path d="M140.582 4.07111C140.819 3.54158 142.316 2.75579 143.908 2.32543C146.3 1.67914 146.754 1.78769 146.52 2.94458C146.365 3.71525 146.815 4.3766 147.518 4.41529C148.222 4.45314 148.806 5.51854 148.815 6.78227C148.829 8.76605 148.304 9.2173 144.977 10.077C142.858 10.625 140.721 10.8937 140.229 10.6736C139.738 10.4539 139.165 10.6559 138.956 11.1227C138.747 11.5894 137.889 11.6639 137.049 11.2882C136.209 10.9125 134.794 10.853 133.904 11.1548C132.576 11.6058 132.527 11.4523 133.628 10.2983C134.366 9.52541 134.591 9.03756 134.129 9.21357C133.667 9.39081 132.764 8.85678 132.121 8.02776C131.442 7.14959 130.616 6.75089 130.143 7.0726C129.697 7.37522 129.78 8.07315 130.327 8.62248C130.941 9.23803 130.841 10.2218 130.066 11.1869C129.111 12.3779 128.437 12.4287 127.25 11.4001C126.392 10.6561 125.5 9.96066 125.267 9.85461C123.472 9.03874 122.749 9.20396 122.275 10.5368C121.897 11.6 120.971 11.8356 119.275 11.2992C117.925 10.8728 116.644 10.9219 116.427 11.4072C116.209 11.8935 116.703 12.327 117.523 12.3711C118.343 12.416 118.852 12.8147 118.654 13.2576C118.456 13.7015 117.249 13.8796 115.973 13.6543C114.697 13.4298 112.974 13.579 112.145 13.9872C111.316 14.3954 110.392 14.3683 110.093 13.9281C109.793 13.4875 109.367 13.5313 109.147 14.0252C108.926 14.5191 108.172 14.6677 107.472 14.3547C106.772 14.0416 106.043 14.1334 105.853 14.5594C105.663 14.9845 104.883 14.9354 104.12 14.4503C103.356 13.9652 102.915 13.1591 103.139 12.6593C103.981 10.7754 102.849 10.1594 101.073 11.536C99.6382 12.6469 99.3962 13.2108 99.9845 14.0767C100.999 15.5708 99.0837 16.7766 97.7776 15.4665C97.21 14.8981 96.563 14.8399 96.3402 15.338C96.1171 15.837 94.1917 15.9688 92.0612 15.6301C88.843 15.1187 88.2674 15.2991 88.6566 16.6921C89.0412 18.0728 88.7668 18.2128 87.105 17.4819C85.704 16.8666 85.33 16.9631 85.8828 17.7969C86.4797 18.6982 85.944 19.1174 83.7352 19.4728C82.1162 19.7325 81.236 19.6444 81.7789 19.2752C82.3962 18.8557 82.1876 18.573 81.2233 18.5206C80.3742 18.4749 79.3747 19.1206 79.0017 19.9548C78.064 22.0517 69.9246 22.3802 68.9308 20.3626C68.5381 19.5648 67.8625 19.0489 67.4282 19.2141C66.9943 19.3806 67.0849 19.7154 67.6289 19.9586C68.1737 20.2022 68.2466 21.2347 67.7908 22.2539C66.9515 24.131 47.5156 31.9808 46.2618 30.9497C45.924 30.6714 45.7124 30.926 45.7911 31.5152C45.8702 32.1034 44.8098 33.0151 43.4331 33.541C42.0577 34.0664 40.6607 35.1046 40.3279 35.8488C39.9955 36.5922 38.8702 37.0594 37.8278 36.8855C36.1132 36.6005 35.1992 37.2304 34.6906 39.0486C34.5911 39.4033 33.196 40.2529 31.5903 40.9381C29.276 41.9235 28.5412 41.8678 28.0469 40.6641C27.5453 39.445 27.3663 39.595 27.1338 41.4288C26.7632 44.3434 24.9316 42.9766 24.7806 39.673C24.7242 38.435 24.2369 37.5664 23.699 37.7423C23.1611 37.9183 23.2855 37.476 23.976 36.7584C24.6653 36.0412 25.3853 35.1076 25.5746 34.6842C25.7636 34.2616 26.8378 34.4211 27.9617 35.0388C29.0853 35.6573 29.8426 36.5254 29.6446 36.9684C29.4469 37.4105 29.659 37.6306 30.1162 37.4553C30.5739 37.2811 30.4378 35.9322 29.8145 34.459L28.6815 31.7804L31.9346 31.8542C35.9563 31.944 37.7136 32.6961 35.2506 33.2739C33.5876 33.6636 33.4853 33.8786 34.1816 35.53C34.859 37.1373 34.9614 37.1586 35.04 35.7122C35.0887 34.8063 35.6516 34.1192 36.2942 34.1805C37.1767 34.2655 37.3377 33.8508 36.9574 32.4741C36.5475 30.9884 36.6921 30.6652 37.7482 30.7057C38.5418 30.7367 38.4538 30.4621 37.5207 29.996C36.2474 29.3594 36.5984 29.0072 39.6845 27.8283C41.7108 27.0542 43.7802 26.605 44.2826 26.8296C44.7849 27.0542 45.3775 26.8335 45.5984 26.3396C45.8192 25.8457 45.5183 25.5055 44.9291 25.5842C43.1994 25.8157 46.0345 23.2762 48.9853 21.9512C50.4581 21.2901 52.6735 20.8012 53.9083 20.8656C55.1444 20.9296 56.2641 20.4751 56.3967 19.8552C56.5301 19.2357 57.4069 18.8895 58.3454 19.0862C59.7449 19.379 59.7769 19.6581 58.525 20.6338C57.4413 21.4791 57.1942 22.28 57.671 23.3974C58.2283 24.7016 58.5418 24.4059 59.5023 21.6706C61.4034 16.2532 63.0924 15.4067 64.5236 19.1514C65.1931 20.9059 65.3145 20.9602 65.8568 19.7476C66.1846 19.0144 66.071 18.2437 65.6043 18.035C64.0692 17.3486 65.3855 16.1491 67.3218 16.4712C68.3642 16.6451 69.4751 16.2101 69.7905 15.5049C70.1054 14.8006 71.7031 14.2289 73.3395 14.2357C74.9763 14.2416 76.2649 13.8626 76.2017 13.3935C76.0627 12.3518 77.4775 12.8907 77.9185 14.0471C78.0931 14.504 77.0609 15.3682 75.6255 15.9686C73.6914 16.7778 73.2101 17.3487 73.7696 18.1722C74.225 18.8432 74.4648 18.8353 74.3733 18.154C74.2908 17.5326 76.0096 16.6037 78.1948 16.0891C80.3788 15.5749 82.4139 14.6011 82.7163 13.9248C83.0187 13.2485 83.8389 12.9513 84.539 13.2644C85.2391 13.5775 85.9827 13.4517 86.1914 12.985C86.4001 12.5183 87.5484 12.5735 88.7424 13.1074C90.0662 13.6994 90.8532 13.6267 90.7591 12.9218C90.6742 12.285 89.9849 11.7314 89.2275 11.6901C88.0989 11.6294 88.1731 11.3998 89.6368 10.4149C91.5212 9.14767 92.5846 9.19246 92.5477 10.5364C92.5353 10.9809 93.7 11.2797 95.1358 11.1998C96.5717 11.1199 97.2722 10.8355 96.6914 10.5676C94.3028 9.46488 97.0681 7.94193 103.139 7.01735C108.175 6.25021 109.858 6.36812 110.777 7.55509C111.731 8.78802 112.127 8.75966 112.859 7.40654C114.193 4.93927 115.265 4.87092 115.768 7.22184C116.014 8.36633 116.734 9.23404 117.369 9.14836C119.165 8.90808 119.398 7.47163 117.765 6.70577C116.418 6.07365 116.475 5.9721 118.447 5.51579C119.633 5.24156 120.838 5.36388 121.126 5.78794C121.414 6.212 121.897 6.00472 122.201 5.32669C123.027 3.47761 125.346 3.9767 126.738 6.30292C127.864 8.1838 128.034 8.22222 128.693 6.74737C129.603 4.71329 133.619 2.80885 134.759 3.87061C135.231 4.31047 135.099 5.21081 134.466 5.87147C133.833 6.53252 133.708 6.94692 134.188 6.79303C134.668 6.63914 135.479 5.85636 135.991 5.05365C136.52 4.22314 137.618 3.9045 138.536 4.31508C139.424 4.71115 140.345 4.60147 140.582 4.07111Z" fill="black"/>
<path d="M242.291 48.4377C241.999 47.6727 242.257 46.551 242.865 45.9451C244.546 44.2684 244.989 44.9845 243.847 47.5379C243.084 49.2445 242.687 49.4742 242.291 48.4377Z" fill="black"/>
<path d="M237.598 49.1222C237.392 49.03 237.159 48.4675 237.079 47.8718C236.999 47.276 237.339 46.9697 237.833 47.1906C238.326 47.4114 238.56 47.9743 238.352 48.441C238.143 48.9077 237.804 49.2144 237.598 49.1222Z" fill="black"/>
<path d="M383.734 138.601C383.588 138.219 383.902 137.611 384.432 137.251C385.926 136.236 386.235 136.77 385.139 138.472C384.591 139.323 383.075 140.489 381.77 141.063C379.951 141.864 379.526 142.445 379.949 143.553C381.31 147.114 375.028 153.325 371.602 151.805C370.551 151.338 369.861 150.575 370.069 150.108C370.278 149.641 369.853 148.993 369.126 148.668C368.399 148.343 368.192 147.812 368.667 147.489C369.143 147.166 370.04 147.41 370.66 148.033C371.582 148.959 371.933 148.652 372.58 146.355C373.016 144.811 373.598 143.879 373.875 144.287C374.152 144.693 374.644 144.431 374.97 143.704C375.295 142.977 375.943 142.552 376.41 142.76C376.877 142.969 377.502 142.595 377.8 141.929C378.098 141.262 379.615 140.397 381.171 140.007C382.726 139.616 383.879 138.984 383.734 138.601Z" fill="black"/>
<path d="M84.5442 12.2485C84.0504 12.0276 83.8164 11.4648 84.0251 10.998C84.2338 10.5313 84.5726 10.2246 84.7788 10.3168C84.985 10.409 85.2181 10.9715 85.298 11.5672C85.3778 12.163 85.0381 12.4693 84.5442 12.2485Z" fill="black"/>
<path d="M78.4461 13.7077C78.0684 12.7191 78.521 12.226 80.1178 11.8841C81.323 11.6257 82.3787 11.5988 82.4637 11.8231C82.5495 12.0479 81.7974 12.8693 80.7916 13.6476C79.4584 14.6797 78.8237 14.6963 78.4461 13.7077Z" fill="black"/>
<path d="M366.313 150.719C366.653 150.172 367.065 149.554 367.228 149.346C367.741 148.694 369.115 149.637 369.263 150.744C369.459 152.217 366.125 154.65 365.391 153.569C365.062 153.084 364.75 153.063 364.699 153.522C364.648 153.98 362.526 155.187 359.983 156.204C357.44 157.221 355.412 158.435 355.474 158.901C355.663 160.31 353.206 159.633 352.072 157.963C351.302 156.828 350.603 156.559 349.509 156.977C348.321 157.431 348.437 157.745 350.053 158.468C352.012 159.344 352.007 159.419 349.931 160.195C347.872 160.965 347.738 160.906 347.326 159.047C347.087 157.969 346.532 157.223 346.092 157.391C345.652 157.559 345.672 156.847 346.137 155.808C346.601 154.77 347.226 154.28 347.526 154.721C347.826 155.162 348.312 154.842 348.607 154.011C348.97 152.989 349.835 152.762 351.275 153.308C353.767 154.253 355.403 157.32 353.376 157.246C352.47 157.213 352.399 157.342 353.114 157.72C354.855 158.641 355.993 157.026 355.548 154.261C355.149 151.782 355.3 151.447 357.453 150.067C359.946 148.468 362.148 148.65 360.476 150.316C359.926 150.864 359.915 151.752 360.451 152.289C361.014 152.855 361.953 152.675 362.677 151.862C363.364 151.09 364.325 150.741 364.811 151.086C365.296 151.433 365.973 151.268 366.313 150.719Z" fill="black"/>
<path d="M370.439 153.837C369.843 153.917 369.536 153.577 369.757 153.083C369.978 152.589 370.541 152.355 371.008 152.564C371.474 152.773 371.781 153.111 371.689 153.318C371.597 153.524 371.034 153.757 370.439 153.837Z" fill="black"/>
<path d="M331.024 158.105C331.388 157.708 334.543 156.63 338.035 155.709C344.08 154.115 346.777 153.876 344.987 155.092C343.657 155.996 343.872 158.87 345.379 160.346C346.681 161.619 346.499 161.818 342.702 163.269C340.462 164.125 338.673 164.376 338.728 163.827C338.847 162.619 335.247 161.907 333.119 162.717C332.276 163.039 331.203 164.156 330.736 165.201C330.269 166.245 329.767 166.79 329.622 166.411C329.478 166.031 327.964 166.194 326.257 166.772C322.404 168.079 320.568 167.454 323.874 165.96C326.293 164.868 326.293 164.864 323.925 165.013C322.617 165.094 321.295 164.792 320.987 164.339C320.68 163.887 320.015 163.798 319.51 164.141C319.005 164.484 319.187 165.031 319.914 165.356C322.485 166.506 320.555 167.371 317.885 166.267C316.395 165.651 314.785 165.406 314.309 165.724C313.832 166.041 312.61 166.112 311.593 165.883C310.419 165.617 309.592 166.062 309.329 167.099C308.866 168.922 306.109 170.631 305.375 169.55C304.71 168.57 298.85 170.169 298.999 171.289C299.245 173.124 296.85 172.455 294.967 170.163C292.855 167.593 291.854 167.897 290.192 171.614C289.606 172.924 289.057 173.051 287.92 172.138C287.095 171.476 286.478 171.376 286.552 171.916C286.624 172.457 286.051 172.616 285.28 172.271C284.509 171.926 283.389 172.253 282.792 172.998C281.429 174.697 275.996 174.563 275.951 172.829C275.928 171.959 275.676 171.859 274.988 172.449C274.476 172.888 273.511 172.738 272.845 172.117C271.93 171.263 271.9 171.505 272.723 173.106C273.335 174.297 273.344 175.029 272.741 174.778C272.152 174.533 269.271 174.825 266.338 175.427C261.645 176.39 260.829 176.294 259.535 174.623C258.726 173.579 258.51 172.53 259.054 172.293C259.597 172.055 259.476 171.917 258.784 171.986C258.092 172.056 257.285 173.088 256.992 174.281C256.412 176.639 252.503 178.528 252.713 176.349C252.774 175.708 252.254 175.153 251.557 175.115C250.859 175.077 250.049 174.186 249.756 173.134C249.152 170.973 249.843 167.633 250.809 168.044C251.159 168.193 252.408 168.469 253.583 168.657C255.178 168.912 255.56 169.361 255.086 170.421C254.736 171.203 254.892 171.784 255.431 171.711C255.971 171.639 256.539 170.835 256.694 169.925C257.003 168.097 262.602 167.572 263.75 169.264C264.105 169.785 264.48 169.872 264.586 169.457C265.027 167.719 266.007 166.624 266.488 167.332C266.772 167.75 270.593 167.424 274.979 166.607C279.364 165.789 283.134 165.202 283.355 165.301C284.543 165.832 291.922 165.469 292.191 164.866C292.365 164.476 292.821 164.976 293.203 165.978C294.006 168.077 297.115 168.888 298.617 167.39C299.19 166.819 299.17 166.432 298.572 166.512C296.726 166.759 297.931 165.494 300.033 164.977C301.906 164.516 301.914 164.474 300.156 164.328C298.857 164.221 298.603 163.951 299.334 163.455C299.916 163.059 300.895 162.961 301.511 163.237C302.126 163.512 303.361 163.376 304.255 162.936C305.149 162.496 306.423 162.378 307.085 162.674C307.747 162.971 309.488 162.795 310.953 162.284C314.845 160.927 317.157 160.882 317.328 162.16C317.408 162.758 317.047 163.056 316.525 162.823C316.003 162.589 315.647 162.922 315.732 163.56C315.828 164.285 316.675 164.253 317.972 163.476C319.119 162.79 320.499 162.672 321.039 163.213C321.578 163.754 322.195 163.805 322.41 163.326C322.624 162.845 323.076 162.86 323.414 163.357C323.752 163.855 324.19 163.898 324.389 163.454C324.587 163.011 323.822 161.905 322.687 160.997C320.782 159.471 320.779 159.353 322.649 159.455C323.761 159.516 325.457 159.178 326.418 158.705C327.379 158.232 328.659 158.066 329.263 158.336C329.867 158.606 330.659 158.502 331.024 158.105Z" fill="black"/>
<path d="M18.3793 40.3297C18.4383 39.2299 19.2136 38.7487 20.8217 38.812C22.1175 38.863 23.2916 38.9267 23.4305 38.9532C23.569 38.9805 23.0283 39.8344 22.228 40.8522C21.0107 42.3994 21.0982 42.9598 22.7616 44.2678C24.5298 45.6582 24.2495 48.1886 22.4674 46.9273C22.0738 46.6485 21.3538 47.243 20.8675 48.2485C20.0859 49.8622 18.6003 52.0093 15.6573 55.7786C15.1711 56.4013 14.6063 57.2067 14.4018 57.5684C14.1964 57.9297 13.6732 57.7425 13.2366 57.1522C12.606 56.2989 12.5545 56.4073 12.9864 57.6798C13.4211 58.9576 13.1159 59.4627 11.4702 60.187C9.69925 60.9663 9.48498 61.3704 9.94002 63.0717C10.2919 64.3889 10.2091 64.6787 9.69278 63.9387C8.6234 62.4066 8.46031 63.1107 8.86185 67.5049C9.05232 69.5838 8.87765 72.0239 8.4739 72.9268C8.07016 73.8297 8.32085 75.3185 9.0308 76.2357C9.74075 77.153 10.1341 78.3227 9.90417 78.837C9.6746 79.3503 10.0669 81.1305 10.7749 82.7922C11.4884 84.4666 11.6134 86.2638 11.0549 86.8205C9.95426 87.9179 10.7213 89.5521 12.8838 90.7166C14.6261 91.6545 17.4815 96.0493 17.0197 97.0821C16.8281 97.5106 16.184 97.9262 15.5883 98.006C14.9925 98.0859 14.0824 99.0963 13.5656 100.252C12.7657 102.041 12.4463 102.122 11.4195 100.795C10.7567 99.939 9.7955 99.3788 9.28488 99.5507C8.7734 99.7221 9.49645 99.1137 10.8912 98.1968C13.5395 96.4575 13.548 96.1813 10.9559 96.0415C10.0941 95.9942 9.45483 96.5107 9.53654 97.1888C9.61741 97.8665 9.27294 97.6076 8.76901 96.6144C8.26547 95.6205 8.07919 94.3041 8.3543 93.6888C8.62979 93.0728 8.54903 92.1192 8.17491 91.569C7.71765 90.8951 7.41806 91.2418 7.2607 92.6275C6.94904 95.374 6.70967 95.1488 4.37196 89.9153C2.72023 86.2196 2.65707 85.3931 4.00968 85.1874C5.3536 84.9829 5.32913 84.7917 3.87703 84.1291C0.763603 82.7095 -0.700741 73.5439 1.93704 71.9853C3.06909 71.3164 3.11556 71.4105 2.17255 72.4582C1.44708 73.2631 1.42757 73.7075 2.12179 73.6147C3.84576 73.3846 3.67518 71.3044 1.86534 70.49C0.513819 69.8826 0.548322 69.0609 2.08102 65.3168C3.08298 62.8689 3.82309 60.2642 3.7248 59.5299C3.61585 58.7123 3.79976 58.5675 4.19927 59.1565C5.14618 60.5503 7.5922 60.4772 8.2369 59.0354C8.54085 58.3557 8.18472 57.5285 7.44598 57.1971C6.61266 56.8245 6.41531 55.7719 6.92643 54.4262C7.43346 53.0919 8.00217 52.6263 8.40347 53.2182C8.81003 53.8165 9.08969 53.5668 9.14512 52.557C9.19312 51.664 9.69897 50.872 10.2687 50.7958C10.8383 50.7196 11.5603 50.0843 11.8734 49.3842C12.1865 48.6841 11.9552 48.1764 11.3595 48.2562C9.43698 48.5136 10.7276 47.2374 14.4279 45.2223C16.4131 44.1416 17.3439 43.3421 16.495 43.4461C15.216 43.6033 15.2378 43.4908 16.6222 42.7881C17.5404 42.322 18.3314 41.2156 18.3793 40.3297Z" fill="black"/>
<path d="M243.276 175.153C243.322 172.741 244.483 170.054 245.891 169.097C246.775 168.496 247.221 168.669 247.792 169.83C248.203 170.664 248.116 171.634 247.598 171.986C247.081 172.338 247.165 172.558 247.785 172.475C249.255 172.278 250.147 175.486 248.864 176.358C248.169 176.829 247.619 176.521 247.009 175.319C246.521 174.356 246.206 174.143 246.288 174.831C246.369 175.504 245.716 176.254 244.838 176.5C243.602 176.845 243.249 176.54 243.276 175.153Z" fill="black"/>
<path d="M236.036 170.617C234.1 169.751 235.418 168.471 237.605 169.092C241 170.057 242.541 170.869 241.859 171.331C241.503 171.573 241.492 172.185 241.835 172.69C242.869 174.213 241.422 176.374 240.194 175.141C239.593 174.54 239.163 174.5 239.237 175.054C239.311 175.607 238.176 176.469 236.715 176.969C233.846 177.95 232.461 177.75 233.047 176.44C233.249 175.988 232.638 175.563 231.687 175.495C230.104 175.383 230.157 175.283 232.328 174.287C233.63 173.689 234.626 172.682 234.541 172.049C234.457 171.415 234.792 171.078 235.286 171.299C235.78 171.52 236.014 172.083 235.805 172.55C235.596 173.016 236.045 173.675 236.802 174.014C237.93 174.518 238.091 174.314 237.692 172.884C237.424 171.924 236.678 170.904 236.036 170.617Z" fill="black"/>
<path d="M224.389 170.255C224.932 170.644 226.447 170.596 227.755 170.149C230.563 169.188 232.62 169.894 232.517 171.782C232.46 172.86 232.173 172.78 231.09 171.381C230.084 170.082 229.778 169.947 229.899 170.859C229.99 171.534 229.883 173.361 229.661 174.919L229.258 177.753L227.947 175.392C227.225 174.094 226.937 172.823 227.306 172.568C228.682 171.619 227.01 171.746 224.579 172.775C222.024 173.855 221.475 175.319 223.323 176.117C224.016 176.416 224.082 176.168 223.529 175.333C222.869 174.337 222.996 174.124 224.21 174.189C225.806 174.276 226.179 176.98 224.624 177.188C223.346 177.359 219.427 175.132 220.147 174.643C220.467 174.426 219.715 174.009 218.478 173.718L216.228 173.187L217.369 175.698C217.997 177.079 218.123 177.727 217.651 177.138C217.179 176.549 215.821 176.385 214.633 176.772C213.445 177.159 212.166 177.265 211.791 177.007C209.874 175.692 207.988 175.551 207.48 176.686C206.669 178.5 204.94 176.959 205.187 174.642C205.369 172.933 205.266 172.949 204.347 174.775C203.428 176.601 200.103 179.646 200.779 178.042C200.924 177.701 199.925 177.357 198.56 177.279C196.067 177.136 195.593 175.634 198.033 175.61C198.737 175.603 198.357 175.426 197.19 175.217C195.696 174.949 195.239 174.459 195.642 173.557C195.957 172.853 196.702 172.212 197.297 172.132C197.893 172.052 198.19 172.414 197.956 172.936C197.723 173.458 198.015 173.82 198.604 173.741C200.011 173.552 198.969 170.349 197.536 170.459C196.957 170.503 197.092 170.275 197.837 169.953C198.583 169.631 200.197 169.603 201.426 169.891C202.654 170.179 203.96 170.086 204.328 169.685C205.293 168.633 208.335 170.209 207.798 171.482C207.549 172.071 208.466 171.794 209.837 170.866C211.207 169.938 212.78 169.382 213.334 169.629C213.887 169.877 215.122 170.122 216.076 170.173C217.127 170.231 217.454 170.511 216.906 170.883C216.407 171.222 216.537 171.741 217.197 172.036C217.856 172.331 218.338 172.142 218.267 171.616C218.035 169.885 220.124 168.606 221.285 169.77C221.902 170.388 221.955 171.344 221.403 171.895C220.834 172.463 220.874 172.831 221.499 172.748C222.104 172.666 222.779 171.914 223 171.075C223.222 170.226 223.839 169.863 224.389 170.255Z" fill="black"/>
<path d="M185.317 169.32C186.842 169.042 189.416 168.92 191.038 169.05C195.183 169.381 195.409 169.524 194.608 171.314C194.217 172.19 194.278 173.682 194.743 174.628C195.505 176.173 195.373 176.335 193.463 176.208C192.292 176.131 191.4 176.559 191.48 177.16C191.561 177.76 191.009 177.975 190.253 177.637C189.498 177.3 189.2 176.806 189.591 176.541C189.981 176.276 189.586 175.739 188.712 175.348C187.74 174.914 186.568 175.344 185.693 176.457C184.375 178.134 183.985 178.103 180.719 176.071C177.935 174.338 177.058 174.128 176.627 175.092C175.919 176.675 172.346 176.93 170.918 175.497C170.311 174.888 169.651 174.75 169.454 175.193C169.045 176.107 162.923 175.412 159.908 174.109C158.806 173.633 157.206 173.624 156.353 174.09C155.501 174.555 153.764 174.7 152.492 174.411C151.221 174.123 149.257 173.763 148.129 173.611C146.999 173.459 146.014 172.87 145.938 172.302C145.862 171.734 144.758 171.024 143.486 170.724C142.185 170.417 141.238 170.674 141.323 171.308C141.417 172.017 140.881 171.962 139.884 171.162C138.919 170.387 138.197 170.295 138.048 170.926C137.729 172.282 123.121 169.119 118.52 166.698C116.593 165.684 114.888 165.143 114.729 165.497C114.572 165.85 113.465 165.702 112.271 165.168C110.903 164.557 110.468 163.946 111.097 163.519C111.645 163.146 110.797 163.05 109.21 163.306C106.882 163.68 106.174 163.457 105.529 162.15C104.971 161.016 104.295 160.652 103.277 160.936C101.134 161.534 100.212 161.134 99.9742 159.502C99.8085 158.361 99.6548 158.281 99.2618 159.132C98.8764 159.969 96.4542 159.119 88.6899 155.423C83.1505 152.786 78.7029 150.438 78.8055 150.204C79.0029 149.756 72.9002 147.11 67.7818 145.426C65.7485 144.756 64.7973 143.978 64.8881 143.055C64.9787 142.135 65.3828 142.04 66.1082 142.768C66.7233 143.385 68.1693 143.426 69.4503 142.861C70.6916 142.314 72.1076 142.267 72.5952 142.757C73.1115 143.274 73.512 143.105 73.5528 142.353C73.6702 140.178 69.2381 139.712 68.2868 141.801C67.66 143.175 67.412 143.243 67.2438 142.084C67.0659 140.856 66.6469 140.816 65.0711 141.876C62.7658 143.427 61.3722 143.146 63.0537 141.469C64.0095 140.516 63.8026 140.234 61.9267 139.933C60.6622 139.731 59.1264 139.346 58.5128 139.079C57.8623 138.796 57.4536 139.15 57.5334 139.928C57.6083 140.662 57.1091 139.98 56.4235 138.414C55.7371 136.847 54.7646 135.381 54.2614 135.156C53.7573 134.93 53.3821 134.075 53.4261 133.255C53.4769 132.33 53.9996 131.984 54.8032 132.343C55.5168 132.662 56.0347 132.436 55.9549 131.84C55.7455 130.277 58.8557 131.881 59.5477 133.693C59.9938 134.861 60.3813 135.046 61.2031 134.488C61.9198 134.001 63.1598 134.405 64.9433 135.706C68.0724 137.99 72.8841 140.032 74.0704 139.579C74.5276 139.404 74.9404 141.004 74.9858 143.134C75.0324 145.263 75.3143 146.493 75.6135 145.867C75.9303 145.205 76.5983 145.17 77.2117 145.787C77.9571 146.534 78.5172 146.283 79.1224 144.929C79.8013 143.411 80.5233 143.211 82.6108 143.96C85.2295 144.899 85.5145 147.192 83.0546 147.522C82.4589 147.602 81.8125 148.022 81.6182 148.457C81.4239 148.891 82.3209 148.935 83.6118 148.553C84.9027 148.171 86.1351 147.467 86.3503 146.987C86.8043 145.977 96.1369 149.921 97.2091 151.576C97.5997 152.181 98.2804 152.43 98.7203 152.132C99.1605 151.833 101.401 152.543 103.7 153.711C105.999 154.879 108.264 155.573 108.734 155.253C109.211 154.929 110.013 155.636 110.549 156.853C111.43 158.853 111.562 158.917 112.138 157.63C112.504 156.811 113.445 156.529 114.393 156.953C115.289 157.353 116.802 157.724 117.757 157.775C118.941 157.839 119.156 158.097 118.435 158.587C117.853 158.983 117.782 159.487 118.276 159.708C118.77 159.929 119.335 159.751 119.531 159.314C119.727 158.876 120.536 158.858 121.33 159.275C122.125 159.691 123.825 160.141 125.11 160.275C127.012 160.474 127.238 160.725 126.33 161.632C125.716 162.243 125.52 163.196 125.896 163.748C126.309 164.357 126.512 164.26 126.41 163.503C126.165 161.672 127.749 162.664 128.316 164.695C128.583 165.648 129.256 166.367 129.814 166.292C130.372 166.217 130.297 164.987 129.648 163.559L128.468 160.961L130.115 162.4C131.023 163.193 131.925 163.477 132.124 163.032C132.322 162.589 133.338 162.367 134.38 162.54C135.423 162.714 136.121 163.202 135.932 163.625C135.743 164.048 136.184 164.66 136.911 164.986C137.638 165.311 138.169 165.09 138.089 164.494C138.009 163.898 138.349 163.592 138.843 163.813C140.342 164.483 140.467 164.506 144.451 164.831C146.572 165.003 148.417 165.435 148.552 165.79C148.688 166.145 149.946 166.215 151.348 165.945C154.208 165.393 155.776 165.775 154.422 166.695C153.911 167.043 154.187 167.338 155.072 167.386C155.989 167.435 156.428 167.946 156.154 168.644C155.9 169.291 156.423 169.115 157.314 168.254C158.397 167.208 159.648 167.007 161.084 167.649C162.265 168.177 163.08 168.951 162.894 169.367C162.708 169.784 162.994 170.565 163.53 171.103C164.214 171.79 164.595 171.536 164.808 170.256C165.012 169.028 165.546 168.626 166.442 169.026C167.172 169.353 168.308 169.239 168.965 168.771C170.664 167.562 177.173 168.437 179.63 170.204C180.772 171.026 181.324 171.278 180.853 170.763C180.384 170.249 180.17 169.445 180.379 168.979C180.587 168.512 181.16 168.513 181.651 168.979C182.143 169.445 183.792 169.599 185.317 169.32Z" fill="black"/>
<path d="M14.6744 101.416C14.9818 100.854 15.5466 99.8457 15.9301 99.1772C16.3136 98.5086 16.871 98.0705 17.1697 98.2041C17.6746 98.4298 22.4518 103.719 25.0675 106.948C25.6938 107.722 26.7367 108.592 27.3834 108.881C28.0308 109.17 29.9811 110.982 31.7175 112.908C33.4551 114.834 35.3023 116.352 35.8232 116.283C36.3453 116.213 36.9886 116.935 37.2549 117.889C37.5212 118.842 38.5814 119.998 39.6116 120.459C40.9829 121.072 41.248 121.777 40.601 123.089C40.116 124.076 40.2037 125.335 40.7968 125.887C41.6861 126.718 41.7893 126.583 41.3843 125.116C40.9844 123.669 41.22 123.247 42.6533 122.847C43.6203 122.577 44.2501 122.719 44.0517 123.163C43.8528 123.608 45.8386 125.037 48.4631 126.341C53.1137 128.65 54.8999 131.036 52.2693 131.422C51.2732 131.568 51.2144 131.729 52.0194 132.101C52.6002 132.369 52.8058 133.189 52.4776 133.923C51.5362 136.029 49.0812 133.651 49.7582 131.29C50.2399 129.609 50.0386 129.303 48.697 129.678C46.3025 130.346 46.1797 131.27 48.1277 133.973C49.0789 135.291 49.2127 135.759 48.4261 135.014C47.6395 134.268 46.2241 133.261 45.2795 132.778C44.3357 132.294 43.1938 130.932 42.7425 129.75C41.7647 127.189 39.9108 125.99 40.5675 128.343C40.9115 129.575 40.5269 129.583 38.638 128.383C37.3399 127.558 36.4359 126.531 36.6283 126.101C36.8207 125.671 35.9747 125.39 34.7473 125.478C33.1804 125.588 32.813 125.435 33.5112 124.96C34.0917 124.566 33.8722 123.984 32.9856 123.565C31.8714 123.037 32.2649 122.783 34.4577 122.616C36.1042 122.491 37.3313 122.076 37.1863 121.695C37.04 121.314 36.1376 121.221 35.18 121.488C33.7862 121.877 33.3121 121.641 32.8025 120.306C32.4512 119.388 32.5993 118.164 33.1302 117.585C33.9004 116.746 33.5087 116.627 31.2058 116.997L28.3156 117.462L30.1813 115.59C31.8177 113.948 31.8279 113.78 30.2651 114.216C29.2845 114.489 28.2528 115.228 27.972 115.856C27.6738 116.523 27.0225 116.558 26.4066 115.941C25.7298 115.261 25.1261 115.388 24.7201 116.296C24.3725 117.074 23.8075 117.297 23.4641 116.792C23.121 116.286 23.1801 115.641 23.5969 115.358C24.0137 115.075 23.5485 114.71 22.564 114.546C21.58 114.383 20.7028 113.719 20.6166 113.072C20.5295 112.424 19.7181 111.563 18.8118 111.158C17.9055 110.752 17.3354 110.039 17.5441 109.572C17.7528 109.106 17.0692 108.328 16.0263 107.843C13.6617 106.746 11.4596 102.976 13.0011 102.665C13.6137 102.54 14.3667 101.979 14.6744 101.416Z" fill="black"/>
<path d="M76.839 143.487C75.6287 143.944 75.5756 143.803 76.5762 142.799C77.2695 142.105 77.9544 141.846 78.0989 142.224C78.2438 142.602 77.6771 143.17 76.839 143.487Z" fill="black"/>
<path d="M60.9011 141.795C60.4934 141.95 59.7474 141.653 59.2452 141.134C58.6891 140.561 58.9802 140.45 59.987 140.851C60.8977 141.215 61.3088 141.639 60.9011 141.795Z" fill="black"/>
</svg>
