<svg width="60" height="60" viewBox="0 0 60 60" fill="none" xmlns="http://www.w3.org/2000/svg">
<rect opacity="0.1" width="60" height="60" rx="5" fill="white"/>
<path d="M30 51C31.7784 51 33.4379 50.6417 34.6899 50.0157C35.8819 49.4197 37 48.4113 37 47C37 45.5887 35.8819 44.5803 34.6899 43.9843C33.4379 43.3583 31.7784 43 30 43C28.2216 43 26.5621 43.3583 25.3101 43.9843C24.1181 44.5803 23 45.5887 23 47C23 48.4113 24.1181 49.4197 25.3101 50.0157C26.5621 50.6417 28.2216 51 30 51Z" fill="#1A1932" fill-opacity="0.75" stroke="url(#paint0_linear_2317_106090)" stroke-width="2" stroke-linecap="round"/>
<path d="M30 47C33.9876 47 37.6471 46.194 40.3467 44.8442C42.9865 43.5243 45 41.5158 45 39C45 36.4842 42.9865 34.4757 40.3467 33.1558C37.6471 31.806 33.9876 31 30 31C26.0124 31 22.3529 31.806 19.6533 33.1558C17.0135 34.4757 15 36.4842 15 39C15 41.5158 17.0135 43.5243 19.6533 44.8442C22.3529 46.194 26.0124 47 30 47Z" fill="#1A1932" fill-opacity="0.75" stroke="url(#paint1_linear_2317_106090)" stroke-width="2" stroke-linecap="round"/>
<path d="M30 40C35.9206 40 41.3301 38.8022 45.2965 36.819C49.203 34.8658 52 31.9823 52 28.5C52 25.0177 49.203 22.1342 45.2965 20.181C41.3301 18.1978 35.9206 17 30 17C24.0794 17 18.6699 18.1978 14.7035 20.181C10.797 22.1342 8 25.0177 8 28.5C8 31.9823 10.797 34.8658 14.7035 36.819C18.6699 38.8022 24.0794 40 30 40Z" fill="#1A1932" fill-opacity="0.75" stroke="url(#paint2_linear_2317_106090)" stroke-width="2" stroke-linecap="round"/>
<path d="M30 27C33.9876 27 37.6471 26.194 40.3467 24.8442C42.9865 23.5243 45 21.5158 45 19C45 16.4842 42.9865 14.4757 40.3467 13.1558C37.6471 11.806 33.9876 11 30 11C26.0124 11 22.3529 11.806 19.6533 13.1558C17.0135 14.4757 15 16.4842 15 19C15 21.5158 17.0135 23.5243 19.6533 24.8442C22.3529 26.194 26.0124 27 30 27Z" fill="#1A1932" fill-opacity="0.75" stroke="url(#paint3_linear_2317_106090)" stroke-width="2" stroke-linecap="round"/>
<defs>
<linearGradient id="paint0_linear_2317_106090" x1="30" y1="44" x2="30" y2="50" gradientUnits="userSpaceOnUse">
<stop stop-color="#02FFB3"/>
<stop offset="1" stop-color="#01B3DA"/>
</linearGradient>
<linearGradient id="paint1_linear_2317_106090" x1="30" y1="32" x2="30" y2="46" gradientUnits="userSpaceOnUse">
<stop stop-color="#02FFB3"/>
<stop offset="1" stop-color="#01B3DA"/>
</linearGradient>
<linearGradient id="paint2_linear_2317_106090" x1="30" y1="18" x2="30" y2="39" gradientUnits="userSpaceOnUse">
<stop stop-color="#02FFB3"/>
<stop offset="1" stop-color="#01B3DA"/>
</linearGradient>
<linearGradient id="paint3_linear_2317_106090" x1="30" y1="12" x2="30" y2="26" gradientUnits="userSpaceOnUse">
<stop stop-color="#02FFB3"/>
<stop offset="1" stop-color="#01B3DA"/>
</linearGradient>
</defs>
</svg>
