<svg width="60" height="60" viewBox="0 0 60 60" fill="none" xmlns="http://www.w3.org/2000/svg">
<rect width="60" height="60" rx="5" fill="white" fill-opacity="0.1"/>
<path d="M19.57 41.0971L17.6742 42L19.57 42.9029L29.57 47.665L30 47.8698L30.43 47.665L40.43 42.9029L42.3258 42L40.43 41.0971L30.43 36.335L30 36.1302L29.57 36.335L19.57 41.0971Z" fill="#1A1932" fill-opacity="0.75" stroke="url(#paint0_linear_1_42210)" stroke-width="2" stroke-linecap="round"/>
<path d="M11.57 29.0971L9.67417 30L11.57 30.9029L29.57 39.4748L30 39.6795L30.43 39.4748L48.43 30.9029L50.3258 30L48.43 29.0971L30.43 20.5252L30 20.3205L29.57 20.5252L11.57 29.0971Z" fill="#1A1932" fill-opacity="0.75" stroke="url(#paint1_linear_1_42210)" stroke-width="2" stroke-linecap="round"/>
<path d="M19.57 18.0971L17.6742 19L19.57 19.9029L29.57 24.665L30 24.8698L30.43 24.665L40.43 19.9029L42.3258 19L40.43 18.0971L30.43 13.335L30 13.1302L29.57 13.335L19.57 18.0971Z" fill="#1A1932" fill-opacity="0.75" stroke="url(#paint2_linear_1_42210)" stroke-width="2" stroke-linecap="round"/>
<defs>
<linearGradient id="paint0_linear_1_42210" x1="25" y1="37" x2="35" y2="47" gradientUnits="userSpaceOnUse">
<stop stop-color="#02FFB3"/>
<stop offset="1" stop-color="#01B3DA"/>
</linearGradient>
<linearGradient id="paint1_linear_1_42210" x1="21" y1="21" x2="39" y2="39" gradientUnits="userSpaceOnUse">
<stop stop-color="#02FFB3"/>
<stop offset="1" stop-color="#01B3DA"/>
</linearGradient>
<linearGradient id="paint2_linear_1_42210" x1="25" y1="14" x2="35" y2="24" gradientUnits="userSpaceOnUse">
<stop stop-color="#02FFB3"/>
<stop offset="1" stop-color="#01B3DA"/>
</linearGradient>
</defs>
</svg>
