<svg width="352" height="253" viewBox="0 0 352 253" fill="none" xmlns="http://www.w3.org/2000/svg">
<path d="M102.025 12.3008C99.2647 15.7438 97.3779 20.6234 97.2611 27.281C97.1424 34.0481 98.6553 38.1876 100.731 40.6612C102.777 43.099 105.669 44.2732 109.108 44.4921C112.585 44.7135 116.473 43.9376 120.134 42.6064C123.788 41.2776 127.042 39.4586 129.229 37.7619C130.32 36.9155 131.89 37.1138 132.737 38.2046C133.583 39.2955 133.385 40.866 132.294 41.7123C129.648 43.7656 125.923 45.8216 121.842 47.3053C117.769 48.7866 113.168 49.7607 108.79 49.482C104.375 49.201 100.048 47.6252 96.9012 43.8755C93.7844 40.1616 92.1306 34.6761 92.2619 27.1933C92.3951 19.6009 94.5707 13.6055 98.1233 9.17353C101.669 4.75056 106.457 2.04585 111.546 0.807989C121.59 -1.63536 133.225 1.5563 139.665 9.11596C141.438 11.1976 143.932 14.4722 146.89 18.3558L146.892 18.3577L146.893 18.3588L146.894 18.36C148.801 20.8636 150.901 23.6207 153.124 26.4738C158.873 33.8506 165.58 42.0516 172.408 48.9108C179.308 55.8418 186.047 61.1043 191.834 62.9933C194.665 63.9173 197.081 63.9725 199.142 63.2099C201.19 62.4519 203.236 60.7566 205.089 57.5008C205.713 56.4043 207.055 55.9444 208.221 56.4283C209.386 56.9122 210.008 58.1882 209.671 59.404C207.063 68.8263 202.628 81.8946 196.966 92.5365C194.14 97.8475 190.937 102.691 187.404 106.174C183.893 109.635 179.739 112.052 175.089 111.731C171.09 111.455 167.935 110.332 165.543 108.505C163.146 106.672 161.7 104.272 160.886 101.757C159.298 96.8524 160.047 91.3067 160.817 87.7133C161.106 86.3632 162.435 85.5033 163.785 85.7926C165.135 86.0819 165.995 87.4109 165.706 88.7609C164.976 92.1675 164.479 96.6217 165.643 100.217C166.204 101.953 167.134 103.427 168.58 104.532C170.031 105.642 172.187 106.519 175.434 106.743C178.031 106.922 180.854 105.61 183.894 102.613C186.913 99.6376 189.835 95.2935 192.552 90.1878C196.304 83.1367 199.527 74.8937 202.005 67.4217C201.636 67.5982 201.26 67.7574 200.877 67.8991C197.465 69.1618 193.843 68.9084 190.283 67.7465C183.289 65.4636 175.84 59.4449 168.865 52.4384C161.818 45.3601 154.963 36.9674 149.18 29.5473C146.833 26.5357 144.683 23.7116 142.766 21.1943L142.765 21.1928C139.899 17.4289 137.556 14.3511 135.858 12.3583C130.798 6.41796 121.183 3.60966 112.727 5.66633C108.566 6.67847 104.792 8.84876 102.025 12.3008Z" fill="white"/>
<path fill-rule="evenodd" clip-rule="evenodd" d="M311.093 249.237H351.626V103.081H311.093V164.118H310.617C304.417 138.606 292.258 131.692 276.283 131.692C250.056 131.692 236.942 154.104 236.942 193.207C236.942 230.64 249.817 252.814 275.091 252.814C291.542 252.814 304.179 245.899 310.378 220.387H311.093V249.237ZM294.403 216.334C281.767 216.334 276.998 207.512 276.998 192.968C276.998 177.47 281.767 168.172 294.403 168.172C305.133 168.172 311.093 176.755 311.093 191.538V193.922C311.093 208.228 305.133 216.334 294.403 216.334Z" fill="white"/>
<path d="M113.969 249.237H0V106.18H113.969V146.713H42.9171V161.019H109.2V193.683H42.9171V208.704H113.969V249.237Z" fill="white"/>
<path d="M177.518 168.172C168.457 168.172 163.45 173.655 163.45 182.954V249.237H122.917V135.268H163.45V167.695H163.689C169.649 139.322 182.286 131.692 199.453 131.692C220.912 131.692 231.641 145.998 231.641 170.794V249.237H191.108V182.954C191.108 173.655 186.578 168.172 177.518 168.172Z" fill="white"/>
<path d="M236.845 55.6682C238.963 55.1599 240.516 55.299 241.66 55.7007C242.804 56.1026 243.723 56.8316 244.468 57.7998C246.021 59.8168 246.69 62.7188 246.763 64.8234C246.811 66.2033 247.968 67.2833 249.348 67.2358C250.728 67.1882 251.808 66.031 251.76 64.6511C251.666 61.9224 250.835 57.8744 248.43 54.7497C247.196 53.1471 245.521 51.7573 243.316 50.9832C241.111 50.2089 238.56 50.1146 235.678 50.8063C233.875 51.239 232.191 52.3216 230.668 53.651C229.121 55.0008 227.582 56.7445 226.075 58.7308C223.06 62.7037 220.001 67.8771 217.108 73.4175C211.314 84.5126 206.022 97.3937 202.914 105.877C202.439 107.174 203.105 108.61 204.402 109.085C205.698 109.56 207.134 108.894 207.609 107.597C209.561 102.268 212.389 95.1803 215.651 87.9294C219.12 85.2163 221.261 84.541 222.431 84.6078C223.241 84.6541 224.119 85.1112 224.94 87.1654C225.172 87.7438 225.22 88.7503 224.955 90.4731C224.829 91.2879 224.652 92.1606 224.453 93.1209L224.397 93.3923C224.217 94.2571 224.024 95.1855 223.861 96.1194C223.168 100.09 222.754 105.428 227.147 109.145C228.887 110.618 230.817 111.283 232.78 111.249C234.68 111.216 236.417 110.533 237.877 109.653C240.757 107.917 243.084 105.102 244.371 103.079C245.112 101.914 244.769 100.369 243.604 99.6278C242.439 98.8865 240.894 99.2299 240.152 100.395C239.106 102.039 237.283 104.173 235.296 105.371C234.323 105.957 233.447 106.237 232.693 106.25C232.002 106.262 231.237 106.056 230.376 105.328C228.269 103.546 228.105 100.884 228.787 96.9794C228.935 96.1289 229.112 95.2793 229.294 94.4024L229.349 94.1361C229.546 93.1843 229.749 92.1937 229.896 91.2351C230.178 89.411 230.351 87.2301 229.583 85.3084C228.404 82.3626 226.282 79.8197 222.717 79.616C221.628 79.5538 220.499 79.723 219.331 80.0965C220.057 78.6194 220.794 77.1599 221.54 75.732C224.376 70.3016 227.286 65.4062 230.058 61.7531C231.444 59.9264 232.752 58.4677 233.955 57.4184C235.181 56.3487 236.148 55.8355 236.845 55.6682Z" fill="white"/>
<path fill-rule="evenodd" clip-rule="evenodd" d="M268.484 91.6085C266.854 94.4439 263.533 98.2278 256.715 104.338C257.448 105.033 258.229 105.62 259.014 106.078C260.077 106.698 261.822 106.508 264.363 104.827C266.737 103.257 268.969 100.9 270.276 99.2087C271.121 98.1161 272.691 97.9149 273.783 98.7591C274.876 99.6033 275.077 101.173 274.233 102.266C272.707 104.241 270.089 107.034 267.121 108.997C264.321 110.85 260.232 112.577 256.495 110.397C252.993 108.354 249.692 104.618 248.243 99.983C246.759 95.2343 247.263 89.6548 251.242 84.2543C255.16 78.937 259.786 77.1953 263.755 77.9009C265.657 78.239 267.309 79.1359 268.478 80.3393C269.605 81.5003 270.499 83.2034 270.229 85.0909C270.194 85.3361 270.173 85.6142 270.149 85.9252C270.049 87.2404 269.903 89.1414 268.484 91.6085ZM255.267 87.2203C258.349 83.0376 261.224 82.5293 262.88 82.8237C263.79 82.9856 264.481 83.4012 264.891 83.8228C265.219 84.1608 265.265 84.377 265.273 84.4163C265.274 84.4184 265.274 84.4199 265.274 84.421C265.192 85.0031 265.153 85.4706 265.119 85.8798C265.025 87.0077 264.968 87.6937 264.15 89.1161C262.967 91.1735 260.25 94.4263 253.735 100.294C253.453 99.7168 253.21 99.1145 253.016 98.4916C252 95.2404 252.246 91.3199 255.267 87.2203Z" fill="white"/>
</svg>
