<svg width="149" height="84" viewBox="0 0 149 84" fill="none" xmlns="http://www.w3.org/2000/svg">
<path fill-rule="evenodd" clip-rule="evenodd" d="M30.159 0.808777C27.6669 1.76504 26.8579 2.22338 25.786 3.28668C24.784 4.28051 24.2492 5.32321 24.1861 6.40591L24.1402 7.19144L23.0637 8.20129C21.7821 9.40328 20.1533 11.1892 18.855 12.8164C18.3363 13.4662 17.8874 13.9733 17.8573 13.9432C17.7051 13.7902 18.0488 13.0894 18.5808 12.4677C20.3521 10.3979 21.3429 7.57881 21.524 4.09456C21.5942 2.74217 21.435 0.749533 21.2413 0.554968C21.0833 0.396355 19.7855 1.83532 18.9344 3.11312C17.8939 4.67489 17.0996 6.42328 16.8047 7.80058C16.3733 9.81583 16.5894 11.9267 17.32 12.8331C17.6036 13.1848 17.6236 13.2954 17.5216 13.9484C17.4356 14.499 17.2194 14.9558 16.6234 15.8471C15.3744 17.7143 14.7549 18.7681 13.6378 20.9254C13.0626 22.0362 12.5907 22.8121 12.5891 22.6496C12.5873 22.487 12.7944 21.9371 13.049 21.4275C14.1266 19.2715 14.5557 17.0625 14.4228 14.3541C14.3326 12.5119 14.0236 11.1277 13.3924 9.7372L12.9704 8.8072L12.6911 9.14381C12.0582 9.90659 11.0774 12.6842 10.7161 14.7369C10.0898 18.2953 10.3997 20.7129 11.6575 22.0811C12.1876 22.6575 12.1986 22.6893 12.1419 23.4813C12.1071 23.9677 11.8942 24.7817 11.6089 25.5182C10.8768 27.4093 9.89894 30.7561 9.56772 32.505C9.46742 33.0343 9.46393 33.0371 9.36014 32.6693C9.30208 32.4634 9.31106 32.0999 9.37999 31.8614C9.67782 30.8311 10.0381 28.2705 10.0381 27.1839C10.0381 25.212 9.55163 23.1685 8.67638 21.464C8.13919 20.4176 6.94505 18.7906 6.81752 18.9313C6.6849 19.0776 6.34121 20.201 6.12505 21.1947C5.85082 22.4557 5.8881 27.1134 6.18324 28.4461C6.59573 30.3089 7.16323 31.2976 8.28455 32.1065C8.86841 32.5276 8.9262 32.6231 9.08605 33.4308C9.18085 33.9095 9.2251 34.4122 9.18434 34.5476C9.08605 34.8749 8.72653 38.2679 8.63762 39.7086C8.59874 40.3381 8.52994 41.448 8.48475 42.1751C8.43956 42.9022 8.36541 43.4599 8.32008 43.4142C8.27476 43.3687 8.22608 42.4406 8.212 41.3517C8.19282 39.8676 8.11706 39.0931 7.90921 38.2581C7.20694 35.436 5.69553 32.9487 3.61783 31.1956C3.2032 30.8458 2.79716 30.5579 2.71563 30.556C2.4886 30.5509 2.38521 32.215 2.52776 33.5822C2.99938 38.1067 4.54713 41.7551 6.46431 42.8618C6.77046 43.0384 7.22169 43.225 7.46709 43.2765C8.08286 43.4056 8.38123 44.1389 8.48851 45.7862C8.65398 48.3271 8.71017 48.9629 8.90515 50.4979C9.01457 51.3592 9.22242 52.6013 9.36711 53.2581C9.6691 54.6296 9.68372 54.7596 9.5165 54.5803C9.45092 54.5101 9.27029 53.9012 9.11501 53.2276C8.41502 50.1882 6.79298 47.6666 4.33901 45.803C3.46027 45.1357 1.55663 44.152 1.14401 44.152C0.906389 44.152 0.892443 44.2194 0.976656 44.9667C1.15688 46.5656 2.34217 49.4212 3.60402 51.2962C4.49188 52.6156 5.70412 53.8185 6.61866 54.2878C7.26474 54.6194 7.59797 54.7027 8.31016 54.7112L9.19708 54.7217L9.59588 55.3276C9.81513 55.6609 10.1936 56.5395 10.4367 57.28C11.212 59.6417 12.1512 61.9356 13.1875 63.9989C13.7418 65.1023 14.1951 66.0338 14.1951 66.0688C14.1951 66.298 13.72 65.6511 13.2617 64.798C11.9569 62.369 10.2366 60.6828 7.99382 59.6347C6.77421 59.0648 5.7135 58.8284 4.37535 58.8284H3.19409L3.27361 59.1987C3.44109 59.9785 4.42711 61.7685 5.26843 62.82C6.74404 64.6647 8.21656 65.8487 9.70812 66.3898C10.7611 66.7718 12.3053 66.8037 13.0687 66.4594L13.6138 66.2134L14.2063 66.5813C14.6492 66.8562 15.0453 67.3257 15.777 68.4429C16.9447 70.2259 17.9483 71.5005 19.5773 73.2693C20.2421 73.9913 20.7186 74.5821 20.6361 74.5821C20.5535 74.5821 19.9593 74.081 19.3155 73.4685C18.6718 72.8559 17.8683 72.1919 17.53 71.9927C15.7528 70.9469 13.0742 70.5524 10.8365 71.0066C9.58502 71.2607 8.27436 71.7397 8.19966 71.9704C8.11719 72.225 9.30677 73.4291 10.3695 74.1667C12.5341 75.6692 14.5989 76.3899 16.743 76.391C18.3035 76.3919 18.9416 76.1823 19.8138 75.3824C20.2191 75.0108 20.3143 74.9823 20.8712 75.0662C21.3541 75.1389 21.6834 75.3279 22.4321 75.9622C23.771 77.0968 26.2427 78.715 27.8375 79.5012C29.0835 80.1154 29.446 80.3719 29.0681 80.3719C28.9879 80.3719 28.3695 80.0993 27.6936 79.7661C25.9249 78.894 25.0565 78.7072 23.1797 78.7943C22.0125 78.8484 21.4021 78.9484 20.6689 79.2056C19.3728 79.6604 18.055 80.3698 17.086 81.1342L16.2893 81.7628L16.7921 82.1991C17.688 82.9768 19.9318 83.6687 22.0532 83.8217C25.0472 84.0375 27.5244 83.1366 28.5667 81.4529C29.1582 80.4976 29.6156 80.4589 31.8472 81.1752C33.4813 81.6998 35.8485 82.257 36.4428 82.257C36.5971 82.257 36.7235 82.1777 36.7235 82.0807C36.7235 81.6543 36.3457 81.4445 35.1143 81.1871C33.4611 80.8416 32.2513 80.4846 30.7366 79.896C29.5502 79.4349 29.5069 79.4031 29.4081 78.9195C29.352 78.6445 29.32 77.8081 29.3371 77.0607C29.4197 73.4542 27.6097 69.9814 24.6313 68.0318C23.616 67.3672 23.4147 67.3164 23.5083 67.7488C23.5444 67.9154 23.6696 68.688 23.7867 69.4655C24.4855 74.1084 25.0492 75.7456 26.4366 77.161C27.178 77.9174 28.126 78.4869 28.6438 78.4869C28.9065 78.4869 29.1995 78.9502 29.039 79.1115C28.9545 79.1962 27.0607 78.2399 25.8947 77.5239C24.6888 76.7832 22.7716 75.3363 21.7381 74.3869L20.9 73.617L20.9017 72.7867C20.9028 72.2551 21.0307 71.5691 21.2575 70.8793C21.5767 69.9085 21.611 69.6092 21.6047 67.8498C21.5986 66.1768 21.5466 65.7049 21.2407 64.5517C20.8413 63.0453 20.1162 61.491 19.2342 60.2499C18.5508 59.2881 18.2187 58.9616 18.2169 59.2496C18.2163 59.3511 18.0663 60.6462 17.8836 62.1273C17.3727 66.2702 17.4765 68.272 18.2897 69.9531C18.6879 70.7765 19.5736 71.8202 20.1108 72.0991C20.4183 72.2588 20.4966 72.3891 20.4925 72.7342C20.4871 73.1676 20.4854 73.1666 19.4276 72.058C18.1088 70.6757 16.5361 68.5832 15.4217 66.7278C14.583 65.3312 14.5713 65.2984 14.6633 64.5935C14.7279 64.0977 14.9202 63.6227 15.2886 63.048C16.4024 61.3105 16.9535 59.3858 17.0608 56.8578C17.125 55.3447 16.8704 53.6742 16.3223 52.0149C15.6666 50.0293 15.7263 50.0057 14.6857 52.6603C13.0758 56.7663 12.686 58.5647 12.9716 60.5662C13.1422 61.7605 13.6063 62.9877 14.0783 63.4923C14.2655 63.6923 14.3347 63.9197 14.3038 64.2333C14.2614 64.6628 14.2273 64.6234 13.6263 63.448C12.4981 61.2419 11.4114 58.3544 10.6428 55.5215L10.3067 54.283L10.6527 53.4975C10.843 53.0654 11.1296 52.6216 11.2895 52.5112C12.9491 51.3657 14.4637 48.9338 15.1962 46.239C15.567 44.8743 15.6403 40.235 15.2907 40.2514C15.2414 40.2538 14.3964 41.3292 13.4132 42.6414C10.6715 46.3005 9.7564 48.4203 9.9381 50.6917C9.97538 51.1584 10.1375 51.8134 10.2984 52.1471C10.5666 52.7034 10.5745 52.7856 10.392 53.132C10.1563 53.5795 10.1383 53.5432 9.84356 52.0288C9.48123 50.1673 9.09945 46.3095 9.09945 44.5108C9.09945 42.7926 9.102 42.7787 9.51502 42.2011C9.83551 41.7531 10.1042 41.556 10.6884 41.3404C13.0302 40.4764 15.2332 37.4964 16.1251 33.9861C16.3399 33.1411 16.6419 30.8101 16.5487 30.7166C16.519 30.6869 16.2942 30.8443 16.049 31.0665C15.8038 31.2888 15.1506 31.819 14.5974 32.2449C12.0582 34.1999 10.7467 35.6832 10.0023 37.4422C9.62136 38.3421 9.58274 38.5676 9.56491 39.9911C9.54922 41.2518 9.49973 41.6151 9.30824 41.8762C9.07854 42.1893 9.07357 42.1402 9.15055 40.3145C9.24508 38.0755 9.61814 35.166 10.1087 32.8416C10.304 31.9159 10.4737 31.1487 10.4858 31.1366C11.0435 30.5734 11.6186 30.2833 12.1778 30.2833C13.6645 30.2833 15.2002 29.5253 16.7762 28.0133C17.9704 26.8678 18.8246 25.5776 19.4963 23.905C20.0276 22.5821 20.0769 22.2615 19.7267 22.4096C19.5975 22.4641 18.798 22.7759 17.9499 23.1025C14.7563 24.332 13.1318 25.3564 12.2426 26.7008C11.6675 27.5705 11.3791 28.4711 11.3791 29.3971C11.3791 29.9487 11.3237 30.1187 11.0979 30.2603C10.9432 30.3573 10.7853 30.4053 10.7472 30.367C10.5555 30.1744 12.2963 25.0766 13.4541 22.44C14.0608 21.0587 14.1172 20.9803 14.6873 20.7272C15.2555 20.4747 15.3283 20.4722 16.1814 20.6727C18.8181 21.2924 21.9132 19.7455 24.0034 16.7631C24.3623 16.2511 24.6398 15.8164 24.6204 15.7968C24.6009 15.7773 23.6202 15.8146 22.4408 15.8796C20.1956 16.0037 18.6958 16.2991 17.6865 16.8162C16.5174 17.415 15.5228 18.6211 15.3316 19.6714C15.2609 20.0599 15.1566 20.1975 14.8524 20.304C14.6383 20.3789 14.4633 20.3965 14.4633 20.3431C14.4633 19.965 16.979 15.8259 18.2937 14.0409C18.94 13.1633 19.0631 13.0611 19.5203 13.0215C19.848 12.9931 20.2526 13.0856 20.6598 13.2818C23.1244 14.4695 26.3118 13.7548 28.6292 11.4949C29.1962 10.9419 29.6213 10.4504 29.5738 10.4026C29.446 10.2744 26.7626 9.83051 25.5264 9.73316C23.1583 9.54654 21.0049 10.5289 20.2893 12.1221C20.0761 12.597 19.5486 12.9484 19.3494 12.7483C19.2359 12.6343 21.8018 9.73949 23.0679 8.55312C24.1465 7.54259 24.3676 7.3934 24.7872 7.3934C26.4965 7.3934 28.7234 6.18859 30.1751 4.4783C31.0654 3.42927 32.7373 -0.0591553 32.3209 0.000762477C32.2716 0.00789875 31.2987 0.371445 30.159 0.808777Z" fill="#213137"/>
<path d="M61.1921 29.7271C61.1921 28.9565 61.2035 27.948 61.1808 27.2001H61.2035C61.4867 28.016 61.8834 29.0698 62.2686 30.0443L63.6171 33.2852H64.3876L65.7474 30.0897C66.1327 29.1718 66.5633 28.016 66.8579 27.2001H66.8692C66.8579 27.948 66.8352 28.9792 66.8352 29.7271V33.2852H67.6511V26.4862H66.4726L64.9769 30.0217C64.7276 30.5883 64.3423 31.6081 64.059 32.3786H64.0477C63.7644 31.5968 63.3451 30.5543 63.1411 30.033L61.6454 26.4862H60.3989V33.2852H61.1921V29.7271ZM72.3806 33.4098C74.5109 33.4098 75.8367 31.88 75.8367 29.8744C75.8367 27.8574 74.4883 26.3616 72.3806 26.3616C70.2843 26.3616 68.9358 27.8574 68.9358 29.8744C68.9358 31.88 70.2503 33.4098 72.3806 33.4098ZM72.3806 32.6619C70.6922 32.6619 69.7517 31.4721 69.7517 29.863C69.7517 28.3106 70.7149 27.1208 72.3806 27.1208C74.0577 27.1208 75.0095 28.3106 75.0095 29.863C75.0095 31.4721 74.069 32.6619 72.3806 32.6619ZM79.7078 33.4098C81.4416 33.4098 82.2574 32.6166 82.2574 31.4608C82.2574 30.5203 81.7362 29.8064 79.8665 29.4778C78.2801 29.2058 77.9288 28.7865 77.9288 28.186C77.9288 27.5174 78.484 27.0868 79.4019 27.0868C80.569 27.0868 81.0223 27.6874 81.2489 28.7525L82.0535 28.5939C81.7815 27.3134 81.0903 26.3616 79.4359 26.3616C77.9515 26.3616 77.1016 27.0981 77.1016 28.2086C77.1016 29.1831 77.7135 29.8857 79.5719 30.203C80.9543 30.4296 81.4302 30.7809 81.4302 31.4948C81.4302 32.2087 80.8637 32.6733 79.7418 32.6733C78.4387 32.6733 77.7022 31.948 77.5095 30.7696L76.7163 30.9282C76.8976 32.356 77.8155 33.3985 79.7078 33.4098ZM83.1125 27.2681H85.4015V33.2852H86.2174V27.2681H88.5063V26.4862H83.1125V27.2681ZM42.6387 46.4098C44.769 46.4098 46.0948 44.88 46.0948 42.8744C46.0948 40.8574 44.7463 39.3616 42.6387 39.3616C40.5423 39.3616 39.1939 40.8574 39.1939 42.8744C39.1939 44.88 40.5083 46.4098 42.6387 46.4098ZM42.6387 45.6619C40.9503 45.6619 40.0097 44.4721 40.0097 42.863C40.0097 41.3106 40.9729 40.1208 42.6387 40.1208C44.3157 40.1208 45.2676 41.3106 45.2676 42.863C45.2676 44.4721 44.3271 45.6619 42.6387 45.6619ZM50.3738 46.2852L53.2181 39.4862H52.3682L50.9404 43.0217C50.6231 43.8149 50.2492 44.7441 49.9772 45.4806H49.8979C49.6486 44.7554 49.2634 43.8149 48.9461 43.0217L47.5183 39.4862H46.6458L49.49 46.2852H50.3738ZM54.1234 46.2852H58.69V45.5033H54.9393V43.203H58.2934V42.4324H54.9393V40.2681H58.6787V39.4862H54.1234V46.2852ZM62.8532 40.2228C63.975 40.2228 64.349 40.6874 64.349 41.4126C64.349 42.1605 63.7711 42.5911 62.8305 42.5911H60.9835V40.2228H62.8532ZM64.5983 46.2852H65.5954V46.2625L63.3631 43.2936C64.5303 43.135 65.1648 42.4551 65.1648 41.4013C65.1648 40.2681 64.485 39.4862 62.9099 39.4862H60.1676V46.2852H60.9835V43.3276H62.4679L64.5983 46.2852ZM70.26 42.9877C70.4979 42.1378 70.7699 41.1293 70.9852 40.3134H71.0418C71.2458 41.1406 71.5064 42.1378 71.7557 42.9877L72.7302 46.2852H73.7841L75.7104 39.4862H74.8379L73.9654 42.829C73.7387 43.7469 73.5008 44.6194 73.3081 45.5259H73.2288C72.9909 44.5968 72.7756 43.7696 72.5149 42.8404L71.5064 39.4862H70.5772L69.5687 42.8404C69.2968 43.7696 69.0701 44.5968 68.8322 45.5259H68.7529C68.5602 44.6194 68.3336 43.7469 68.107 42.829L67.2118 39.4862H66.3166L68.2429 46.2852H69.2968L70.26 42.9877ZM79.7096 46.4098C81.8399 46.4098 83.1657 44.88 83.1657 42.8744C83.1657 40.8574 81.8172 39.3616 79.7096 39.3616C77.6132 39.3616 76.2648 40.8574 76.2648 42.8744C76.2648 44.88 77.5792 46.4098 79.7096 46.4098ZM79.7096 45.6619C78.0212 45.6619 77.0807 44.4721 77.0807 42.863C77.0807 41.3106 78.0438 40.1208 79.7096 40.1208C81.3866 40.1208 82.3385 41.3106 82.3385 42.863C82.3385 44.4721 81.398 45.6619 79.7096 45.6619ZM87.1275 40.2228C88.2493 40.2228 88.6232 40.6874 88.6232 41.4126C88.6232 42.1605 88.0453 42.5911 87.1048 42.5911H85.2578V40.2228H87.1275ZM88.8725 46.2852H89.8697V46.2625L87.6374 43.2936C88.8045 43.135 89.4391 42.4551 89.4391 41.4013C89.4391 40.2681 88.7592 39.4862 87.1841 39.4862H84.4419V46.2852H85.2578V43.3276H86.7422L88.8725 46.2852ZM95.758 46.2852H96.8345V46.2625L92.8458 43.0103L96.6419 39.5089V39.4862H95.6334L92.2112 42.7044H92.1319V39.4862H91.3161V46.2852H92.1319V43.4069H92.2112L95.758 46.2852ZM97.7365 46.2852H102.303V45.5033H98.5524V43.203H101.907V42.4324H98.5524V40.2681H102.292V39.4862H97.7365V46.2852ZM106.228 40.2001C108.087 40.2001 108.971 41.186 108.971 42.8517C108.971 44.5288 108.166 45.5713 106.308 45.5713H104.597V40.2001H106.228ZM103.781 46.2852H106.387C108.551 46.2852 109.786 44.88 109.786 42.8517C109.786 40.8234 108.608 39.4862 106.33 39.4862H103.781V46.2852Z" fill="black"/>
<path d="M57.3591 55.7425C57.5042 54.9327 57.6613 54.0141 57.7942 53.168H57.8668C57.9876 54.0141 58.1448 54.9327 58.2898 55.7425L58.9062 58.9697H61.2995L63.0762 51.7176H61.2995L60.6951 54.8239C60.538 55.7304 60.3688 56.5523 60.2358 57.4226H60.1391C60.0062 56.5282 59.8611 55.6821 59.704 54.8239L59.0513 51.7176H56.8515L56.1625 54.8239C55.9933 55.6821 55.8362 56.5282 55.679 57.4226H55.5944C55.4735 56.5523 55.3285 55.7304 55.1593 54.8239L54.5066 51.7176H52.6331L54.4099 58.9697H56.7668L57.3591 55.7425ZM65.5331 58.9697V51.7176H63.7926V58.9697H65.5331ZM71.1666 58.9697H73.5114V51.7176H71.8555V54.5096C71.8555 55.1623 71.8676 55.9842 71.8918 56.8303H71.8434C71.5292 56.0205 71.0699 54.9689 70.6831 54.147L69.4986 51.7176H66.8757V58.9697H68.5316V56.1897C68.5316 55.4766 68.5074 54.3525 68.4712 53.4218H68.5195C68.8821 54.2921 69.4019 55.4524 69.7282 56.1051L71.1666 58.9697ZM79.1482 58.9697H81.4931V51.7176H79.8372V54.5096C79.8372 55.1623 79.8493 55.9842 79.8734 56.8303H79.8251C79.5108 56.0205 79.0515 54.9689 78.6647 54.147L77.4802 51.7176H74.8573V58.9697H76.5133V56.1897C76.5133 55.4766 76.4891 54.3525 76.4528 53.4218H76.5012C76.8638 54.2921 77.3835 55.4524 77.7099 56.1051L79.1482 58.9697ZM82.839 58.9697H88.3144V57.3259H84.5795V56.0326H88.0122V54.5822H84.5795V53.3614H88.3144V51.7176H82.839V58.9697ZM92.7601 53.2647C93.4853 53.2647 93.7996 53.5306 93.7996 54.0382C93.7996 54.5822 93.4491 54.8602 92.7359 54.8602H91.3218V53.2647H92.7601ZM93.9446 58.9697H95.9994V58.9456L94.0413 56.1172C94.972 55.8029 95.5159 55.1019 95.5159 53.9899C95.5159 52.5032 94.5973 51.7176 92.8205 51.7176H89.5812V58.9697H91.3218V56.2985H92.3008L93.9446 58.9697Z" fill="black"/>
<path d="M118.798 4.45924C118.111 3.63345 117.082 1.68242 116.769 0.611444C116.594 0.0124008 116.596 -0.0314942 116.803 0.0536026C116.927 0.104364 117.662 0.375543 118.436 0.656281C120.402 1.36924 121.242 1.75917 122.163 2.3873C123.722 3.4502 124.719 4.95286 124.805 6.36988L124.849 7.0967L126.571 8.83095C127.518 9.78479 128.926 11.3342 129.7 12.2741C130.475 13.2141 131.126 13.9288 131.149 13.8623C131.226 13.6314 130.771 12.8366 130.106 12.0429C128.158 9.71827 127.033 5.07013 127.549 1.48288C127.617 1.01229 127.712 0.58815 127.76 0.54035C127.892 0.409204 129.427 2.09081 130.079 3.081C131.584 5.36649 132.416 7.76051 132.418 9.81158C132.419 11.1408 132.231 11.9568 131.752 12.6949C131.461 13.1444 131.421 13.326 131.483 13.9285C131.544 14.5172 131.711 14.8677 132.483 16.0271C133.734 17.9037 134.754 19.6675 135.655 21.5121C136.159 22.5424 136.405 22.9321 136.405 22.6977C136.405 22.5057 136.2 21.9363 135.949 21.4323C134.881 19.2884 134.463 17.2009 134.568 14.5242C134.647 12.5166 134.933 11.196 135.616 9.6939L136.021 8.80173L136.347 9.20567C137.18 10.2369 138.291 14.0039 138.533 16.6158C138.783 19.3214 138.377 20.9648 137.116 22.3468C136.652 22.8552 136.756 23.8849 137.459 25.7283C138.068 27.3239 138.766 29.6477 139.242 31.6616C139.489 32.7057 139.572 32.9069 139.645 32.6338C139.695 32.4444 139.679 32.0944 139.609 31.8559C139.314 30.8567 138.953 28.2826 138.953 27.1825C138.953 25.7881 139.237 24.1595 139.71 22.8423C140.073 21.8331 141.108 20.0068 141.748 19.2465C142.111 18.815 142.145 18.8018 142.272 19.0446C142.347 19.1873 142.548 19.8495 142.72 20.516C143.001 21.6064 143.032 22.0247 143.032 24.69C143.032 27.0643 142.985 27.8393 142.797 28.5948C142.354 30.3719 141.626 31.5558 140.562 32.2303C140.135 32.5009 140.062 32.6335 139.907 33.4137C139.778 34.0689 139.769 34.4754 139.873 35.0117C140.09 36.1228 140.552 41.5214 140.563 43.0693C140.565 43.4234 140.599 43.4904 140.696 43.3386C140.768 43.2275 140.827 42.281 140.828 41.2352C140.83 39.6745 140.888 39.1046 141.153 38.0549C141.693 35.917 142.695 34.0006 144.069 32.4771C145.081 31.3538 146.231 30.396 146.383 30.5488C146.592 30.758 146.525 33.4766 146.273 35.0455C145.823 37.8437 144.754 40.6287 143.645 41.8945C143.032 42.594 142.214 43.1264 141.536 43.2685C140.899 43.4016 140.621 44.131 140.503 45.9751C140.299 49.1855 139.888 52.3744 139.431 54.298C139.397 54.4394 139.42 54.4995 139.483 54.4327C139.545 54.3664 139.727 53.7973 139.887 53.1678C140.882 49.2575 143.201 46.2875 146.522 44.6665C147.772 44.0567 148.072 44.0164 148.072 44.4583C148.072 45.5914 147.455 47.4565 146.371 49.5997C145.572 51.1792 145.125 51.8257 144.057 52.9461C142.887 54.1735 141.893 54.6914 140.681 54.7058L139.794 54.7163L139.396 55.3222C139.177 55.6554 138.801 56.534 138.56 57.2746C137.843 59.4822 136.98 61.5923 135.891 63.802C134.66 66.2982 134.699 66.2054 134.97 65.9812C135.089 65.8821 135.424 65.3671 135.714 64.8367C137.812 61.0026 141.037 58.823 144.613 58.823C145.262 58.823 145.792 58.8422 145.792 58.8658C145.792 58.8895 145.697 59.2289 145.581 59.6202C145.136 61.1269 143.281 63.6433 141.607 65.012C139.68 66.5877 137.36 67.1495 135.822 66.413C135.404 66.2131 135.363 66.2199 134.79 66.5831C134.349 66.8619 133.935 67.3514 133.214 68.4463C132.039 70.23 131.031 71.5082 129.414 73.2638C128.749 73.9858 128.272 74.5766 128.355 74.5766C128.438 74.5766 129.032 74.0755 129.676 73.463C131.037 72.1677 131.681 71.7588 133.134 71.2677C134.421 70.8329 136.429 70.6893 137.82 70.9326C139.051 71.1477 140.83 71.7586 140.83 71.966C140.83 72.3031 139.447 73.6355 138.39 74.316C136.087 75.7996 134.35 76.3847 132.248 76.3851C130.674 76.3854 130.303 76.271 129.251 75.462C128.344 74.7645 127.844 74.8556 126.555 75.9527C125.225 77.0858 122.751 78.708 121.154 79.4957C119.907 80.11 119.545 80.3665 119.923 80.3665C120.003 80.3665 120.622 80.0938 121.297 79.7607C123.063 78.8903 123.934 78.7021 125.811 78.7864C127.057 78.8423 127.56 78.9302 128.426 79.2435C129.702 79.7048 131.022 80.4269 131.979 81.1862L132.674 81.7378L132.363 82.0699C131.582 82.9047 129.046 83.6928 126.75 83.8144C123.761 83.9728 121.453 83.1097 120.425 81.4483C119.834 80.4938 119.361 80.4511 117.198 81.1567C115.679 81.6523 113.12 82.2515 112.521 82.2515C112.382 82.2515 112.268 82.1722 112.268 82.0753C112.268 81.658 112.636 81.4358 113.652 81.2413C114.929 80.9969 116.472 80.548 118.162 79.9301C119.678 79.3751 119.674 79.3826 119.648 77.1743C119.612 74.1688 120.652 71.4788 122.64 69.4331C123.601 68.444 125.543 67.1436 125.543 67.4894C125.543 67.5162 125.482 67.8646 125.406 68.2636C125.331 68.6624 125.149 69.7756 125.002 70.7372C124.56 73.6336 123.904 75.5737 122.973 76.7407C122.367 77.5001 121.178 78.3338 120.56 78.4332C120.219 78.4879 120.025 78.601 119.97 78.7775C119.924 78.922 119.916 79.0698 119.952 79.106C120.039 79.193 122.02 78.1881 123.124 77.4971C124.446 76.6692 126.313 75.252 127.254 74.3612L128.094 73.5668L128.104 72.7589C128.111 72.2494 128.009 71.6527 127.828 71.1432C127.204 69.3903 127.201 66.4772 127.82 64.2735C128.174 63.0153 129.275 60.8236 130.04 59.8551C130.381 59.4228 130.681 59.09 130.707 59.1153C130.818 59.2276 131.443 65.143 131.443 66.0892C131.443 67.6402 131.103 69.2473 130.572 70.2006C130.118 71.017 129.349 71.8568 128.795 72.1418C128.578 72.2536 128.493 72.4171 128.493 72.725V73.1528L129.175 72.4845C130.464 71.2207 132.428 68.6315 133.715 66.4999C134.383 65.3943 134.402 65.3334 134.32 64.6148C134.264 64.1256 134.108 63.6884 133.863 63.3336C131.969 60.5951 131.407 56.3218 132.46 52.6712C132.812 51.4497 133.284 50.2569 133.377 50.353C133.405 50.3831 133.83 51.4303 134.319 52.6803C135.896 56.7063 136.295 58.5383 136.03 60.5308C135.873 61.7087 135.396 62.97 134.913 63.4869C134.723 63.6898 134.657 63.9097 134.692 64.2278C134.738 64.6411 134.819 64.523 135.627 62.8624C136.688 60.6818 137.459 58.6439 138.164 56.1583L138.687 54.3139L138.34 53.4945C138.116 52.9637 137.861 52.5964 137.618 52.4522C137.053 52.117 135.803 50.7057 135.299 49.8334C134.188 47.9118 133.601 45.9516 133.493 43.8056C133.413 42.2163 133.543 40.2011 133.722 40.2683C133.781 40.2908 134.625 41.3694 135.597 42.6654C138.32 46.2972 139.234 48.4203 139.053 50.6915C139.015 51.161 138.862 51.7943 138.712 52.0989C138.49 52.549 138.465 52.7281 138.578 53.0551C138.655 53.2765 138.762 53.4075 138.817 53.3464C139.134 52.9885 139.749 48.3193 139.884 45.2374L139.986 42.8948L139.508 42.2489C139.168 41.7892 138.855 41.5365 138.422 41.3726C136.009 40.4593 133.731 37.4953 132.919 34.2139C132.63 33.0484 132.383 30.832 132.531 30.74C132.584 30.707 132.648 30.7287 132.672 30.7882C132.697 30.8476 133.6 31.6025 134.679 32.466C137.319 34.5796 138.255 35.669 139.045 37.5488C139.37 38.3214 139.415 38.607 139.429 39.9856C139.442 41.2043 139.495 41.6176 139.669 41.8671C139.884 42.1754 139.892 42.1446 139.892 40.9937C139.892 39.3484 139.418 35.4505 138.934 33.1067C138.712 32.0334 138.52 31.145 138.507 31.1322C137.889 30.5233 137.382 30.2779 136.743 30.2779C134.671 30.2779 131.863 28.2657 130.382 25.7196C129.859 24.8207 128.863 22.4565 128.964 22.355C129.007 22.3112 129.554 22.517 132.382 23.6422C135.72 24.9702 137.416 26.7563 137.585 29.1207C137.631 29.7754 137.72 30.1275 137.867 30.2399C138.432 30.6721 138.391 30.3739 137.515 27.6523C136.827 25.5149 136.384 24.348 135.506 22.3658C134.931 21.0663 134.859 20.9685 134.312 20.7255C133.755 20.4779 133.686 20.4763 132.67 20.6871C131.684 20.8921 131.538 20.8914 130.555 20.6792C129.044 20.3529 127.712 19.6502 126.586 18.5845C125.781 17.8236 124.259 15.9035 124.371 15.7914C124.39 15.7719 125.371 15.8092 126.55 15.8742C129.738 16.0503 131.3 16.522 132.494 17.6689C133.145 18.2941 133.522 18.9436 133.658 19.6722C133.729 20.0531 133.837 20.1927 134.139 20.2985C134.353 20.3734 134.528 20.391 134.528 20.3376C134.528 19.9599 131.69 15.31 130.558 13.8332C130.036 13.1519 129.915 13.0663 129.404 13.0174C128.985 12.9773 128.688 13.0442 128.289 13.2677C127.99 13.4355 127.31 13.6477 126.778 13.7392C124.528 14.1267 122.199 13.3014 120.339 11.4576C119.791 10.9151 119.38 10.4351 119.424 10.3908C119.546 10.2678 122.258 9.82276 123.465 9.7277C124.727 9.62819 125.832 9.82182 126.856 10.322C127.643 10.7064 128.572 11.6323 128.784 12.2434C128.909 12.6021 129.461 12.9242 129.641 12.7431C129.756 12.6276 127.221 9.75975 125.981 8.60313L124.758 7.462L123.687 7.30823C121.867 7.04715 120.089 6.01091 118.798 4.45924Z" fill="#213137"/>
</svg>
