<svg xmlns="http://www.w3.org/2000/svg" width="40" height="40" fill="currentColor" viewBox="0 0 40 40">
  <path fill-rule="evenodd" d="m19.672 5.712-1.265 1.712.63.577c1.523 1.393 9.186 7.734 10.794 8.931.973.724 1.772 1.407 1.776 1.517.004.11-.646.14-1.446.068-.799-.072-7.191-.203-14.205-.289l-12.753-.157v4.427l12.645-.147c6.955-.081 13.347-.214 14.206-.296.858-.081 1.557-.055 1.552.058-.005.114-1.332 1.23-2.95 2.482-2.362 1.828-6.627 5.385-9.799 8.174-.439.385-.428.413.909 2.21l1.353 1.821 1.616-1.612c.888-.887 4.388-4.36 7.776-7.72 6.06-6.006 6.162-6.123 6.227-7.106l.065-.999-7.753-7.681C24.786 7.457 21.216 4 21.117 4c-.098 0-.748.77-1.445 1.712Z" clip-rule="evenodd"/>
</svg>
