<svg xmlns="http://www.w3.org/2000/svg" width="50" height="50" fill="currentColor" viewBox="0 0 50 50">
  <path fill-rule="evenodd" d="m24.587 7.14-1.583 2.14.79.722c1.901 1.74 11.481 9.667 13.491 11.163 1.216.905 2.215 1.759 2.22 1.896.005.138-.808.176-1.807.085-1-.09-8.99-.253-17.757-.36L4 22.588v5.534l15.806-.185c8.694-.1 16.684-.267 17.757-.37 1.073-.101 1.946-.068 1.94.074-.005.142-1.664 1.538-3.686 3.102-2.953 2.284-8.285 6.731-12.25 10.217-.548.482-.534.516 1.136 2.763L26.395 46l2.02-2.016c1.11-1.108 5.485-5.45 9.72-9.648 7.575-7.508 7.703-7.655 7.783-8.883L46 24.204l-9.691-9.602C30.979 9.32 26.516 5 26.393 5c-.123 0-.936.963-1.806 2.14Z" clip-rule="evenodd"/>
</svg>
