<svg xmlns="http://www.w3.org/2000/svg" width="61" height="24" fill="currentColor" viewBox="0 0 61 24">
  <path fill-rule="evenodd" d="M44.352 23.47a12.14 12.14 0 0 0 3.562.53c6.678 0 12.092-5.372 12.092-12 0-6.627-5.414-12-12.092-12-1.24 0-2.436.185-3.562.53v22.94Zm-28.696 0a12.14 12.14 0 0 1-3.562.53C5.416 24 .002 18.628.002 12c0-6.627 5.414-12 12.092-12 1.24 0 2.436.185 3.562.53v22.94ZM29.233.041C23.026.549 18.148 5.709 18.148 12c0 6.29 4.878 11.45 11.085 11.959V.04Zm2.015 23.918c6.207-.508 11.084-5.668 11.084-11.96 0-6.29-4.877-11.45-11.084-11.958v23.918Z" clip-rule="evenodd"/>
</svg>
