<svg width="24" height="24" viewBox="0 0 24 24" fill="currentColor" xmlns="http://www.w3.org/2000/svg">
<path fill-rule="evenodd" clip-rule="evenodd" d="M12 0.596191L21.2188 6.74206C22.3316 7.48392 23 8.73285 23 10.0703V18.9999C23 21.209 21.2091 22.9999 19 22.9999H5C2.79086 22.9999 1 21.209 1 18.9999V10.0703C1 8.73285 1.6684 7.48392 2.7812 6.74206L12 0.596191ZM3.8906 8.40616L12 2.99989L20.1094 8.40616C20.6658 8.77709 21 9.40155 21 10.0703V18.9999C21 20.1045 20.1046 20.9999 19 20.9999H5C3.89543 20.9999 3 20.1045 3 18.9999V10.0703C3 9.40155 3.3342 8.77709 3.8906 8.40616Z" fill="white"/>
<path fill-rule="evenodd" clip-rule="evenodd" d="M4.59313 9.70927C4.75364 9.48457 5.06591 9.43252 5.29062 9.59303L12 14.3854L18.7094 9.59303C18.9341 9.43252 19.2464 9.48457 19.4069 9.70927C19.5674 9.93398 19.5153 10.2463 19.2906 10.4068L12 15.6143L4.70938 10.4068C4.48467 10.2463 4.43263 9.93398 4.59313 9.70927Z" fill="white"/>
</svg>
