<svg width="125" height="125" viewBox="0 0 125 125" fill="none" xmlns="http://www.w3.org/2000/svg">
<g opacity="0.2">
<circle cx="37" cy="20" r="1" fill="white"/>
<circle cx="20" cy="20" r="1" fill="white"/>
<circle cx="54" cy="20" r="1" fill="white"/>
<circle cx="71" cy="20" r="1" fill="white"/>
<circle cx="88" cy="20" r="1" fill="white"/>
<circle cx="105" cy="20" r="1" fill="white"/>
<circle cx="37" cy="37" r="1" fill="white"/>
<circle cx="20" cy="37" r="1" fill="white"/>
<circle cx="54" cy="37" r="1" fill="white"/>
<circle cx="71" cy="37" r="1" fill="white"/>
<circle cx="88" cy="37" r="1" fill="white"/>
<circle cx="105" cy="37" r="1" fill="white"/>
<circle cx="37" cy="54" r="1" fill="white"/>
<circle cx="20" cy="54" r="1" fill="white"/>
<circle cx="54" cy="54" r="1" fill="white"/>
<circle cx="71" cy="54" r="1" fill="white"/>
<circle cx="88" cy="54" r="1" fill="white"/>
<circle cx="105" cy="54" r="1" fill="white"/>
<circle cx="37" cy="71" r="1" fill="white"/>
<circle cx="20" cy="71" r="1" fill="white"/>
<circle cx="54" cy="71" r="1" fill="white"/>
<circle cx="71" cy="71" r="1" fill="white"/>
<circle cx="88" cy="71" r="1" fill="white"/>
<circle cx="105" cy="71" r="1" fill="white"/>
<circle cx="37" cy="88" r="1" fill="white"/>
<circle cx="37" cy="105" r="1" fill="white"/>
<circle cx="20" cy="88" r="1" fill="white"/>
<circle cx="20" cy="105" r="1" fill="white"/>
<circle cx="54" cy="88" r="1" fill="white"/>
<circle cx="54" cy="105" r="1" fill="white"/>
<circle cx="71" cy="105" r="1" fill="white"/>
<circle cx="71" cy="88" r="1" fill="white"/>
<circle cx="88" cy="88" r="1" fill="white"/>
<circle cx="88" cy="105" r="1" fill="white"/>
<circle cx="105" cy="88" r="1" fill="white"/>
<circle cx="105" cy="105" r="1" fill="white"/>
<circle cx="37" cy="105" r="1" fill="white"/>
</g>
<rect opacity="0.1" width="125" height="125" rx="10" fill="white"/>
<g filter="url(#filter0_b_2317_106037)">
<circle cx="45" cy="80" r="25" fill="white" fill-opacity="0.05"/>
<circle cx="45" cy="80" r="26.5" stroke="url(#paint0_linear_2317_106037)" stroke-width="3" stroke-linecap="round"/>
</g>
<g filter="url(#filter1_b_2317_106037)">
<circle cx="63" cy="45" r="25" fill="white" fill-opacity="0.05"/>
<circle cx="63" cy="45" r="26.5" stroke="url(#paint1_linear_2317_106037)" stroke-width="3" stroke-linecap="round"/>
</g>
<g filter="url(#filter2_b_2317_106037)">
<circle cx="80" cy="80" r="25" fill="white" fill-opacity="0.05"/>
<circle cx="80" cy="80" r="26.5" stroke="url(#paint2_linear_2317_106037)" stroke-width="3" stroke-linecap="round"/>
</g>
<defs>
<filter id="filter0_b_2317_106037" x="13" y="48" width="64" height="64" filterUnits="userSpaceOnUse" color-interpolation-filters="sRGB">
<feFlood flood-opacity="0" result="BackgroundImageFix"/>
<feGaussianBlur in="BackgroundImageFix" stdDeviation="2"/>
<feComposite in2="SourceAlpha" operator="in" result="effect1_backgroundBlur_2317_106037"/>
<feBlend mode="normal" in="SourceGraphic" in2="effect1_backgroundBlur_2317_106037" result="shape"/>
</filter>
<filter id="filter1_b_2317_106037" x="31" y="13" width="64" height="64" filterUnits="userSpaceOnUse" color-interpolation-filters="sRGB">
<feFlood flood-opacity="0" result="BackgroundImageFix"/>
<feGaussianBlur in="BackgroundImageFix" stdDeviation="2"/>
<feComposite in2="SourceAlpha" operator="in" result="effect1_backgroundBlur_2317_106037"/>
<feBlend mode="normal" in="SourceGraphic" in2="effect1_backgroundBlur_2317_106037" result="shape"/>
</filter>
<filter id="filter2_b_2317_106037" x="48" y="48" width="64" height="64" filterUnits="userSpaceOnUse" color-interpolation-filters="sRGB">
<feFlood flood-opacity="0" result="BackgroundImageFix"/>
<feGaussianBlur in="BackgroundImageFix" stdDeviation="2"/>
<feComposite in2="SourceAlpha" operator="in" result="effect1_backgroundBlur_2317_106037"/>
<feBlend mode="normal" in="SourceGraphic" in2="effect1_backgroundBlur_2317_106037" result="shape"/>
</filter>
<linearGradient id="paint0_linear_2317_106037" x1="45" y1="55" x2="45" y2="105" gradientUnits="userSpaceOnUse">
<stop stop-color="#FFB800"/>
<stop offset="1" stop-color="#FF9182"/>
</linearGradient>
<linearGradient id="paint1_linear_2317_106037" x1="63" y1="20" x2="63" y2="70" gradientUnits="userSpaceOnUse">
<stop stop-color="#FFB800"/>
<stop offset="1" stop-color="#FF9182"/>
</linearGradient>
<linearGradient id="paint2_linear_2317_106037" x1="80" y1="55" x2="80" y2="105" gradientUnits="userSpaceOnUse">
<stop stop-color="#FFB800"/>
<stop offset="1" stop-color="#FF9182"/>
</linearGradient>
</defs>
</svg>
