<svg width="125" height="125" viewBox="0 0 125 125" fill="none" xmlns="http://www.w3.org/2000/svg">
<rect opacity="0.1" width="125" height="125" rx="10" fill="white"/>
<g opacity="0.2">
<circle cx="37" cy="20" r="1" fill="white"/>
<circle cx="20" cy="20" r="1" fill="white"/>
<circle cx="54" cy="20" r="1" fill="white"/>
<circle cx="71" cy="20" r="1" fill="white"/>
<circle cx="88" cy="20" r="1" fill="white"/>
<circle cx="105" cy="20" r="1" fill="white"/>
<circle cx="37" cy="37" r="1" fill="white"/>
<circle cx="20" cy="37" r="1" fill="white"/>
<circle cx="54" cy="37" r="1" fill="white"/>
<circle cx="71" cy="37" r="1" fill="white"/>
<circle cx="88" cy="37" r="1" fill="white"/>
<circle cx="105" cy="37" r="1" fill="white"/>
<circle cx="37" cy="54" r="1" fill="white"/>
<circle cx="20" cy="54" r="1" fill="white"/>
<circle cx="54" cy="54" r="1" fill="white"/>
<circle cx="71" cy="54" r="1" fill="white"/>
<circle cx="88" cy="54" r="1" fill="white"/>
<circle cx="105" cy="54" r="1" fill="white"/>
<circle cx="37" cy="71" r="1" fill="white"/>
<circle cx="20" cy="71" r="1" fill="white"/>
<circle cx="54" cy="71" r="1" fill="white"/>
<circle cx="71" cy="71" r="1" fill="white"/>
<circle cx="88" cy="71" r="1" fill="white"/>
<circle cx="105" cy="71" r="1" fill="white"/>
<circle cx="37" cy="88" r="1" fill="white"/>
<circle cx="37" cy="105" r="1" fill="white"/>
<circle cx="20" cy="88" r="1" fill="white"/>
<circle cx="20" cy="105" r="1" fill="white"/>
<circle cx="54" cy="88" r="1" fill="white"/>
<circle cx="54" cy="105" r="1" fill="white"/>
<circle cx="71" cy="105" r="1" fill="white"/>
<circle cx="71" cy="88" r="1" fill="white"/>
<circle cx="88" cy="88" r="1" fill="white"/>
<circle cx="88" cy="105" r="1" fill="white"/>
<circle cx="105" cy="88" r="1" fill="white"/>
<circle cx="105" cy="105" r="1" fill="white"/>
<circle cx="37" cy="105" r="1" fill="white"/>
</g>
<g filter="url(#filter0_b_2317_106040)">
<path d="M62.5 49L98.4401 106H26.5599L62.5 49Z" fill="white" fill-opacity="0.05"/>
<path d="M63.7688 48.2L62.5 46.1876L61.2312 48.2L25.2911 105.2L23.8409 107.5H26.5599H98.4401H101.159L99.7089 105.2L63.7688 48.2Z" stroke="url(#paint0_linear_2317_106040)" stroke-width="3" stroke-linecap="round"/>
</g>
<g filter="url(#filter1_b_2317_106040)">
<circle cx="62.5" cy="45.5" r="25.5" fill="white" fill-opacity="0.05"/>
<circle cx="62.5" cy="45.5" r="27" stroke="url(#paint1_linear_2317_106040)" stroke-width="3" stroke-linecap="round"/>
</g>
<defs>
<filter id="filter0_b_2317_106040" x="17.1211" y="39.3752" width="90.7578" height="73.6248" filterUnits="userSpaceOnUse" color-interpolation-filters="sRGB">
<feFlood flood-opacity="0" result="BackgroundImageFix"/>
<feGaussianBlur in="BackgroundImageFix" stdDeviation="2"/>
<feComposite in2="SourceAlpha" operator="in" result="effect1_backgroundBlur_2317_106040"/>
<feBlend mode="normal" in="SourceGraphic" in2="effect1_backgroundBlur_2317_106040" result="shape"/>
</filter>
<filter id="filter1_b_2317_106040" x="30" y="13" width="65" height="65" filterUnits="userSpaceOnUse" color-interpolation-filters="sRGB">
<feFlood flood-opacity="0" result="BackgroundImageFix"/>
<feGaussianBlur in="BackgroundImageFix" stdDeviation="2"/>
<feComposite in2="SourceAlpha" operator="in" result="effect1_backgroundBlur_2317_106040"/>
<feBlend mode="normal" in="SourceGraphic" in2="effect1_backgroundBlur_2317_106040" result="shape"/>
</filter>
<linearGradient id="paint0_linear_2317_106040" x1="62.5" y1="49" x2="62.5" y2="125" gradientUnits="userSpaceOnUse">
<stop stop-color="#02FFB3"/>
<stop offset="1" stop-color="#01B3DA"/>
</linearGradient>
<linearGradient id="paint1_linear_2317_106040" x1="62.5" y1="20" x2="62.5" y2="71" gradientUnits="userSpaceOnUse">
<stop stop-color="#02FFB3"/>
<stop offset="1" stop-color="#01B3DA"/>
</linearGradient>
</defs>
</svg>
