<svg width="50" height="50" viewBox="0 0 50 50" fill="none" xmlns="http://www.w3.org/2000/svg">
<rect opacity="0.25" width="10" height="10" fill="#00022E"/>
<rect y="10" width="10" height="10" fill="#00022E"/>
<rect opacity="0.75" y="20" width="10" height="10" fill="#00022E"/>
<rect opacity="0.5" y="30" width="10" height="10" fill="#00022E"/>
<rect opacity="0.25" y="40" width="10" height="10" fill="#00022E"/>
<rect opacity="0.5" x="10" width="10" height="10" fill="#00022E"/>
<rect x="10.5" y="10.5" width="9" height="9" fill="#00022E" stroke="#00022E"/>
<rect opacity="0.5" x="10" y="20" width="10" height="10" fill="#00022E"/>
<rect x="10.5" y="30.5" width="9" height="9" fill="white" stroke="#00022E"/>
<rect x="10" y="40" width="10" height="10" fill="#00022E"/>
<rect opacity="0.75" x="20" width="10" height="10" fill="#00022E"/>
<rect opacity="0.5" x="20" y="10" width="10" height="10" fill="#00022E"/>
<rect x="20.5" y="20.5" width="9" height="9" fill="white" stroke="#00022E"/>
<rect opacity="0.5" x="20" y="30" width="10" height="10" fill="#00022E"/>
<rect opacity="0.75" x="20" y="40" width="10" height="10" fill="#00022E"/>
<rect x="30" width="10" height="10" fill="#00022E"/>
<rect x="30.5" y="10.5" width="9" height="9" fill="white" stroke="#00022E"/>
<rect opacity="0.5" x="30" y="20" width="10" height="10" fill="#00022E"/>
<rect x="30.5" y="30.5" width="9" height="9" fill="#00022E" stroke="#00022E"/>
<rect opacity="0.5" x="30" y="40" width="10" height="10" fill="#00022E"/>
<rect opacity="0.25" x="40" width="10" height="10" fill="#00022E"/>
<rect opacity="0.5" x="40" y="10" width="10" height="10" fill="#00022E"/>
<rect opacity="0.75" x="40" y="20" width="10" height="10" fill="#00022E"/>
<rect x="40" y="30" width="10" height="10" fill="#00022E"/>
<rect opacity="0.25" x="40" y="40" width="10" height="10" fill="#00022E"/>
</svg>
