<svg width="316" height="137" viewBox="0 0 316 137" fill="none" xmlns="http://www.w3.org/2000/svg">
<path d="M307.357 58.487C306.814 59.1325 307.603 58.8643 309.108 57.8891C310.614 56.9139 312.203 56.1845 312.64 56.2672C314.033 56.5307 314.085 59.6862 312.711 60.6232C311.148 61.6893 310.636 63.3797 312.041 62.8404C312.576 62.6351 313.422 63.2054 313.923 64.107C314.688 65.4893 314.023 65.7034 309.711 65.466C306.893 65.3108 304.511 65.5951 304.416 66.0981C304.321 66.6002 303.853 66.6552 303.375 66.2189C302.898 65.7826 302.427 65.8552 302.327 66.3799C302.228 66.9046 301.064 67.0031 299.742 66.5992C298.418 66.1963 297.25 66.3204 297.145 66.8765C297.04 67.4326 296.756 67.5988 296.515 67.2449C296.274 66.8919 294.522 66.6573 292.622 66.7233C290.48 66.7977 288.84 66.3654 288.308 65.5849C287.695 64.6864 287.366 64.7697 287.156 65.88C286.854 67.4777 278.705 68.7699 275.353 67.7512C274.426 67.4701 273.588 67.6658 273.489 68.1865C273.375 68.7918 272.469 68.6174 270.979 67.7025C269.695 66.9164 268.807 66.6903 269.003 67.2007C269.913 69.571 257.717 69.8964 254.946 67.576C253.847 66.6558 253.408 66.7447 253.183 67.9307C253.019 68.8003 252.498 69.1588 252.026 68.7275C251.551 68.2926 251.29 68.6138 251.441 69.4474C251.765 71.2295 246.917 70.6882 246.216 68.8631C245.975 68.2386 246.203 68.1178 246.723 68.5948C247.241 69.0683 248.028 69.0583 248.472 68.5734C249.397 67.5607 247.284 66.979 245.509 67.7576C244.854 68.0449 243.887 69.0007 243.358 69.8798C242.83 70.7591 241.722 71.3515 240.894 71.1948C239.083 70.8523 239.197 69.2415 241.065 68.7775C241.8 68.5949 241.299 68.5115 239.955 68.5911C238.31 68.6901 237.797 68.4231 238.388 67.7767C238.927 67.1866 238.44 66.6598 237.123 66.4108C235.223 66.0514 235.095 66.2298 236.003 67.98C236.565 69.0653 237.4 70.3987 237.857 70.942C238.314 71.4845 237.746 71.4606 236.595 70.8886C235.443 70.3166 234.422 70.2691 234.325 70.7829C234.121 71.8599 230.124 72.5298 228.053 71.8349C227.281 71.5758 225.558 70.0257 224.224 68.3914C222.4 66.1555 221.551 65.6915 220.796 66.5176C220.244 67.1216 219.976 68.0937 220.2 68.6776C220.439 69.2987 219.95 69.3335 219.024 68.7615C218.104 68.1925 216.707 68.2825 215.69 68.9757C213.683 70.3445 212.03 70.2783 212.302 68.8408C212.404 68.3003 212.146 67.8474 211.729 67.8347C209.71 67.7735 208.67 67.015 209.15 65.9548C209.443 65.311 209.434 65.0793 209.131 65.4424C208.828 65.8052 208.048 66.0007 207.396 65.8775C206.746 65.7545 205.967 66.577 205.664 67.7054C205.135 69.6765 205.181 69.6954 206.827 68.1797C208.373 66.7563 208.435 66.9796 207.46 70.4693C206.867 72.5961 206.274 74.6538 206.144 75.0423C206.014 75.431 204.075 75.6973 201.835 75.6341C199.596 75.5699 197.448 75.8639 197.062 76.2864C196.676 76.7081 195.997 76.722 195.552 76.3154C195.108 75.9097 194.651 76.0717 194.537 76.676C194.422 77.2802 193.946 77.4253 193.479 76.9981C193.012 76.5707 191.614 76.5405 190.374 76.9299C188.689 77.459 187.816 77.2746 186.929 76.2009C185.962 75.0319 185.669 75.1322 185.366 76.7338C184.933 79.0233 180.721 79.7562 179.895 77.6847C179.602 76.9515 179.284 76.7356 179.186 77.2046C179.089 77.6748 178.45 77.3839 177.767 76.5576C176.909 75.52 176.46 75.3965 176.315 76.159C176.201 76.7652 176.549 77.345 177.09 77.4472C177.63 77.5494 177.98 78.1224 177.866 78.7208C177.753 79.3192 177.025 79.4154 176.246 78.9345C175.435 78.434 175.01 78.5246 175.249 79.1458C175.478 79.7427 175.08 80.157 174.365 80.0655C173.364 79.9383 173.326 80.0675 174.198 80.6273C174.823 81.0283 175.116 82.3072 174.852 83.4694C174.589 84.6327 174.261 85.046 174.126 84.3874C173.98 83.68 172.474 84.1502 170.438 85.5381C167.241 87.7181 164.99 87.6109 165.427 85.2989C165.53 84.7585 166.004 84.6731 166.481 85.1093C167.924 86.4285 167.67 84.8772 166.014 82.2539C165.157 80.8959 164.052 80.0824 163.558 80.4449C163.063 80.8063 163.175 81.4054 163.804 81.7738C164.434 82.1434 164.868 82.8767 164.768 83.4034C164.668 83.931 164.13 83.9453 163.572 83.4346C162.879 82.8019 162.662 83.0917 162.89 84.3468C163.074 85.3587 163.142 86.6182 163.042 87.1469C162.943 87.6745 163.431 87.8881 164.128 87.6209C164.896 87.3254 165.047 87.5138 164.513 88.0978C164.029 88.6281 163.031 88.6895 162.295 88.235C161.56 87.7814 160.873 87.8551 160.77 88.4004C160.463 90.0246 154.674 90.5125 153.644 89.0018C152.996 88.0518 152.694 88.0526 152.514 89.0037C152.326 89.9962 151.998 89.9779 151.127 88.9236C150.226 87.8341 149.778 87.9816 149 89.6245C148.456 90.7685 147.793 91.3829 147.524 90.9881C147.256 90.5944 147.993 89.0484 149.163 87.5538C151.023 85.178 151.09 84.8721 149.698 85.1248C148.231 85.3909 147.482 86.4614 147.424 88.375C147.411 88.7929 146.932 89.0452 146.36 88.937C145.788 88.8289 145.482 89.1628 145.68 89.6797C145.879 90.1955 144.875 90.199 143.449 89.6862C141.474 88.9767 141.156 89.0591 142.112 90.0338C142.803 90.7373 142.945 91.6019 142.429 91.9531C141.914 92.3054 141.074 91.7172 140.565 90.648C139.687 88.8048 139.535 88.7811 137.683 90.1844C136.607 90.9996 135.629 92.1844 135.509 92.8172C135.389 93.45 134.849 93.8842 134.309 93.782C133.769 93.6798 133.41 93.154 133.512 92.6136C133.845 90.8558 131.744 91.2075 131.373 92.9724C131.099 94.2801 130.791 94.0407 130.073 91.9632C129.165 89.3336 129.119 89.3137 128.691 91.3873C128.164 93.947 126.276 94.8498 123.407 93.9144C122.252 93.5373 120.168 93.6612 118.775 94.1894C117.38 94.7175 114.822 94.7742 113.09 94.3163C111.263 93.8324 109.846 93.9491 109.715 94.5929C109.59 95.2034 109.186 94.9589 108.815 94.0493C108.445 93.1396 108.056 92.8106 107.951 93.3169C107.847 93.8244 107.249 93.2533 106.622 92.0478C105.509 89.9087 105.48 89.9022 105.399 91.789C105.332 93.3183 104.349 93.7766 100.686 93.9845C98.1395 94.1288 94.5632 93.6662 92.7383 92.9567C90.9133 92.2472 89.9844 91.7133 90.6728 91.7702C92.6291 91.9306 92.4713 90.1492 90.5106 89.9372C89.5502 89.8329 88.9871 89.2053 89.2573 88.5409C89.5284 87.8767 89.1304 86.9517 88.3741 86.484C86.5724 85.3718 86.9045 83.7991 88.8628 84.1695C89.7048 84.3287 90.2228 84.0115 90.0129 83.464C89.8018 82.9172 90.4716 82.8678 91.4999 83.3554C92.5627 83.8597 93.4603 83.7576 93.5809 83.1199C93.8414 81.7424 98.9752 80.5883 101.378 81.3674C102.346 81.6817 104.133 81.3307 105.348 80.5876C106.564 79.8445 107.792 79.5792 108.078 79.9984C108.364 80.4169 109.296 80.3724 110.15 79.8998C111.005 79.4264 111.922 79.3598 112.189 79.7522C112.456 80.1436 113.947 79.8028 115.501 78.9945C118.179 77.6018 118.378 77.6271 119.275 79.4872C120.058 81.1131 120.485 81.2691 121.761 80.3961C122.607 79.8163 122.831 79.4007 122.258 79.4724C121.685 79.5432 121.3 79.1598 121.402 78.6194C121.504 78.079 122.129 77.8024 122.79 78.0057C123.452 78.2082 124.067 77.9815 124.158 77.501C124.403 76.2011 129.677 77.4509 130.781 79.0703C131.525 80.1604 131.79 80.1972 131.971 79.2353C132.1 78.5553 132.596 78.355 133.073 78.7913C133.55 79.2275 134.029 79.1157 134.138 78.5438C134.246 77.9719 133.783 77.3968 133.107 77.266C132.433 77.1354 133.361 76.4641 135.17 75.7744C136.98 75.0857 138.629 74.9244 138.836 75.4175C139.4 76.7627 143.742 76.1896 144.018 74.7334C144.177 73.8923 145.532 73.7628 148.063 74.3454C150.157 74.8279 151.597 75.5216 151.264 75.8869C150.93 76.2533 150.294 76.2205 149.85 75.8139C149.405 75.4082 148.953 75.5446 148.845 76.1165C148.412 78.4078 151.873 77.5735 153.436 75.0094C155.012 72.4282 156.738 71.9882 160.434 73.2267C161.145 73.465 161.536 73.1634 161.303 72.5554C161.069 71.9485 161.665 71.5828 162.626 71.7431C166.565 72.4016 169.139 72.1618 170.163 71.0426C171.073 70.0473 171.48 70.1356 172.716 71.5967C173.635 72.6844 173.997 72.823 173.681 71.9685C173.403 71.2167 173.54 70.6349 173.985 70.6753C174.43 70.7167 175.594 70.7487 176.572 70.7473C177.549 70.7449 178.551 71.2692 178.799 71.9125C179.063 72.6016 178.836 72.7052 178.246 72.1652C177.659 71.6296 177.129 71.8592 176.966 72.7209C176.801 73.5915 177.51 74.2844 178.706 74.4178C179.815 74.5421 180.622 74.0851 180.497 73.4021C180.225 71.9034 184.574 69.0294 187.131 69.0164C188.835 69.0079 188.879 68.8472 187.741 66.74C187.068 65.4932 186.657 64.9882 186.828 65.618C187.001 66.2469 185.694 67.2851 183.924 67.9244C182.155 68.5637 180.79 68.6416 180.893 68.0972C180.996 67.5529 181.932 66.8231 182.973 66.4744C185.248 65.712 184.887 64.9923 181.684 63.9134C179.624 63.2184 177.147 60.9953 177.335 60.0101C177.515 59.0712 182.331 60.5234 182.177 61.4704C182.077 62.0916 182.591 61.911 183.321 61.07C184.911 59.2374 186.618 59.3498 186.257 61.2619C186.115 62.0145 186.672 63.046 187.493 63.5546C188.691 64.294 188.814 64.1615 188.11 62.8917C187.627 62.0187 187.636 60.6494 188.13 59.8493C189.337 57.8956 194.382 59.4939 195.692 62.2442C196.598 64.1488 196.681 64.0902 196.676 61.5408C196.671 59.6368 197.1 58.8051 198.034 58.9022C202.955 59.4146 205.266 59.3459 206.52 58.6508C207.307 58.2154 208.178 58.192 208.457 58.5988C208.734 59.0063 209.657 58.9531 210.509 58.4821C211.36 58.0101 214.706 57.9395 217.943 58.3237C221.178 58.7087 225.662 58.6123 227.905 58.1093C230.405 57.549 232.362 57.6169 232.96 58.2848C233.782 59.2003 235.776 59.6538 240.681 60.0421C241.094 60.0754 241.506 59.7207 241.593 59.2559C241.682 58.7902 240.507 58.3371 238.985 58.2497C236.27 58.0924 236.277 58.0815 239.352 57.6525C241.077 57.4128 243.3 57.5839 244.293 58.0332C245.308 58.4939 246.745 58.2446 247.579 57.463C248.91 56.2165 249.09 56.3148 249.346 58.425C249.615 60.659 249.712 60.6998 251.322 59.2435C252.325 58.3361 252.933 58.215 252.814 58.9467C252.45 61.1869 254.569 60.6006 255 58.3422C255.353 56.4855 255.973 56.2242 258.871 56.7081C260.768 57.0251 262.245 57.7624 262.15 58.3461C262.057 58.9299 262.562 58.7383 263.272 57.9211C264.23 56.8178 265.452 56.7223 268.003 57.5518C270.637 58.4072 271.381 58.3321 271.181 57.2276C270.833 55.3128 281.795 54.7795 283.07 56.6489C283.665 57.5217 284.418 57.4678 285.618 56.4642C286.555 55.6816 286.962 55.5134 286.522 56.0917C286.082 56.669 286.119 57.5044 286.604 57.9483C287.089 58.3911 287.616 58.0644 287.776 57.2223C288.057 55.7366 288.619 55.7209 296.983 56.9669C298.344 57.1703 299.947 57.1742 300.544 56.9757C301.141 56.7772 303.14 56.7716 304.987 56.963C307.547 57.2294 308.109 57.5913 307.357 58.487Z" fill="black"/>
<path d="M166.932 60.6746C169.028 61.1828 171.638 61.1718 172.734 60.6494C175.166 59.491 176.386 59.6434 176.116 61.0711C176.004 61.6596 176.569 63.0264 177.37 64.1071C178.173 65.188 178.328 65.5776 177.715 64.9743C176.13 63.4084 176.154 64.5995 177.755 66.949C179.034 68.8233 178.988 68.8717 176.962 67.7801C175.573 67.0321 174.964 67.0197 175.243 67.7461C175.645 68.7941 172.029 69.3132 166.865 68.9472C165.691 68.8646 163.686 69.1245 162.41 69.5264C159.681 70.3833 157.918 69.1654 159.106 67.2426C159.622 66.406 159.44 65.9747 158.626 66.1097C157.903 66.2305 157.324 66.817 157.339 67.4133C157.354 68.0106 156.504 68.267 155.45 67.9843C154.395 67.7013 153.598 67.1252 153.678 66.7027C153.758 66.2802 152.234 65.888 150.289 65.8307C147.213 65.7404 146.873 65.5114 147.668 64.0568C148.422 62.6778 148.351 62.6085 147.269 63.6576C146.243 64.6503 145.747 64.6196 144.994 63.5143C143.689 61.6004 147.122 60.9155 148.665 62.7829C149.876 64.2453 155.291 63.4366 155.626 61.7442C155.726 61.236 156.248 61.7428 156.784 62.869C157.684 64.7592 157.832 64.7985 158.712 63.3752C159.377 62.2999 159.255 61.9849 158.31 62.3343C157.401 62.6702 157.498 62.3741 158.606 61.4366C159.515 60.6671 160.578 60.3298 160.967 60.6864C161.358 61.0431 162.003 60.9789 162.401 60.5433C162.799 60.1076 164.838 60.1676 166.932 60.6746Z" fill="black"/>
<path d="M216.612 73.0317C216.041 72.2622 215.972 70.9891 216.457 70.2036C216.943 69.4182 217.6 68.825 217.92 68.8854C218.238 68.9456 218.187 69.337 217.805 69.7543C217.424 70.1717 218.209 70.7211 219.55 70.9747C220.891 71.2284 222.062 71.0488 222.151 70.5762C222.241 70.1036 222.977 69.8419 223.788 69.9952C224.598 70.1485 225.227 70.4587 225.184 70.6847C225.141 70.9107 225.252 71.9015 225.431 72.8859C225.709 74.4193 225.491 74.4616 223.903 73.182C222.397 71.9681 221.813 71.9697 220.792 73.1901C219.681 74.5168 219.361 74.4868 218.047 72.9325C216.739 71.3845 216.625 71.369 217.105 72.8022C217.534 74.0874 217.43 74.136 216.612 73.0317Z" fill="black"/>
<path d="M209.146 73.7141C208.682 74.1027 208.537 73.5481 208.823 72.4807C209.151 71.2603 209.81 70.8284 210.6 71.3167C211.292 71.7437 211.437 72.2981 210.923 72.5501C210.408 72.8008 209.609 73.3244 209.146 73.7141Z" fill="black"/>
<path d="M139.567 64.6833C139.242 64.2036 139.626 63.2746 140.418 62.6195C141.604 61.6388 141.91 61.6793 142.146 62.8526C142.304 63.6366 143.096 64.4032 143.907 64.5565C144.718 64.7099 145.232 65.3801 145.05 66.0449C144.868 66.7107 144.526 67.9201 144.288 68.732C143.579 71.1575 139.376 71.3712 137.472 69.0784C135.936 67.2288 135.892 67.2257 136.808 69.0242C137.858 71.0841 136.777 71.4008 130.349 70.922C128.892 70.8123 126.93 71.1506 125.989 71.6718C125.048 72.193 123.916 72.4623 123.473 72.2697C123.031 72.0782 121.825 72.1138 120.793 72.3502C119.658 72.6107 118.367 72.1294 117.521 71.1298C116.753 70.2223 116.333 70.0473 116.589 70.7409C116.874 71.5153 115.842 72.1822 113.913 72.4717C112.185 72.7301 110.82 72.6887 110.878 72.3811C110.936 72.0726 110.223 72.2421 109.293 72.7563C108.363 73.2714 106.982 73.3104 106.224 72.8414C105.466 72.3733 104.759 72.4443 104.654 72.9995C104.549 73.5556 104.135 73.7103 103.735 73.3437C103.334 72.9778 100.485 72.9141 97.4011 73.2031C94.3179 73.4912 89.9425 73.8372 87.6779 73.9727C85.4134 74.1073 81.5688 74.5139 79.135 74.877C76.7001 75.2398 74.3092 75.1714 73.8207 74.7248C73.3322 74.2782 72.8475 74.3606 72.7438 74.9089C72.4253 76.593 65.3021 76.1252 64.6075 74.3736C64.1333 73.1787 63.9286 73.2326 63.6526 74.6276C63.4598 75.6038 62.9442 76.0762 62.5077 75.6771C62.0713 75.2781 61.3551 75.4592 60.9153 76.0792C60.4754 76.6993 60.5648 76.2317 61.1136 75.041C62.034 73.0422 61.9334 72.9448 59.8053 73.7738C58.5364 74.2676 57.607 75.2652 57.7383 75.9913C57.8778 76.7606 57.205 77.1646 56.1251 76.9604C55.1062 76.7677 54.1544 76.0158 54.0091 75.2881C53.8522 74.4982 53.5837 74.653 53.3434 75.671C53.1223 76.6083 52.6213 77.2443 52.2325 77.0832C51.8436 76.9221 49.8448 77.1965 47.7919 77.6927C45.5791 78.2268 43.9923 78.1739 43.8945 77.5611C43.8046 76.9925 42.7663 77.1167 41.588 77.8363C40.2796 78.6361 38.5147 78.7776 37.0514 78.2006C35.7351 77.681 34.0904 77.7241 33.3988 78.2976C32.7064 78.8699 31.2493 78.9159 30.1603 78.3996C28.8088 77.7593 28.3352 77.8641 28.6689 78.7312C28.9893 79.5663 28.1991 79.8809 26.3644 79.6479C22.1244 79.1107 20.7032 79.0698 18.966 79.4354C18.0916 79.6191 15.3639 79.5124 12.9043 79.1989C10.4192 78.8805 7.4653 79.2165 6.2543 79.9533C4.63347 80.9413 3.65736 80.9419 2.43675 79.9589C0.704839 78.5638 0.495937 76.6171 2.11032 76.9224C2.636 77.0218 3.70943 75.7369 4.49663 74.0661C5.28382 72.3953 6.34984 71.0693 6.86461 71.1188C7.37956 71.1673 8.57282 71.0256 9.51581 70.8019C10.4596 70.5794 12.3285 70.4861 13.6688 70.594C15.01 70.7021 16.5803 70.6103 17.1574 70.3897C17.7354 70.1693 20.6984 70.1405 23.7419 70.3262C26.7854 70.512 30.1271 70.396 31.1691 70.0689C32.4653 69.6617 32.9947 69.833 32.8475 70.6112C32.6851 71.47 33.0236 71.532 34.2274 70.8651C36.2486 69.7462 41.534 69.2111 47.058 69.5678C50.1487 69.7676 51.6978 70.3536 52.5877 71.6588C53.2672 72.6564 54.3464 73.5637 54.9846 73.6763C55.7175 73.8047 55.8337 73.5448 55.2998 72.9726C54.8344 72.4734 54.4706 71.2658 54.4901 70.2904C54.5183 68.931 55.2112 68.6458 57.4594 69.071C59.0728 69.3761 60.7492 69.2351 61.1855 68.7579C61.6218 68.2807 62.8884 68.0622 64.0007 68.2726C65.5385 68.5634 65.81 69.1023 65.1363 70.5228C64.6499 71.5503 64.3942 72.4179 64.5701 72.4512C65.8091 72.6855 68.2544 71.7404 68.3999 70.9711C68.4973 70.4562 68.0357 70.2438 67.3741 70.4972C66.6267 70.7844 66.4363 70.2893 66.8722 69.1902C67.2566 68.2177 68.2293 67.5457 69.0331 67.6977C69.8359 67.8496 71.0319 67.5475 71.6901 67.0268C72.8033 66.1453 85.081 65.1128 89.0127 65.5694C89.9715 65.6815 90.821 65.4249 90.9013 65.0004C90.9816 64.576 92.1243 64.4318 93.44 64.6806C94.7557 64.9294 97.0965 64.9081 98.6416 64.6324C101.61 64.1037 110.697 63.6424 121.724 63.4613C125.374 63.4015 129.934 63.0885 131.858 62.7643C134.607 62.3021 135.87 62.5379 137.756 63.8655C139.076 64.795 139.89 65.1627 139.567 64.6833Z" fill="black"/>
<path d="M145.699 69.8812C146.433 69.7035 147.151 68.9315 147.295 68.166C147.44 67.4006 148.033 66.8635 148.613 66.9731C150.513 67.3325 148.415 70.4682 146.365 70.335C145.265 70.2633 144.966 70.0591 145.699 69.8812Z" fill="black"/>
<path d="M180.26 82.5827C179.698 82.7991 179.046 82.4733 178.81 81.8597C178.574 81.2463 179.071 80.8752 179.913 81.0344C181.639 81.3609 181.782 81.9984 180.26 82.5827Z" fill="black"/>
<path d="M137.57 92.3633C136.998 92.2552 136.887 91.7761 137.323 91.2988C137.759 90.8216 138.311 90.4679 138.549 90.513C138.788 90.5582 138.899 91.0371 138.797 91.5776C138.695 92.118 138.142 92.4715 137.57 92.3633Z" fill="black"/>
<path d="M1.1983 75.2874C0.636484 75.6697 1.10598 73.6935 1.96339 72.0604C2.03129 71.9328 2.2673 71.8635 2.49035 71.9056C3.07793 72.0168 2.05026 74.7056 1.1983 75.2874Z" fill="black"/>
</svg>
