<svg width="60" height="24" viewBox="0 0 60 24" fill="none" xmlns="http://www.w3.org/2000/svg">
<path fill-rule="evenodd" clip-rule="evenodd" d="M44 23.4719C45.1164 23.8151 46.3023 23.9999 47.5313 23.9999C54.1587 23.9999 59.5312 18.6273 59.5312 12C59.5312 5.37256 54.1587 5.79385e-07 47.5313 0C46.3023 -1.07444e-07 45.1164 0.184758 44 0.528015L44 23.4719Z" fill="#4C5BFF"/>
<path fill-rule="evenodd" clip-rule="evenodd" d="M15.5312 23.4719C14.4148 23.8151 13.229 23.9999 12 23.9999C5.37256 23.9999 1.90735e-06 18.6273 9.53674e-07 12C0 5.37256 5.37256 5.79385e-07 11.9999 0C13.229 -1.07444e-07 14.4148 0.184758 15.5312 0.528015L15.5312 23.4719Z" fill="#4C5BFF"/>
<path fill-rule="evenodd" clip-rule="evenodd" d="M29 0.0407715C22.8405 0.548922 18 5.70903 18 11.9997C18 18.2904 22.8405 23.4505 29 23.9586L29 0.0407715ZM31 23.9586C37.1595 23.4505 42 18.2904 42 11.9997C42 5.70903 37.1595 0.548922 31 0.0407715L31 23.9586Z" fill="#4C5BFF"/>
</svg>
