<svg width="401" height="158" viewBox="0 0 401 158" fill="#000000" xmlns="http://www.w3.org/2000/svg">
<path d="M289.861 1.46289C292.047 1.78889 293.949 1.58991 294.316 0.995915C295.131 -0.324085 296.539 -0.333105 297.348 0.975895C297.694 1.5349 298.357 1.75691 298.823 1.46891C299.289 1.18091 300.803 1.3759 302.187 1.9029C303.977 2.5829 304.869 2.51292 305.271 1.65992C305.699 0.752916 305.984 0.775896 306.435 1.7519C306.847 2.6409 307.41 2.7299 308.245 2.0369C309.025 1.3899 310.506 1.36291 312.398 1.96091L315.338 2.89191L311.838 2.68491C308.891 2.51091 308.366 2.79291 308.514 4.46891C308.687 6.42591 308.666 6.4269 307.274 4.5329C306.496 3.4729 305.517 2.9489 305.098 3.3689C304.68 3.7889 305.351 4.95291 306.588 5.95591C308.887 7.82091 309.587 9.9599 307.897 9.9599C307.379 9.9599 306.667 9.49192 306.313 8.91892C305.959 8.34692 304.833 8.14391 303.809 8.46891C302.529 8.87491 301.45 8.2969 300.348 6.6149C299.26 4.9549 298.12 4.33489 296.792 4.68189C295.717 4.96289 294.838 5.6169 294.838 6.1359C294.838 6.6539 294.385 6.79791 293.831 6.45591C293.277 6.11291 292.549 6.54991 292.213 7.42591C291.82 8.44891 290.927 8.80591 289.72 8.42191C288.68 8.09191 287.838 8.30292 287.838 8.89292C287.838 9.47992 286.886 9.9599 285.721 9.9599C284.097 9.9599 283.726 9.4949 284.128 7.9599C284.538 6.3909 284.158 5.9599 282.367 5.9599C281.111 5.9599 279.568 5.33991 278.939 4.58191C278.041 3.49991 278.229 3.09091 279.816 2.67591C280.927 2.38491 282.09 2.55889 282.401 3.06189C282.711 3.56389 283.659 3.28191 284.506 2.43491C285.598 1.34291 287.157 1.05989 289.861 1.46289Z" fill="black"/>
<path d="M267.386 3.5149C268.73 3.6619 270.083 3.37291 270.393 2.87091C271.247 1.48891 271.838 1.77691 271.838 3.57691C271.838 4.71591 271.231 5.03391 269.781 4.65491C268.518 4.32491 267.868 4.54889 268.096 5.23389C268.301 5.84789 269.676 6.67391 271.153 7.06891C273.811 7.77991 273.988 7.6069 274.245 4.0419C274.414 1.6809 276.838 1.58192 276.838 3.93592C276.838 5.11392 277.288 5.7999 277.838 5.4599C278.388 5.1199 278.838 5.31891 278.838 5.90091C278.838 6.48291 279.828 6.9599 281.038 6.9599C282.735 6.9599 282.967 7.23091 282.052 8.14591C280.608 9.58991 276.838 10.2769 276.838 9.0969C276.838 8.6299 275.489 8.29492 273.84 8.35392C272.192 8.41192 270.842 8.7449 270.84 9.0929C270.836 10.2579 266.849 10.7869 266.184 9.71192C265.799 9.08792 266.005 8.9449 266.683 9.3649C268.368 10.4059 268.095 9.41791 266.282 7.91291C265.003 6.85191 264.78 6.8609 265.032 7.96289C265.221 8.7929 264.386 9.33589 262.838 9.38889C261.463 9.43589 259.754 9.84791 259.04 10.3059C257.384 11.3659 254.833 10.4129 254.853 8.74091C254.864 7.84491 255.16 7.9109 255.838 8.9599C256.542 10.0499 256.812 10.1019 256.823 9.15091C256.832 8.37091 257.343 8.1459 258.088 8.5929C259.025 9.1559 259.013 8.94291 258.039 7.74091C256.376 5.68691 258.291 4.26091 260.382 5.99591C261.486 6.91291 261.838 6.91989 261.838 6.02289C261.838 5.37389 262.291 5.1219 262.845 5.4639C263.399 5.8069 264.097 5.44791 264.397 4.6669C264.708 3.8569 265.993 3.3619 267.386 3.5149Z" fill="black"/>
<path d="M324.429 4.33789C324.18 3.68789 324.259 2.87191 324.605 2.52591C325.18 1.95091 333.872 2.80892 334.688 3.52192C335.796 4.48792 333.355 5.87691 331.408 5.38791C329.514 4.91291 329.011 5.27292 328.606 7.39292C328.205 9.48892 328.37 9.76389 329.475 8.84589C330.225 8.22389 330.838 8.02691 330.838 8.40891C330.838 8.79091 331.545 8.39592 332.409 7.53092C333.274 6.66692 334.624 5.9599 335.409 5.9599C336.195 5.9599 336.838 5.5099 336.838 4.9599C336.838 3.6859 340.867 3.6859 342.838 4.9599C343.663 5.4929 343.888 5.9429 343.338 5.9599C342.788 5.9769 342.989 6.40192 343.784 6.90592C344.609 7.42692 345.921 7.4509 346.838 6.9599C349.524 5.5219 351.248 7.28789 349.886 10.0829C348.818 12.2739 348.844 12.3159 350.211 10.6169C353.482 6.55292 364.82 8.6169 364.853 13.2829C364.865 15.0149 365.059 15.1589 365.799 13.9889C367.507 11.2879 367.869 13.5899 366.247 16.8409C364.862 19.6179 364.427 19.8739 362.993 18.7539C362.083 18.0419 360.973 16.8879 360.527 16.1889C360.08 15.4899 359.298 15.1759 358.788 15.4909C358.278 15.8059 358.129 15.3659 358.456 14.5119C358.784 13.6579 358.554 12.9599 357.945 12.9599C357.336 12.9599 356.838 12.2849 356.838 11.4599C356.838 10.6349 356.399 9.9599 355.863 9.9599C355.232 9.9599 355.228 10.8559 355.852 12.4959C357.389 16.5389 354.702 16.7089 339.838 13.5059C338.463 13.2099 335.876 12.6909 334.088 12.3529C332.3 12.0139 330.838 11.3069 330.838 10.7809C330.838 10.2549 329.976 10.0989 328.922 10.4329C327.868 10.7679 326.746 10.6199 326.427 10.1049C326.109 9.58989 324.384 9.47291 322.593 9.84491C318.197 10.7589 314.838 10.1289 314.838 8.3899C314.838 6.7489 313.255 6.4759 312.338 7.9599C311.23 9.7529 309.943 9.01189 310.364 6.82489C310.829 4.40989 311.838 3.01891 311.838 4.79291C311.838 5.43491 312.949 5.9599 314.307 5.9599C316.09 5.9599 316.615 5.5439 316.2 4.4599C315.846 3.5379 316.202 2.9599 317.124 2.9599C317.949 2.9599 318.882 3.63091 319.196 4.45191C319.532 5.32591 320.827 5.85591 322.326 5.73191C323.824 5.60791 324.695 5.02989 324.429 4.33789Z" fill="black"/>
<path d="M250.538 12.0339C249.724 11.9479 249.727 12.0989 250.48 9.22089C250.802 7.98989 251.444 7.2169 251.908 7.5029C252.855 8.0879 251.627 12.1489 250.538 12.0339Z" fill="black"/>
<path d="M242.838 12.9599C242.305 12.1349 241.862 11.1069 241.853 10.6749C241.845 10.2429 242.738 10.3709 243.838 10.9599C244.938 11.5489 245.838 12.2659 245.838 12.5539C245.838 12.8419 245.388 12.7999 244.838 12.4599C244.288 12.1199 243.831 12.4309 243.823 13.1509C243.812 14.1019 243.542 14.0499 242.838 12.9599Z" fill="black"/>
<path d="M369.845 14.4679C369.044 13.5029 369.098 13.0319 370.046 12.6919C371.696 12.1019 373.03 12.8399 372.338 13.9599C372.045 14.4339 372.332 15.1469 372.976 15.5449C373.707 15.9969 373.879 15.8359 373.433 15.1149C373.041 14.4799 373.197 13.9599 373.779 13.9599C375.177 13.9599 378.838 17.6569 378.838 19.0679C378.838 19.7429 379.79 19.9379 381.27 19.5659C383.108 19.1049 383.849 19.4209 384.306 20.8589C384.638 21.9049 386.006 23.0359 387.346 23.3729C390.874 24.2579 393.827 27.8699 393.908 31.3989C393.968 33.9849 394.107 34.1499 394.806 32.4599C395.539 30.6879 395.836 30.9159 397.41 34.4599C398.387 36.6599 399.082 39.4299 398.953 40.6139C398.825 41.7989 399.154 43.0369 399.685 43.3649C400.216 43.6939 400.416 44.8559 400.13 45.9499C399.845 47.0429 399.312 47.7529 398.946 47.5269C398.581 47.3009 397.17 47.9709 395.81 49.0159C393.909 50.4759 393.723 50.9209 395.005 50.9379C395.921 50.9499 396.821 50.5239 397.005 49.9919C397.188 49.4599 397.916 49.3829 398.622 49.8219C399.341 50.2689 399.62 51.3659 399.255 52.3149C398.75 53.6329 398.296 53.7549 397.221 52.8629C395.928 51.7899 395.396 52.3159 395.755 54.3149C395.839 54.7859 395.387 55.7979 394.751 56.5649C393.97 57.5049 393.943 57.9599 394.666 57.9599C395.256 57.9599 396.197 57.1719 396.758 56.2099C397.324 55.2389 397.791 55.0159 397.808 55.7099C397.862 57.9589 393.846 61.2119 392.447 60.0509C391.594 59.3429 390.863 59.3349 390.172 60.0259C389.48 60.7179 388.701 60.4879 387.746 59.3099C386.971 58.3569 386.853 57.8849 387.483 58.2619C388.113 58.6399 388.895 58.2529 389.222 57.4019C389.605 56.4029 389.411 56.1059 388.672 56.5629C387.89 57.0459 387.81 56.8249 388.418 55.8649C388.907 55.0919 389.318 54.2349 389.331 53.9599C389.428 51.9459 393.178 44.0519 393.843 44.4629C394.814 45.0629 398.188 41.9759 397.41 41.1979C397.122 40.9109 396.313 41.1039 395.612 41.6289C393.904 42.9079 391.596 42.7329 391.114 41.2889C390.866 40.5439 391.472 40.3129 392.781 40.6549C393.95 40.9609 394.838 40.7109 394.838 40.0769C394.838 39.4619 393.965 38.9599 392.897 38.9599C391.829 38.9599 390.635 38.4399 390.243 37.8049C389.763 37.0289 389.989 36.9179 390.933 37.4659C391.706 37.9139 391.988 37.8959 391.559 37.4249C391.131 36.9539 390.039 36.4599 389.134 36.3269C388.229 36.1939 387.093 35.3799 386.61 34.5169C384.754 31.1999 380.969 27.9139 377.232 26.3729C370.47 23.5859 366.658 18.4259 369.887 16.4299C370.613 15.9809 370.6 15.3779 369.845 14.4679Z" fill="black"/>
<path d="M259.597 28.3859C259.224 28.0119 259.59 26.4059 260.412 24.8159C261.677 22.3699 262.209 22.0879 263.872 22.9779C264.953 23.5569 265.838 23.7339 265.838 23.3729C265.838 23.0109 266.469 23.2389 267.241 23.8789C268.314 24.7699 268.74 24.7539 269.053 23.8139C269.359 22.8969 270.039 22.9869 271.724 24.1679C274.096 25.8289 273.162 27.4049 270.428 26.3559C269.324 25.9329 268.843 26.3139 268.853 27.6029C268.866 29.1679 269.021 29.2239 269.838 27.9599C270.52 26.9049 270.812 26.8419 270.823 27.7449C270.834 28.7199 271.321 28.7719 272.838 27.9599C275.219 26.6859 275.631 28.3099 273.474 30.4669C272.487 31.4539 271.807 31.5289 271.016 30.7379C270.225 29.9469 269.51 29.9869 268.431 30.8829C267.164 31.9339 266.969 31.6949 267.139 29.2899C267.274 27.3619 266.86 26.4519 265.838 26.4339C265.013 26.4189 263.776 26.0549 263.088 25.6249C262.401 25.1939 261.838 25.2289 261.838 25.7009C261.838 26.1729 262.401 27.1659 263.088 27.9069C264.088 28.9839 264.088 29.1119 263.088 28.5479C262.338 28.1239 261.838 28.4229 261.838 29.2939C261.838 31.0449 260.268 31.7139 256.588 31.5309C255.075 31.4559 253.838 31.8009 253.838 32.2989C253.838 32.7969 253.163 32.6449 252.338 31.9599C251.513 31.2749 250.838 29.8439 250.838 28.7789C250.838 27.7129 250.388 27.1199 249.838 27.4599C249.27 27.8109 248.838 26.9659 248.838 25.5049C248.838 23.1369 249.097 22.9829 252.088 23.5729C253.876 23.9249 256.238 24.2029 257.338 24.1889C258.438 24.1749 258.776 24.3799 258.088 24.6449C256.271 25.3449 256.557 27.6379 258.558 28.4059C259.503 28.7689 259.971 28.7599 259.597 28.3859Z" fill="black"/>
<path d="M228.088 24.2149C228.776 24.4719 230.238 24.3269 231.338 23.8919C232.438 23.4569 233.383 23.0689 233.439 23.0299C234.016 22.6279 239.838 25.3819 239.838 26.0579C239.838 26.5539 240.315 26.9599 240.897 26.9599C241.479 26.9599 241.678 26.5099 241.338 25.9599C240.998 25.4099 241.369 24.9599 242.162 24.9599C242.956 24.9599 243.93 25.9719 244.327 27.2099C244.939 29.1159 245.122 29.1919 245.517 27.7099C246.363 24.5449 247.509 25.5669 250.672 32.3089C250.892 32.7769 249.894 32.3869 248.454 31.4439C247.015 30.5009 245.838 30.1959 245.838 30.7659C245.838 32.3619 239.731 33.4039 238.838 31.9599C238.369 31.2019 237.858 31.1189 237.474 31.7399C236.804 32.8249 223.722 32.6239 221.906 31.5019C221.289 31.1209 220.85 30.2809 220.93 29.6349C221.233 27.1779 220.803 25.8639 219.882 26.4329C219.356 26.7579 219.179 27.6849 219.489 28.4919C220.248 30.4709 219.1 33.2399 217.842 32.4629C217.191 32.0599 217.169 31.2099 217.781 30.0659C218.486 28.7489 218.358 28.2929 217.284 28.2929C216.489 28.2929 215.838 29.1489 215.838 30.1939C215.838 31.6639 215.328 31.9679 213.588 31.5369C212.351 31.2299 211.901 31.2369 212.588 31.5529C214.895 32.6119 213.905 34.1939 211.338 33.5489C209.963 33.2039 208.838 33.2679 208.838 33.6909C208.838 34.1139 207.505 34.4209 205.876 34.3719C202.852 34.2829 195.891 35.1239 187.838 36.5519C181.928 37.5999 174.483 37.6919 173.778 36.7249C173.47 36.3029 172.308 36.8049 171.195 37.8419C169.651 39.2809 168.74 39.4849 167.345 38.7039C165.848 37.8659 165.631 37.9779 166.146 39.3199C166.492 40.2219 166.452 41.0169 166.057 41.0879C165.661 41.1579 164.387 41.3179 163.224 41.4449C162.061 41.5709 160.637 41.9659 160.059 42.3229C159.482 42.6799 158.829 42.4319 158.608 41.7699C158.33 40.9369 157.129 41.2349 154.685 42.7459C152.747 43.9429 150.301 45.0569 149.25 45.2209C148.198 45.3839 146.855 45.8199 146.264 46.1889C144.557 47.2559 139.733 46.4049 138.758 44.8649C138.101 43.8259 137.865 44.1129 137.853 45.9649C137.841 47.9469 137.055 48.7529 134.088 49.8229C132.026 50.5679 128.563 51.3099 126.394 51.4729C124.032 51.6499 121.927 52.4849 121.144 53.5559C120.228 54.8089 119.838 54.9299 119.838 53.9599C119.838 53.0119 119.414 53.1569 118.49 54.4219C117.748 55.4359 116.623 55.9449 115.99 55.5539C115.356 55.1619 114.838 55.3709 114.838 56.0179C114.838 56.7129 113.995 56.9729 112.777 56.6539C111.515 56.3239 110.504 56.6669 110.17 57.5379C109.87 58.3199 108.647 58.9599 107.454 58.9599C106.26 58.9599 104.283 59.6609 103.061 60.5169C101.353 61.7129 100.83 61.7709 100.805 60.7669C100.784 59.9459 100.133 60.2039 99.0549 61.4599C96.8139 64.0699 92.305 66.3669 91.002 65.5619C90.438 65.2129 89.689 65.3919 89.338 65.9599C88.987 66.5279 88.211 66.6909 87.614 66.3219C86.987 65.9339 86.815 66.1139 87.207 66.7479C87.931 67.9199 80.88 71.5469 75.938 72.5449C75.168 72.6999 74.163 73.4189 73.703 74.1439C73.244 74.8679 72.862 75.1169 72.853 74.6969C72.845 74.2779 71.113 75.0239 69.006 76.3539C64.119 79.4389 57.841 81.2789 57.831 79.6289C57.828 78.9859 57.04 79.6289 56.081 81.0579C55.123 82.4869 53.802 83.4709 53.146 83.2439C52.49 83.0179 50.52 84.2019 48.768 85.8759C45.645 88.8609 43.177 89.1239 44.238 86.3589C44.837 84.7999 44.272 84.7149 41.338 85.9249C39.419 86.7169 39.434 86.7869 41.733 87.6809C43.94 88.5379 43.996 88.7229 42.448 90.0359C41.524 90.8189 40.062 92.1009 39.199 92.8859C37.927 94.0409 37.255 94.0769 35.646 93.0719C33.885 91.9729 33.733 92.0539 34.286 93.7959C34.77 95.3199 33.793 96.6179 29.916 99.6089C27.17 101.727 24.904 103.838 24.881 104.299C24.857 104.761 22.926 107.083 20.588 109.459C16.044 114.078 15.532 114.689 11.984 119.722C10.616 121.663 9.20998 122.699 8.51198 122.28C7.63398 121.754 7.61898 121.94 8.45198 123.018C9.73398 124.679 9.89398 127.96 8.69298 127.96C7.27498 127.96 10.083 133.352 13.015 136.261C14.568 137.801 15.838 138.783 15.838 138.443C15.838 138.102 17.126 138.741 18.701 139.862C20.275 140.984 21.85 141.614 22.201 141.264C22.551 140.913 22.89 141.714 22.954 143.043C23.034 144.71 23.211 144.922 23.524 143.727C24.001 141.906 25.532 141.912 30.006 143.751C31.473 144.354 33.498 144.843 34.506 144.837C35.514 144.831 37.463 145.054 38.838 145.332C40.213 145.611 43.138 146.105 45.338 146.431C47.538 146.757 50.688 147.357 52.338 147.764C53.988 148.172 59.486 148.449 64.556 148.38C69.626 148.311 73.607 148.526 73.402 148.857C73.197 149.189 76.249 149.43 80.184 149.392C84.119 149.355 88.35 149.682 89.588 150.118C90.947 150.597 91.838 150.516 91.838 149.913C91.838 149.302 94.836 149.071 99.588 149.316C105.871 149.64 107.402 150.036 107.675 151.409C107.883 152.455 107.215 153.31 105.925 153.648C104.777 153.948 103.838 154.483 103.838 154.836C103.838 156.535 99.878 157.758 96.7 157.042C94.827 156.619 92.404 156.588 91.316 156.972C89.957 157.451 88.269 156.856 85.921 155.069C82.743 152.65 82.586 152.621 83.671 154.648C84.313 155.847 84.838 157.033 84.838 157.282C84.838 158.287 77.404 157.158 77.051 156.1C76.842 155.473 75.986 154.96 75.148 154.96C74.204 154.96 73.843 155.531 74.2 156.46C74.614 157.54 74.094 157.96 72.338 157.96C70.431 157.96 70.045 157.579 70.563 156.21C71.192 154.551 71.134 154.551 69.451 156.219C68.475 157.187 67.248 157.713 66.724 157.389C66.2 157.066 63.424 156.644 60.555 156.454C57.685 156.263 55.001 156.073 54.588 156.033C54.175 155.993 53.838 155.34 53.838 154.582C53.838 152.446 51.192 150.579 50.273 152.066C49.801 152.829 49.952 153.008 50.683 152.555C51.403 152.111 51.838 152.565 51.838 153.761C51.838 155.429 51.231 155.633 47.199 155.321C44.647 155.123 42.06 154.377 41.449 153.662C40.838 152.947 39.438 151.709 38.338 150.911C36.49 149.57 36.442 149.593 37.71 151.21C38.942 152.781 38.814 152.96 36.46 152.96C35.018 152.96 33.838 152.51 33.838 151.96C33.838 151.41 34.363 150.96 35.005 150.96C35.646 150.96 35.835 150.623 35.423 150.212C35.011 149.8 34.132 150.205 33.469 151.111C32.417 152.551 31.665 152.607 27.522 151.555C24.914 150.893 23.117 150.014 23.529 149.603C23.94 149.191 23.476 149.162 22.498 149.537C21.203 150.034 20.568 149.642 20.165 148.101C19.86 146.936 19.192 146.241 18.681 146.557C18.169 146.874 17.128 146.616 16.368 145.985C15.608 145.354 14.39 144.954 13.662 145.095C11.942 145.429 7.83797 144.033 7.83797 143.113C7.83797 142.722 6.27696 140.794 4.36796 138.83C0.365964 134.709 -1.52605 126.96 1.46995 126.96C2.85895 126.96 2.89197 126.725 1.70997 125.268C0.777975 124.118 0.738965 123.817 1.58797 124.327C2.27597 124.74 2.83797 124.601 2.83797 124.019C2.83797 123.437 2.42996 122.96 1.93196 122.96C0.66396 122.96 1.76297 119.267 3.44597 117.87C4.55097 116.954 4.84098 117.102 4.85298 118.588C4.86598 120.078 5.05096 120.172 5.76396 119.045C6.25696 118.267 6.48295 116.714 6.26695 115.593C6.05095 114.472 6.42897 113.213 7.10597 112.794C7.78397 112.375 8.33898 111.679 8.33998 111.246C8.34098 110.814 9.69098 108.541 11.34 106.195C13.424 103.231 14.889 102.063 16.145 102.366C17.484 102.689 17.688 102.484 16.931 101.573C15.559 99.9189 19.404 96.5809 21.682 97.4479C22.978 97.9409 23.076 97.8139 22.132 96.8629C21.188 95.9119 21.624 95.0299 24.132 92.8139C25.895 91.2559 27.895 90.1849 28.576 90.4349C29.257 90.6839 29.707 90.5019 29.576 90.0299C29.18 88.6039 35.189 83.9099 35.912 85.0799C36.27 85.6599 36.82 85.1369 37.14 83.9119C37.571 82.2649 38.249 81.8339 39.78 82.2349C40.914 82.5309 41.601 82.3849 41.308 81.9109C40.469 80.5539 45.617 77.6609 47.55 78.4029C48.5 78.7669 48.961 78.7499 48.576 78.3639C48.19 77.9789 48.846 76.8199 50.034 75.7899C51.41 74.5959 52.542 74.2639 53.152 74.8739C53.762 75.4839 54.648 75.2929 55.593 74.3479C56.409 73.5319 57.347 73.1359 57.678 73.4669C58.009 73.7979 57.618 74.4869 56.809 74.9989C55.575 75.7789 55.62 75.9319 57.088 75.9449C58.193 75.9539 58.838 75.2009 58.838 73.9009C58.838 72.7689 59.283 72.1169 59.827 72.4529C60.415 72.8159 60.547 72.3649 60.153 71.3379C59.653 70.0359 59.885 69.7639 61.101 70.2309C61.986 70.5699 63.752 70.0379 65.024 69.0469C66.297 68.0559 68.126 67.3669 69.088 67.5139C70.05 67.6619 70.838 67.1999 70.838 66.4879C70.838 65.7759 71.783 64.9459 72.937 64.6439C74.637 64.1999 74.939 64.4649 74.527 66.0409C74.184 67.3539 74.72 68.3469 76.178 69.0949C77.958 70.0089 78.118 69.9719 77.088 68.8819C76.401 68.1549 75.852 66.6379 75.87 65.5099C75.902 63.4639 75.905 63.4639 77.473 65.4599C79.027 67.4369 79.038 67.4359 78.4 65.2929C77.857 63.4659 78.083 63.2109 79.837 63.6699C80.981 63.9689 81.702 64.4299 81.438 64.6939C80.59 65.5409 83.283 67.7259 84.568 67.2329C85.404 66.9119 85.08 66.1579 83.574 64.9209C81.76 63.4319 81.548 62.7429 82.449 61.2729C83.096 60.2169 84.733 59.4599 86.366 59.4599C87.908 59.4599 89.375 58.8469 89.625 58.0969C90.009 56.9459 90.215 56.9459 90.944 58.0969C91.564 59.0759 91.812 59.1119 91.823 58.2229C91.831 57.5419 93.623 55.8579 95.805 54.4809C99.794 51.9629 104.61 51.4689 106.175 53.4179C106.658 54.0199 106.803 53.5099 106.518 52.2099C106.247 50.9719 106.396 49.9599 106.85 49.9599C107.303 49.9599 108.46 49.6589 109.42 49.2899C110.524 48.8659 110.926 49.0089 110.513 49.6769C110.154 50.2579 110.53 51.2889 111.349 51.9689C112.168 52.6489 112.872 53.0369 112.915 52.8319C112.957 52.6279 113.149 51.6249 113.341 50.6049C113.935 47.4619 123.458 42.2929 126.562 43.4289C127.235 43.6749 128.204 43.1289 128.716 42.2139C129.492 40.8269 130.068 40.7439 132.194 41.7119C134.431 42.7319 134.669 42.6649 134.143 41.1669C133.654 39.7749 133.793 39.6909 134.891 40.7099C135.632 41.3979 136.823 41.9599 137.538 41.9599C138.253 41.9599 138.725 41.3979 138.588 40.7099C138.45 40.0229 138.901 39.5719 139.588 39.7099C140.276 39.8469 140.838 39.5419 140.838 39.0319C140.838 38.5209 143.35 37.5409 146.419 36.8539C151.135 35.7989 152.141 35.8269 152.904 37.0329C153.681 38.2599 154.189 37.7589 154.028 35.9239C154.002 35.6299 154.849 35.3889 155.909 35.3889C156.97 35.3889 157.838 35.9669 157.838 36.6739C157.838 37.3809 158.288 37.9599 158.838 37.9599C159.388 37.9599 159.838 37.2369 159.838 36.3529C159.838 35.3609 160.392 34.9589 161.287 35.3019C162.163 35.6379 162.98 35.0879 163.354 33.9089C164.217 31.1889 165.774 31.4579 165.099 34.2099C164.607 36.2129 164.802 36.1429 166.879 33.5659C169.023 30.9029 169.27 30.8229 169.954 32.5659C170.556 34.0979 170.711 34.1459 170.768 32.8169C170.858 30.6969 173.931 29.5029 174.993 31.1759C175.648 32.2089 175.81 32.2109 175.823 31.1849C175.849 28.9759 180.178 28.0289 197.338 26.4799C198.988 26.3309 200.769 26.4629 201.296 26.7719C202.91 27.7199 207.497 27.9859 205.971 27.0419C204.025 25.8389 205.913 24.9819 210.941 24.7849C213.462 24.6859 215.384 25.0989 215.614 25.7889C216.16 27.4269 218.838 27.2579 218.838 25.5849C218.838 23.1499 224.126 23.9929 226.675 26.8349C228.637 29.0229 228.847 29.0959 227.934 27.2759C226.51 24.4369 226.55 23.6379 228.088 24.2149Z" fill="black"/>
<path d="M265.838 29.9599C265.288 29.9599 264.838 29.2579 264.838 28.4009C264.838 27.5439 265.288 27.1199 265.838 27.4599C266.388 27.7999 266.838 28.5009 266.838 29.0189C266.838 29.5369 266.388 29.9599 265.838 29.9599Z" fill="black"/>
<path d="M385.353 62.9849C385.005 62.4209 385.012 61.4879 385.368 60.9109C385.811 60.1949 386.462 60.2329 387.427 61.0339C388.505 61.9289 389.171 61.9289 390.249 61.0339C391.23 60.2199 391.86 60.1869 392.318 60.9279C392.68 61.5129 393.395 61.7339 393.907 61.4169C395.23 60.5989 395.064 61.6219 393.328 64.9799C391.373 68.7589 388.051 70.6779 387.218 68.5089C386.894 67.6629 386.273 67.1909 385.838 67.4599C385.403 67.7289 384.833 67.3889 384.57 66.7039C383.891 64.9339 384.195 63.4119 385.162 63.7349C385.616 63.8859 385.702 63.5479 385.353 62.9849Z" fill="black"/>
<path d="M380.549 70.5389C378.903 69.2909 378.889 69.0519 380.37 67.5709C381.256 66.6849 382.399 65.9599 382.909 65.9599C384.279 65.9599 384.038 67.7129 382.588 68.2979C381.841 68.5989 382.043 68.8339 383.088 68.8809C384.896 68.9629 385.617 70.9599 383.838 70.9599C383.288 70.9599 382.838 71.7909 382.838 72.8069C382.838 77.2139 375.87 81.0909 374.476 77.4599C374.046 76.3379 374.635 75.9599 376.81 75.9599C378.411 75.9599 380.016 75.4809 380.377 74.8959C380.823 74.1759 379.874 74.0499 377.436 74.5079C375.059 74.9539 373.838 74.8059 373.838 74.0709C373.838 73.4599 374.401 72.9079 375.088 72.8449C375.776 72.7809 376.788 72.6249 377.338 72.4969C377.888 72.3689 379.238 72.1819 380.338 72.0809C382.237 71.9059 382.248 71.8279 380.549 70.5389Z" fill="black"/>
<path d="M367.688 78.8149C368.431 78.9679 368.785 78.6839 368.476 78.1829C368.167 77.6829 369.134 77.3829 370.626 77.5169C374.468 77.8629 374.501 77.8849 372.838 78.9599C371.556 79.7879 371.592 79.9319 373.088 79.9449C375.001 79.9609 375.439 81.4709 373.822 82.4699C373.263 82.8159 373.04 83.4779 373.327 83.9429C373.614 84.4069 372.497 85.3859 370.844 86.1179C369.191 86.8499 367.838 87.7879 367.838 88.2039C367.838 89.8169 363.941 88.8589 363.386 87.1099C362.576 84.5589 356.338 84.6479 356.338 87.2099C356.338 88.1719 356.788 88.8479 357.338 88.7099C357.888 88.5719 358.288 87.9729 358.227 87.3769C358.166 86.7809 358.731 86.2929 359.482 86.2929C360.234 86.2929 360.734 87.0059 360.594 87.8769C360.453 88.7479 360.901 89.3479 361.588 89.2099C362.276 89.0719 362.838 89.5829 362.838 90.3429C362.838 91.9599 359.104 93.1999 358.275 91.8579C357.965 91.3559 357.033 91.6219 356.205 92.4499C355.007 93.6479 354.253 93.7209 352.519 92.8079C349.217 91.0699 347.254 87.4149 350.237 88.5599C351.006 88.8549 351.937 88.6079 352.306 88.0119C352.675 87.4149 353.363 87.1659 353.835 87.4579C354.307 87.7499 354.982 87.0829 355.333 85.9749C355.685 84.8669 356.401 83.9599 356.925 83.9599C357.449 83.9599 359.781 82.7399 362.108 81.2479C364.434 79.7569 366.946 78.6619 367.688 78.8149Z" fill="black"/>
<path d="M347.824 95.7099C347.817 95.0229 347.564 93.3349 347.262 91.9599L346.713 89.4599L348.077 91.7409C348.828 92.9959 349.854 93.6709 350.357 93.2409C350.86 92.8119 350.728 93.1759 350.064 94.0519C349.399 94.9279 349.151 95.9399 349.513 96.3019C349.875 96.6639 349.646 96.9599 349.005 96.9599C348.363 96.9599 347.832 96.3979 347.824 95.7099Z" fill="black"/>
<path d="M336.157 97.3379C336.413 98.0549 337.57 97.7219 339.365 96.4139C342.382 94.2149 346.838 93.3539 346.838 94.9709C346.838 95.5149 346.276 95.9959 345.588 96.0389C344.643 96.0989 344.656 96.2449 345.641 96.6399C346.621 97.0319 346.497 97.5279 345.141 98.6349C344.149 99.4449 343.869 99.8429 344.519 99.5179C345.168 99.1929 346.005 99.4209 346.378 100.025C346.794 100.698 346.337 101.017 345.197 100.85C342.768 100.493 338.838 101.839 338.838 103.027C338.838 103.54 338.388 103.96 337.838 103.96C337.288 103.96 336.838 103.333 336.838 102.567C336.838 101.801 336.109 100.894 335.217 100.552C333.993 100.082 333.719 100.395 334.095 101.834C334.369 102.882 334.213 104.351 333.749 105.099C332.745 106.717 329.641 106.956 328.603 105.495C328.132 104.831 327.863 104.915 327.853 105.729C327.843 106.57 327.023 106.793 325.42 106.391C323.588 105.932 322.72 106.311 321.839 107.958C321.199 109.153 320.415 109.871 320.096 109.552C319.778 109.233 320.286 108.123 321.225 107.085C322.799 105.346 322.806 105.071 321.314 103.579C320.424 102.688 320.151 101.96 320.708 101.96C321.264 101.96 322.049 102.493 322.451 103.144C322.962 103.97 323.368 103.799 323.797 102.577C324.565 100.387 335.579 95.7179 336.157 97.3379Z" fill="black"/>
<path d="M315.183 107.96C313.675 107.96 313.683 107.789 315.275 106.029C316.237 104.967 317.85 104.161 318.861 104.237C320.977 104.396 320.449 105.96 318.279 105.96C317.486 105.96 316.838 106.41 316.838 106.96C316.838 107.51 316.093 107.96 315.183 107.96Z" fill="black"/>
<path d="M307.457 109.246C307.798 109.586 308.763 109.178 309.602 108.338C310.692 107.249 311.33 107.139 311.833 107.953C312.221 108.58 313.393 109.218 314.438 109.372C316.575 109.685 316.575 110.366 314.437 112.503C312.892 114.049 311.198 112.804 312.338 110.96C313.316 109.378 311.218 109.798 309.838 111.46C308.978 112.496 308.94 112.96 309.716 112.96C310.333 112.96 310.838 113.69 310.838 114.582C310.838 115.74 310.48 115.922 309.588 115.219C308.03 113.989 304.726 113.97 305.483 115.195C305.79 115.691 306.707 115.84 307.523 115.527C308.431 115.179 308.844 115.443 308.588 116.209C308.359 116.897 307.534 117.46 306.755 117.46C305.976 117.46 304.743 118.023 304.017 118.71C301.402 121.183 299.339 119.674 298.557 114.717L297.966 110.975L300.902 112.493C303.881 114.034 304.362 113.67 303.913 110.21C303.823 109.523 304.247 108.96 304.853 108.96C305.46 108.96 305.678 109.41 305.338 109.96C304.998 110.51 305.197 110.96 305.779 110.96C306.361 110.96 306.838 110.435 306.838 109.793C306.838 109.152 307.117 108.905 307.457 109.246Z" fill="black"/>
<path d="M318.794 112.487C318.268 112.812 317.838 112.151 317.838 111.019C317.838 108.604 318.394 108.361 319.187 110.428C319.497 111.235 319.32 112.162 318.794 112.487Z" fill="black"/>
<path d="M290.843 115.462C291.853 115.782 293.278 115.396 294.009 114.603C295.527 112.957 296.307 113.353 296.325 115.781C296.337 117.373 291.91 120.033 289.473 119.897C288.849 119.862 289.416 119.402 290.733 118.875C293.776 117.658 292.897 116.656 289.528 117.502C287.107 118.109 285.195 120.65 286.315 121.771C286.604 122.059 288.304 121.846 290.095 121.296C291.885 120.747 293.941 120.494 294.665 120.736C296.371 121.304 291.055 124.115 288.91 123.779C288.046 123.643 286.104 124.353 284.595 125.356C282.866 126.506 280.964 126.958 279.45 126.577C277.781 126.159 276.862 126.456 276.442 127.55C276.109 128.417 275.275 128.923 274.587 128.674C273.9 128.425 272.474 128.95 271.418 129.84C269.626 131.353 269.544 131.337 270.18 129.599C270.689 128.207 270.483 127.882 269.365 128.311C268.479 128.651 267.44 128.085 266.818 126.923C266.178 125.728 266.144 124.96 266.729 124.96C267.259 124.96 267.92 125.748 268.199 126.71C268.484 127.691 268.616 127.361 268.499 125.96C268.37 124.408 267.761 123.576 266.895 123.766C265.772 124.013 265.74 123.783 266.729 122.591C268.369 120.615 273.384 121.19 273.201 123.332C273.126 124.216 273.502 124.668 274.038 124.336C274.574 124.005 274.798 122.917 274.537 121.918C274.215 120.686 274.59 120.134 275.7 120.202C276.601 120.257 278.463 119.971 279.838 119.566C281.731 119.008 281.974 119.084 280.838 119.879C279.917 120.524 279.798 120.935 280.529 120.945C281.184 120.953 282.028 120.462 282.404 119.853C282.881 119.082 283.348 119.157 283.948 120.103C284.532 121.026 284.812 121.076 284.823 120.26C284.831 119.6 284.09 118.641 283.175 118.129C281.701 117.304 281.757 117.121 283.666 116.515C284.851 116.139 286.243 116.092 286.76 116.412C287.277 116.731 287.994 116.517 288.353 115.936C288.712 115.354 289.833 115.141 290.843 115.462Z" fill="black"/>
<path d="M297.838 121.46C297.288 121.8 296.838 121.601 296.838 121.019C296.838 120.437 297.288 119.96 297.838 119.96C298.388 119.96 298.838 120.158 298.838 120.401C298.838 120.644 298.388 121.12 297.838 121.46Z" fill="black"/>
<path d="M260.514 128.149C261.979 128.399 262.278 127.899 262.034 125.609C261.832 123.705 262.138 122.893 262.956 123.166C266.138 124.227 263.72 132.234 259.918 133.229C258.488 133.603 258.189 133.246 258.539 131.583C258.978 129.501 258.956 129.498 257.412 131.401C256.141 132.969 255.838 133.041 255.838 131.774C255.838 129.657 258.275 127.768 260.514 128.149Z" fill="black"/>
<path d="M251.338 127.931L253.838 126.543C255.213 125.78 256.45 125.112 256.588 125.058C256.726 125.004 256.838 125.635 256.838 126.46C256.838 127.433 255.872 127.955 254.088 127.945L251.338 127.931Z" fill="black"/>
<path d="M259.897 126.96C259.379 126.96 258.724 126.585 258.441 126.127C258.158 125.668 258.581 125.293 259.382 125.293C260.183 125.293 260.838 125.668 260.838 126.127C260.838 126.585 260.415 126.96 259.897 126.96Z" fill="black"/>
<path d="M243.238 131.693C242.908 131.363 242.99 130.523 243.421 129.826C244.051 128.806 244.287 128.806 244.625 129.822C245.109 131.272 244.133 132.588 243.238 131.693Z" fill="black"/>
<path d="M248.838 130.543C248.838 132.309 246.685 132.002 246.067 130.148C245.849 129.494 246.384 128.96 247.255 128.96C248.126 128.96 248.838 129.672 248.838 130.543Z" fill="black"/>
<path d="M234.498 132.383C235.235 132.666 235.838 132.461 235.838 131.929C235.838 130.665 236.104 130.698 239.311 132.362C241.828 133.668 241.887 133.841 240.175 134.905C238.647 135.855 238.885 135.942 241.588 135.424C245.629 134.649 246.144 137.044 242.312 138.79C240.075 139.809 239.665 139.675 238.728 137.617C237.272 134.423 234.841 134.694 234.155 138.127C233.843 139.685 233.208 140.96 232.744 140.96C232.28 140.96 232.162 140.279 232.481 139.447C232.801 138.615 232.506 137.265 231.827 136.447C230.846 135.265 230.856 134.643 231.876 133.414C232.581 132.564 233.761 132.1 234.498 132.383Z" fill="black"/>
<path d="M250.877 133.936C248.845 135.192 247.5 134.072 248.947 132.329C249.814 131.285 250.459 131.181 251.237 131.959C252.016 132.738 251.915 133.295 250.877 133.936Z" fill="black"/>
<path d="M221.757 136.616C225.075 136.514 227.337 135.964 227.592 135.198C227.821 134.51 228.489 134.244 229.075 134.606C229.75 135.024 229.465 135.759 228.298 136.613C226.565 137.88 227.338 138.513 230.088 138.078C230.501 138.013 230.838 138.69 230.838 139.582C230.838 140.857 230.539 140.957 229.443 140.047C228.676 139.411 227.439 139.018 226.693 139.175C225.948 139.332 225.476 138.821 225.644 138.041C225.898 136.867 225.681 136.845 224.394 137.913C223.538 138.624 222.824 138.812 222.808 138.332C222.791 137.853 222.317 138.251 221.753 139.218C221.19 140.185 220.986 141.39 221.298 141.896C221.611 142.402 220.954 143.106 219.838 143.46C218.722 143.814 218.041 144.48 218.325 144.939C218.609 145.398 217.986 145.55 216.942 145.277C215.897 145.004 214.12 145.274 212.994 145.877C211.342 146.761 210.747 146.633 209.922 145.217C209.03 143.685 208.399 143.933 209.088 145.545C209.428 146.341 203.009 148.979 200.973 148.881C199.936 148.831 199.795 148.618 200.588 148.298C202.271 147.619 202.167 145.432 200.366 143.631C199.07 142.335 199.07 142.013 200.366 140.937C201.395 140.082 201.838 140.053 201.838 140.838C201.838 141.455 203.3 141.931 205.088 141.897C208.176 141.836 208.219 141.786 205.943 140.875C203.042 139.715 203.346 139.303 207.588 138.641C210.327 138.214 210.838 138.444 210.838 140.106C210.838 141.191 211.26 141.817 211.777 141.498C212.293 141.179 213.179 141.715 213.746 142.689C214.675 144.284 214.78 144.237 214.808 142.21C214.835 140.175 215.851 139.465 218.162 139.866C218.616 139.945 218.697 139.541 218.343 138.968C217.989 138.396 217.312 138.167 216.838 138.46C216.364 138.753 215.694 138.535 215.348 137.976C214.631 136.815 214.52 136.839 221.757 136.616Z" fill="black"/>
<path d="M235.231 139.96C235.015 139.96 234.838 139.285 234.838 138.46C234.838 137.635 235.274 136.96 235.807 136.96C236.339 136.96 236.516 137.635 236.2 138.46C235.883 139.285 235.447 139.96 235.231 139.96Z" fill="black"/>
<path d="M223.651 141.85C222.475 140.621 222.324 139.955 223.151 139.657C223.804 139.421 224.829 139.614 225.43 140.086C226.031 140.557 226.818 140.647 227.18 140.285C227.542 139.923 227.838 140.329 227.838 141.186C227.838 143.503 225.574 143.862 223.651 141.85Z" fill="black"/>
<path d="M184.664 144.296C185.035 143.726 186.013 143.003 186.838 142.689C189.019 141.859 189.152 141.883 191.279 143.492C192.733 144.592 192.846 144.96 191.729 144.96C190.909 144.96 189.729 144.451 189.107 143.829C188.266 142.988 188.057 143.181 188.29 144.579C188.463 145.614 189.106 146.348 189.721 146.21C190.335 146.072 190.838 147.094 190.838 148.479C190.838 150.616 190.485 150.91 188.514 150.415C187.039 150.044 185.715 150.403 184.891 151.396C184.107 152.34 182.156 152.914 179.966 152.844C177.97 152.78 177.126 152.522 178.088 152.271C179.05 152.019 179.838 151.168 179.838 150.378C179.838 149.321 179.377 149.19 178.088 149.88C172.407 152.921 166.922 154.929 165.64 154.438C163.61 153.659 165.593 147.257 168.065 146.611C170.424 145.994 170.302 147.084 167.7 149.877C166.003 151.699 165.839 152.343 166.903 153C167.64 153.455 168.65 153.576 169.147 153.269C169.649 152.959 169.56 152.406 168.946 152.027C168.207 151.57 168.609 150.304 170.159 148.202C172.366 145.211 172.608 145.128 175.203 146.474C177.643 147.74 177.995 147.709 178.56 146.174C179.478 143.685 181.074 142.911 182.631 144.203C183.555 144.97 184.206 145 184.664 144.296Z" fill="black"/>
<path d="M193.17 146.459C194.07 145.801 194.49 144.945 194.103 144.558C193.716 144.171 194.17 144.15 195.113 144.512C196.055 144.874 196.565 145.592 196.246 146.109C195.927 146.625 196.21 147.703 196.874 148.504C197.879 149.714 197.65 149.96 195.519 149.96C192.3 149.96 191.01 148.038 193.17 146.459Z" fill="black"/>
<path d="M139.077 149.233C141.027 149.496 143.234 149.324 143.98 148.851C145.824 147.683 147.838 147.74 147.838 148.96C147.838 149.51 148.243 149.848 148.738 149.71C149.233 149.572 149.645 149.86 149.653 150.348C149.667 151.249 151.805 152.917 152.98 152.945C153.332 152.953 153.904 151.835 154.249 150.46C154.865 148.002 156.838 146.923 156.838 149.043C156.838 149.639 157.372 149.949 158.026 149.731C158.679 149.513 159.958 150.038 160.868 150.898C163.189 153.09 161.557 156.002 158.046 155.931C156.557 155.9 153.538 156.126 151.338 156.432C148.837 156.78 147.847 156.655 148.695 156.099C150.378 154.996 148.647 153.712 146.557 154.514C145.749 154.824 144.829 154.379 144.498 153.517C144.17 152.661 143.099 151.984 142.119 152.012C140.596 152.057 140.664 152.292 142.588 153.634C145.785 155.864 145.374 157.159 141.574 156.832C139.778 156.677 137.788 156.873 137.151 157.266C135.395 158.352 126.442 157.801 125.588 156.555C125.081 155.815 124.595 155.793 124.088 156.486C123.145 157.774 113.838 158.136 113.838 156.884C113.838 155.5 111.068 155.771 110.591 157.201C110.292 158.099 109.706 157.971 108.475 156.74C107.045 155.309 106.976 154.712 108.046 152.999C108.746 151.877 109.661 150.96 110.079 150.96C111.181 150.96 111.01 152.736 109.838 153.46C108.532 154.267 108.549 155.96 109.863 155.96C110.427 155.96 111.16 154.601 111.492 152.939C112.204 149.381 113.427 148.374 115.224 149.865C115.938 150.458 116.818 150.647 117.18 150.285C117.542 149.923 117.838 150.35 117.838 151.234C117.838 152.119 118.283 153.117 118.827 153.453C119.374 153.791 119.572 153.43 119.27 152.643C118.932 151.762 119.535 151.011 120.86 150.664C122.413 150.258 122.85 150.486 122.461 151.501C122.166 152.268 122.309 153.133 122.777 153.422C123.245 153.712 123.901 153.239 124.234 152.371C124.567 151.504 125.401 150.997 126.089 151.246C126.776 151.495 128.203 150.97 129.26 150.08C130.317 149.189 130.884 148.971 130.521 149.596C130.145 150.243 130.718 150.957 131.852 151.253C133.033 151.562 134.186 151.16 134.687 150.265C135.283 149.2 136.577 148.896 139.077 149.233Z" fill="black"/>
</svg>
