<svg width="60" height="60" viewBox="0 0 60 60" fill="none" xmlns="http://www.w3.org/2000/svg">
<rect width="60" height="60" rx="5" fill="white" fill-opacity="0.1"/>
<g filter="url(#filter0_b_1_42158)">
<circle cx="30" cy="30" r="16" stroke="url(#paint0_linear_1_42158)" stroke-width="2" stroke-linecap="round"/>
</g>
<g filter="url(#filter1_b_1_42158)">
<path d="M30 46C32.9745 46 35.4966 43.9958 37.2215 41.1211C38.9582 38.2265 40 34.2922 40 30C40 25.7078 38.9582 21.7735 37.2215 18.8789C35.4966 16.0042 32.9745 14 30 14C27.0255 14 24.5034 16.0042 22.7785 18.8789C21.0418 21.7735 20 25.7078 20 30C20 34.2922 21.0418 38.2265 22.7785 41.1211C24.5034 43.9958 27.0255 46 30 46Z" stroke="url(#paint1_linear_1_42158)" stroke-width="2" stroke-linecap="round"/>
</g>
<g filter="url(#filter2_b_1_42158)">
<path d="M30 46C30.5708 46 31.0146 45.7064 31.3198 45.3942C31.6233 45.0837 31.8681 44.6793 32.0718 44.2487C32.4814 43.3824 32.8239 42.1927 33.1019 40.8027C33.6612 38.0062 34 34.1874 34 30C34 25.8126 33.6612 21.9938 33.1019 19.1973C32.8239 17.8073 32.4814 16.6176 32.0718 15.7513C31.8681 15.3207 31.6233 14.9163 31.3198 14.6058C31.0146 14.2936 30.5708 14 30 14C29.4292 14 28.9854 14.2936 28.6802 14.6058C28.3767 14.9163 28.1319 15.3207 27.9282 15.7513C27.5186 16.6176 27.1761 17.8073 26.8981 19.1973C26.3388 21.9938 26 25.8126 26 30C26 34.1874 26.3388 38.0062 26.8981 40.8027C27.1761 42.1927 27.5186 43.3824 27.9282 44.2487C28.1319 44.6793 28.3767 45.0837 28.6802 45.3942C28.9854 45.7064 29.4292 46 30 46Z" stroke="url(#paint2_linear_1_42158)" stroke-width="2" stroke-linecap="round"/>
</g>
<defs>
<filter id="filter0_b_1_42158" x="11" y="11" width="38" height="38" filterUnits="userSpaceOnUse" color-interpolation-filters="sRGB">
<feFlood flood-opacity="0" result="BackgroundImageFix"/>
<feGaussianBlur in="BackgroundImageFix" stdDeviation="1"/>
<feComposite in2="SourceAlpha" operator="in" result="effect1_backgroundBlur_1_42158"/>
<feBlend mode="normal" in="SourceGraphic" in2="effect1_backgroundBlur_1_42158" result="shape"/>
</filter>
<filter id="filter1_b_1_42158" x="17" y="11" width="26" height="38" filterUnits="userSpaceOnUse" color-interpolation-filters="sRGB">
<feFlood flood-opacity="0" result="BackgroundImageFix"/>
<feGaussianBlur in="BackgroundImageFix" stdDeviation="1"/>
<feComposite in2="SourceAlpha" operator="in" result="effect1_backgroundBlur_1_42158"/>
<feBlend mode="normal" in="SourceGraphic" in2="effect1_backgroundBlur_1_42158" result="shape"/>
</filter>
<filter id="filter2_b_1_42158" x="23" y="11" width="14" height="38" filterUnits="userSpaceOnUse" color-interpolation-filters="sRGB">
<feFlood flood-opacity="0" result="BackgroundImageFix"/>
<feGaussianBlur in="BackgroundImageFix" stdDeviation="1"/>
<feComposite in2="SourceAlpha" operator="in" result="effect1_backgroundBlur_1_42158"/>
<feBlend mode="normal" in="SourceGraphic" in2="effect1_backgroundBlur_1_42158" result="shape"/>
</filter>
<linearGradient id="paint0_linear_1_42158" x1="30" y1="15" x2="30" y2="45" gradientUnits="userSpaceOnUse">
<stop stop-color="#FF6157"/>
<stop offset="1" stop-color="#FF9182"/>
</linearGradient>
<linearGradient id="paint1_linear_1_42158" x1="30" y1="15" x2="30" y2="45" gradientUnits="userSpaceOnUse">
<stop stop-color="#FF6157"/>
<stop offset="1" stop-color="#FF9182"/>
</linearGradient>
<linearGradient id="paint2_linear_1_42158" x1="30" y1="15" x2="30" y2="45" gradientUnits="userSpaceOnUse">
<stop stop-color="#FF6157"/>
<stop offset="1" stop-color="#FF9182"/>
</linearGradient>
</defs>
</svg>
