<svg width="60" height="60" viewBox="0 0 60 60" fill="none" xmlns="http://www.w3.org/2000/svg">
<rect opacity="0.1" width="60" height="60" rx="5" fill="white"/>
<g filter="url(#filter0_b_2317_106177)">
<circle cx="30" cy="30" r="20" stroke="url(#paint0_linear_2317_106177)" stroke-width="2" stroke-linecap="round"/>
</g>
<g filter="url(#filter1_b_2317_106177)">
<path d="M30 50C33.7778 50 37.0516 47.5777 39.3308 43.969C41.618 40.3475 43 35.4061 43 30C43 24.5939 41.618 19.6525 39.3308 16.031C37.0516 12.4223 33.7778 10 30 10C26.2222 10 22.9484 12.4223 20.6692 16.031C18.382 19.6525 17 24.5939 17 30C17 35.4061 18.382 40.3475 20.6692 43.969C22.9484 47.5777 26.2222 50 30 50Z" stroke="url(#paint1_linear_2317_106177)" stroke-width="2" stroke-linecap="round"/>
</g>
<g filter="url(#filter2_b_2317_106177)">
<path d="M30.5 50C31.137 50 31.6218 49.646 31.9486 49.283C32.2782 48.9169 32.5492 48.4343 32.7792 47.9062C33.2424 46.8425 33.6361 45.3652 33.9583 43.6162C34.6057 40.1018 35 35.2883 35 30C35 24.7117 34.6057 19.8982 33.9583 16.3838C33.6361 14.6348 33.2424 13.1575 32.7792 12.0938C32.5492 11.5657 32.2782 11.0831 31.9486 10.717C31.6218 10.354 31.137 10 30.5 10C29.863 10 29.3782 10.354 29.0514 10.717C28.7218 11.0831 28.4508 11.5657 28.2208 12.0938C27.7576 13.1575 27.3639 14.6348 27.0417 16.3838C26.3943 19.8982 26 24.7117 26 30C26 35.2883 26.3943 40.1018 27.0417 43.6162C27.3639 45.3652 27.7576 46.8425 28.2208 47.9062C28.4508 48.4343 28.7218 48.9169 29.0514 49.283C29.3782 49.646 29.863 50 30.5 50Z" stroke="url(#paint2_linear_2317_106177)" stroke-width="2" stroke-linecap="round"/>
</g>
<defs>
<filter id="filter0_b_2317_106177" x="7" y="7" width="46" height="46" filterUnits="userSpaceOnUse" color-interpolation-filters="sRGB">
<feFlood flood-opacity="0" result="BackgroundImageFix"/>
<feGaussianBlur in="BackgroundImageFix" stdDeviation="1"/>
<feComposite in2="SourceAlpha" operator="in" result="effect1_backgroundBlur_2317_106177"/>
<feBlend mode="normal" in="SourceGraphic" in2="effect1_backgroundBlur_2317_106177" result="shape"/>
</filter>
<filter id="filter1_b_2317_106177" x="14" y="7" width="32" height="46" filterUnits="userSpaceOnUse" color-interpolation-filters="sRGB">
<feFlood flood-opacity="0" result="BackgroundImageFix"/>
<feGaussianBlur in="BackgroundImageFix" stdDeviation="1"/>
<feComposite in2="SourceAlpha" operator="in" result="effect1_backgroundBlur_2317_106177"/>
<feBlend mode="normal" in="SourceGraphic" in2="effect1_backgroundBlur_2317_106177" result="shape"/>
</filter>
<filter id="filter2_b_2317_106177" x="23" y="7" width="15" height="46" filterUnits="userSpaceOnUse" color-interpolation-filters="sRGB">
<feFlood flood-opacity="0" result="BackgroundImageFix"/>
<feGaussianBlur in="BackgroundImageFix" stdDeviation="1"/>
<feComposite in2="SourceAlpha" operator="in" result="effect1_backgroundBlur_2317_106177"/>
<feBlend mode="normal" in="SourceGraphic" in2="effect1_backgroundBlur_2317_106177" result="shape"/>
</filter>
<linearGradient id="paint0_linear_2317_106177" x1="30" y1="11" x2="30" y2="49" gradientUnits="userSpaceOnUse">
<stop stop-color="#FF6157"/>
<stop offset="1" stop-color="#FF9182"/>
</linearGradient>
<linearGradient id="paint1_linear_2317_106177" x1="30" y1="11" x2="30" y2="49" gradientUnits="userSpaceOnUse">
<stop stop-color="#FF6157"/>
<stop offset="1" stop-color="#FF9182"/>
</linearGradient>
<linearGradient id="paint2_linear_2317_106177" x1="30.5" y1="11" x2="30.5" y2="49" gradientUnits="userSpaceOnUse">
<stop stop-color="#FF6157"/>
<stop offset="1" stop-color="#FF9182"/>
</linearGradient>
</defs>
</svg>
