<svg width="60" height="60" viewBox="0 0 60 60" fill="none" xmlns="http://www.w3.org/2000/svg">
<path d="M19.57 41.0971L17.6742 42L19.57 42.9029L29.57 47.665L30 47.8698L30.43 47.665L40.43 42.9029L42.3258 42L40.43 41.0971L30.43 36.335L30 36.1302L29.57 36.335L19.57 41.0971Z" fill="#1A1932" fill-opacity="0.75" stroke="white" stroke-width="2" stroke-linecap="round"/>
<path d="M11.57 29.0971L9.67417 30L11.57 30.9029L29.57 39.4748L30 39.6795L30.43 39.4748L48.43 30.9029L50.3258 30L48.43 29.0971L30.43 20.5252L30 20.3205L29.57 20.5252L11.57 29.0971Z" fill="#1A1932" fill-opacity="0.75" stroke="white" stroke-width="2" stroke-linecap="round"/>
<path d="M19.57 18.0971L17.6742 19L19.57 19.9029L29.57 24.665L30 24.8698L30.43 24.665L40.43 19.9029L42.3258 19L40.43 18.0971L30.43 13.335L30 13.1302L29.57 13.335L19.57 18.0971Z" fill="#1A1932" fill-opacity="0.75" stroke="white" stroke-width="2" stroke-linecap="round"/>
</svg>
